<?xml version="1.0" encoding="UTF-8"?>
<svg width="1072px" height="530px" viewBox="0 0 1072 530" version="1.1" xmlns="http://www.w3.org/2000/svg" xmlns:xlink="http://www.w3.org/1999/xlink">
    <!-- Generator: Sketch 43.2 (39069) - http://www.bohemiancoding.com/sketch -->
    <title>map</title>
    <desc>Created with Sketch.</desc>
    <defs>
        <polygon id="path-1" points="92.9030726 207.659008 96.7254052 223.335581 122.613252 216.519435 126.678737 230.259795 164.018384 220.511749 156.865089 191.533278"></polygon>
        <polygon id="path-2" points="0.442091077 248.690056 4.88555893 264.404986 30.3885913 256.89771 25.556713 241.174894 12.5203862 245.030731 11.2491116 240.000837 4.62826052 241.772346 6.17702403 247.075323"></polygon>
        <polygon id="path-3" points="26.3228309 236.387252 30.3507995 247.247334 39.4147843 243.982086 35.528008 232.957826"></polygon>
        <polygon id="path-4" points="49.7091203 267.392865 41.5095925 241.288424 52.5036958 238.253853 46.2859839 220.720026 66.7952233 214.475424 73.6966213 236.924127 53.8609842 243.116293 60.5398649 264.52703"></polygon>
        <polygon id="path-5" points="65.792887 251.333299 69.9978592 260.922384 84.4991311 255.220294 80.2228996 245.348861"></polygon>
        <polygon id="path-6" points="100.547268 242.677309 103.887717 252.299334 113.665706 248.750485 112.795132 245.804652 115.492902 244.657108 113.055296 237.74092"></polygon>
        <polygon id="path-7" points="13.1611555 277.732861 15.4750667 284.130066 24.1881994 280.96306 21.8897501 274.280145"></polygon>
        <polygon id="path-8" points="9.75818678 298.244117 13.5840056 313.25765 29.1185377 309.208641 24.7508791 294.091581"></polygon>
        <polygon id="path-9" points="27.2676487 293.020693 30.7366621 303.601339 48.166961 298.09017 49.1740031 300.893485 73.0256256 293.020693 65.2691982 272.797817 42.7439142 280.959614 45.1665442 287.271601"></polygon>
        <polygon id="path-10" points="15.2026959 327.573002 36.8944466 321.145667 45.0335418 349.177568 23.518188 355.855306"></polygon>
        <polygon id="path-11" points="42.6795555 319.833335 48.9634418 341.793736 60.3674005 338.57804 57.6900198 329.970074 60.7323596 329.24269 56.7700187 315.714872 61.1130322 314.597185 59.1924349 308.168836 47.1655113 311.701843 48.921877 317.540175"></polygon>
        <rect id="path-12" x="84.7960089" y="263.847183" width="29.9465002" height="15.573523"></rect>
        <rect id="path-13" x="119.746681" y="270.971941" width="19.158024" height="9.84992054"></rect>
        <rect id="path-14" x="125.850311" y="284.096237" width="13.0919534" height="12.752771"></rect>
        <rect id="path-15" x="132.005485" y="243.972897" width="32.1870288" height="16.8622137"></rect>
        <rect id="path-16" x="145.207774" y="287.070133" width="27.7000723" height="22.5374205"></rect>
        <rect id="path-17" x="155.037735" y="320.037024" width="29.8308458" height="32.0788124"></rect>
        <polygon id="path-18" points="65.9081116 354.870062 79.6501363 350.751045 80.0608412 352.260046 86.5722827 350.727654 89.3476691 360.296808 68.7748866 365.936793"></polygon>
        <polygon id="path-19" points="485.56198 23.1435041 492.82478 37.9860267 522.567239 24.8808348 511.429031 0.503087995 483.681116 12.2912156 488.097473 21.7916404"></polygon>
        <polygon id="path-20" points="175.068155 146.02812 170.300916 134.036893 206.774196 120.682289 209.598039 128.631299 198.204748 132.655598 199.618128 136.802401"></polygon>
        <polygon id="path-21" points="178.390066 188.874048 188.90683 251.595714 255.017029 223.503947 246.398472 177.06969"></polygon>
        <polygon id="path-22" points="248.124114 171.119241 271.480622 167.683644 275.604062 189.715148 263.528186 191.090835 262.607442 187.007217 251.53799 188.315326"></polygon>
        <polygon id="path-23" points="311.013517 174.395548 334.076786 214.617493 394.411514 182.255064 386.080162 167.360237"></polygon>
        <polygon id="path-24" points="200.118677 277.958218 197.989983 272.991264 231.345562 252.620239 242.813239 271.042375 226.546346 281.409502 235.736899 297.480904 220.118026 305.251121 221.153412 314.397025 211.049354 318.9742 197.440915 279.977099"></polygon>
        <polygon id="path-25" points="215.651871 344.928825 230.098996 338.622387 232.686858 343.850329 237.913017 341.5077 243.339379 352.328572 222.524272 361.344148"></polygon>
        <polygon id="path-26" points="212.85143 323.707222 235.499765 309.723714 247.153236 328.419854 239.48207 333.993658 237.506246 330.654084 222.725073 339.040795"></polygon>
        <polygon id="path-27" points="237.027209 303.236181 242.473452 314.043261 250.403572 309.943797 248.405302 306.045255 251.352887 304.463064 253.33747 307.901183 266.134608 300.687703 259.893985 289.880074"></polygon>
        <polygon id="path-28" points="248.911713 241.335806 268.243467 229.689452 289.850189 262.582047 268.804168 275.128577"></polygon>
        <polygon id="path-29" points="284.703929 288.435209 305.428012 275.282984 323.910619 306.466291 303.804915 318.153901"></polygon>
        <polygon id="path-30" points="243.256959 336.127571 252.565543 352.909336 260.460944 348.633906 250.738513 331.587207"></polygon>
        <polygon id="path-31" points="311.778063 336.059992 330.5268 322.256496 359.194726 361.996643 340.456754 374.977826 326.202929 356.193804"></polygon>
        <polygon id="path-32" points="314.346072 244.618183 322.650536 239.290791 323.843638 241.101076 328.64774 238.003198 337.595104 251.452651 330.541153 255.244262 333.13428 260.837187 326.705885 263.864495"></polygon>
        <polygon id="path-33" points="330.237626 272.305825 340.139674 292.768784 347.670756 289.283574 345.616139 285.08495 354.264777 280.323268 347.822823 266.596484 341.896664 269.414518 340.56642 266.643748"></polygon>
        <polygon id="path-34" points="393.220496 198.752865 410.847442 186.982412 431.865503 217.746147 415.456544 228.970422 412.427616 224.786768 405.68726 229.576742 401.57043 223.659217 408.043934 218.477206"></polygon>
        <polygon id="path-35" points="404.064241 248.71892 410.967081 262.357313 421.973439 256.485012 414.801486 243.13437"></polygon>
        <polygon id="path-36" points="409.316491 270.715726 417.873102 284.161376 443.710679 266.123986 434.812676 253.552499"></polygon>
        <polygon id="path-37" points="349.191754 304.635835 356.439647 322.946111 404.104478 300.848501 397.463971 284.033607"></polygon>
        <polygon id="path-38" points="370.780645 347.049632 406.208151 328.858842 421.969399 326.233778 419.717274 317.96211 433.571277 316.335475 442.825082 349.576936 383.291993 369.982909"></polygon>
        <polygon id="path-39" points="418.46358 290.04953 422.341434 295.432722 433.437309 292.028285 428.563741 283.338417"></polygon>
        <polygon id="path-40" points="444.466199 323.063786 445.297168 333.994011 449.604084 333.537793 452.0291 349.702758 479.08265 346.497464 475.013801 324.769173 470.272392 325.502381 469.019602 318.462682"></polygon>
        <polygon id="path-41" points="411.92516 147.062976 416.851409 165.53757 429.130436 161.820415 428.585648 159.39574 440.755347 156.168709 441.289943 158.528528 449.706352 156.073278 451.42688 162.924814 469.919077 157.243459 465.562631 145.462895 483.811157 140.095627 478.664398 122.541983 459.48751 126.85859 463.072174 142.526787 448.440741 146.857291 445.863192 137.279965"></polygon>
        <polygon id="path-42" points="490.670104 123.815934 495.83354 144.259359 522.804223 137.851622 517.039483 116.652164"></polygon>
        <polygon id="path-43" points="463.642904 168.276331 463.565077 179.337925 485.042487 179.337925 485.042487 168.276331"></polygon>
        <polygon id="path-44" points="452.698977 188.630812 455.754605 202.599792 487.247579 194.320505 484.029813 180.905578"></polygon>
        <polygon id="path-45" points="494.561443 176.744625 500.617107 200.101923 535.232418 190.190127 528.768163 167.880712"></polygon>
        <polygon id="path-46" points="537.37636 147.275147 542.335964 170.122864 579.006272 160.113785 573.083099 137.31054"></polygon>
        <polygon id="path-47" points="537.266106 106.83024 556.07239 101.941978 557.232379 105.26444 597.955239 94.3733238 591.18153 114.614771 570.972511 120.774204 569.503994 113.679923 564.198802 115.023361 565.865592 121.531162 545.020988 127.125424"></polygon>
        <polygon id="path-48" points="466.865303 229.534341 470.511117 247.728202 503.682 239.851947 499.640566 225.547572 490.444963 227.981511 489.764905 224.010493"></polygon>
        <polygon id="path-49" points="478.712576 281.183524 496.096669 277.802691 495.626929 275.234408 509.392076 272.59293 511.045895 281.905274 501.396301 284.055702 503.084401 294.188007 482.580752 298.575954"></polygon>
        <path d="M541.452074,216.459443 L526.763197,223.752923 L521.479315,232.095212 L519.306651,244.238042 L521.278263,253.573549 L527.196804,261.795392 L539.452667,257.82252 L546.55714,247.345554 L548.77613,231.617134 C548.77613,231.617134 548.175584,224.611033 546.55714,221.26154 C544.938696,217.912047 541.452074,216.459443 541.452074,216.459443 Z" id="path-50"></path>
        <polygon id="path-51" points="569.593865 247.428013 566.429836 252.813811 574.584044 257.676132 577.684996 251.714242"></polygon>
        <polygon id="path-52" points="587.474831 224.008442 592.817844 213.66625 578.966151 205.966778 576.481754 211.158664 580.737293 213.927723 577.211801 219.608173"></polygon>
        <polygon id="path-53" points="694.660132 113.378337 646.098884 166.436026 618.732832 204.928097 645.959484 222.610752 695.309187 152.237943 701.917006 158.498364 723.19649 133.166571 704.113358 113.804639"></polygon>
        <polygon id="path-54" points="618.720061 204.963402 609.556209 216.835457 637.774669 235.025815 645.983397 222.558296"></polygon>
        <polygon id="path-55" points="609.697603 216.899237 583.714749 263.596518 562.96244 314.261699 592.510263 323.569884 600.340513 300.99004 628.064806 251.385104 637.695127 234.710132"></polygon>
        <polygon id="path-56" points="560.57846 321.577111 590.708611 331.168811 583.271524 351.385141 555.923394 346.98716"></polygon>
        <polygon id="path-57" points="484.037275 317.695278 487.848522 316.594104 487.786979 312.555736 492.397548 311.632597 494.455562 316.777267 499.603163 315.551543 498.774535 311.42892 504.30751 310.589303 505.052616 314.6328 509.940126 313.884764 509.373787 309.751151 513.365266 308.945968 517.931875 333.990152 489.093295 340.394981"></polygon>
        <polygon id="path-58" points="527.366945 309.218514 540.392734 310.905808 539.895264 313.070789 545.922778 313.807835 544.261127 323.623151 539.975123 322.492672 539.984648 326.262157 526.794012 325.092847 525.654741 318.918804"></polygon>
        <polygon id="path-59" points="526.219614 326.022581 528.005816 347.136829 546.432703 347.136829 548.991117 328.119426"></polygon>
        <polygon id="path-60" points="640.460679 45.0193373 647.214699 60.8989853 658.552535 55.8251233 651.033828 40.2233475"></polygon>
        <polygon id="path-61" points="712.629931 60.7385087 719.786759 76.9294168 744.557243 65.6788197 736.972837 49.6666976"></polygon>
        <polygon id="path-62" points="720.241263 90.5419284 732.789674 109.437245 771.216829 86.6732567 754.987148 69.3396257 743.548071 76.1238025"></polygon>
        <polygon id="path-63" points="607.33731 320.225627 607.961239 356.223057 664.00833 355.736943 663.078702 350.017597 685.689227 346.701253 689.208536 340.401828 688.191206 332.829488 682.399193 328.854135 678.113129 328.854135 677.23612 314.765624 658.570879 314.171764"></polygon>
        <polygon id="path-64" points="633.047873 295.23897 657.895831 250.56076 653.968699 248.202129 661.69573 230.749753 676.670794 233.780905 701.207617 246.597276 668.748102 290.575167 658.13426 309.592836"></polygon>
        <polygon id="path-65" points="674.635057 225.012484 707.491242 174.079517 712.855046 166.277051 709.969441 162.801665 727.06846 144.592561 734.721719 159.621171 739.677732 162.83872 748.5368 179.230619 745 196.135103 704.063911 244.423041"></polygon>
    </defs>
    <g id="Page-1" stroke="none" stroke-width="1" fill="none" fill-rule="evenodd">
        <g id="map">
            <rect id="Rectangle-2" fill="#FFFFFF" x="-111" y="-85" width="1304" height="629"></rect>
            <path d="M326.267294,544.980789 L293.20244,447.220196 C293.20244,447.220196 291.502377,409.908487 313.985692,387.228895 C336.469007,364.549303 478.790727,322.737857 478.790727,322.737857 L664.571051,282.341277 L688.538735,231.55643 C688.538735,231.55643 707.425166,186.175033 736.601135,176.461256 C765.777103,166.747479 855.816444,123.34087 855.816444,123.34087 L950.731002,87.151794 L1211.24371,-18.1430174 L-49.4927262,11.4482363 L-48.755731,566.54927 L326.267294,544.980789 Z" id="green-stuff" fill="#B8E986"></path>
            <polygon id="water" fill="#4990E2" points="-0.718764295 393.166931 58.3179712 383.785403 154.296589 352.770479 443.548238 256.194513 607.644059 185.515094 749.94688 127.915817 1100.29108 0 -17.5995437 -21.2434921"></polygon>
            <path d="M197.064521,268.351844 C333.813243,268.351844 435.345156,239.003441 444.209585,203.450162 C446.084712,195.929438 455.435627,173.056041 443.140886,165.400001 C430.846144,157.743962 307.549191,159.061748 204.648028,159.061748 C67.8993065,159.061748 -3.77803524,137.132242 -3.77803524,137.132242 C-3.77803524,137.132242 -54.4443058,250.484923 -41.4428936,256.732126 C-28.4414814,262.97933 95.1772641,268.351844 197.064521,268.351844 Z" id="isle" fill="#B8E986" transform="translate(202.900806, 202.742043) rotate(-14.000000) translate(-202.900806, -202.742043) "></path>
            <g id="paths" transform="translate(-24.000000, 14.000000)" stroke-width="7">
                <polyline id="Path-5" stroke="#F8E81C" points="167.880026 367.146093 376.287813 294.013849 419.964766 292.488518 552.645425 226.00126"></polyline>
                <polyline id="Path-5" stroke="#9B9B9B" points="170 373.573244 378.407787 300.441 422.08474 298.915669 554.765399 232.428412 676.882061 176.680232 956.937499 60.5648264 1117.48892 0.292969406"></polyline>
                <path d="M298.222569,332.322492 L317.380593,391.432614" id="Path-6" stroke="#9B9B9B"></path>
                <path d="M162.479156,371.63544 L23.7560981,409.885644" id="Path-7" stroke="#F8E81C"></path>
                <polyline id="Path-8" stroke="#9B9B9B" points="204.672431 455.22044 166.225412 372.938645 120.037427 232.419526 91.6536926 215.921775 0.709825068 209.155577"></polyline>
                <path d="M432.501417,296.9033 L443.033746,323.915268" id="Path-11" stroke="#9B9B9B"></path>
                <path d="M554.704553,235.723474 L578.674657,289.825206" id="Path-12" stroke="#9B9B9B"></path>
                <path d="M982.5,77.5 L1099.7942,305.417758" id="Path-51" stroke="#9B9B9B"></path>
                <polyline id="Path-52" stroke="#9B9B9B" points="970.960545 169.578986 971.968426 196.516498 954.877667 233.416793 926.195133 334.257276 910.985905 376.074122 891.333352 404.178774 878.187664 425.287409 872.019793 449.180799 873.332542 491.586904"></polyline>
                <path d="M971.843788,199.675489 L988.081029,230.730216 C988.081029,230.730216 1003.51197,241.617167 997.382564,258.821188 C991.253154,276.02521 978.770435,293.737859 978.770435,293.737859 L947.323559,355.890024 L909.091106,449.71814 L899.875992,490.943217" id="Path-53" stroke="#9B9B9B"></path>
                <polyline id="Path-54" stroke="#9B9B9B" points="803.756109 490.237474 936.932294 489.116683 955.354174 435.66683 984.70183 383.486605 1016.3299 341.187723 1080.94754 267.000637"></polyline>
                <path d="M910.723113,451.637464 L947.076364,462.884206" id="Path-55" stroke="#9B9B9B"></path>
                <path d="M878.309968,224.598373 L889.5,263.5" id="Path-56" stroke="#9B9B9B"></path>
                <path d="M882.515709,232.362524 L972.757302,186.228846" id="Path-57" stroke="#9B9B9B"></path>
                <path d="M928.080117,192.618373 L936.57537,208.565535" id="Path-58" stroke="#9B9B9B"></path>
                <polyline id="Path-59" stroke="#9B9B9B" points="828.082881 242.095319 840.671543 272.77114 841.905278 305.680249"></polyline>
                <path d="M658.354889,282.32116 L659.297325,300.931894" id="Path-60" stroke="#9B9B9B"></path>
                <path d="M522.5,359.5 L473.5,383.5" id="Path-61" stroke="#9B9B9B"></path>
                <path d="M1046.97403,494.350007 L1043.88946,466.26695 L1026.70261,444.266572 C1026.70261,444.266572 1020.82415,428.549331 1028.83123,419.608858 C1036.83832,410.668386 1039.81388,403.509493 1039.81388,403.509493 L1098.74007,335.258205" id="Path-85" stroke="#9B9B9B"></path>
                <path d="M1074.5,364.5 L1099.68348,399.734598" id="Path-86" stroke="#9B9B9B"></path>
                <polyline id="Path-20" stroke="#9B9B9B" points="765.352042 311.629378 808.469243 371.405711 822.098162 411.204219 837.884089 490.197081"></polyline>
            </g>
            <g id="roads" transform="translate(90.000000, 9.000000)">
                <path d="M1066.66299,0.316228869 L800.983979,103.341969 L669.041224,157.717271 C669.041224,157.717271 633.071586,170.362926 617.269588,200.263257 C601.46759,230.163589 573.919075,278.466599 573.919075,278.466599" id="Path-15" stroke="#979797" stroke-width="15"></path>
                <path d="M608.558588,217.479906 L624.5,264.5" id="Path-16" stroke="#979797" stroke-width="15"></path>
                <polyline id="Path-18" stroke="#9B9B9B" stroke-width="7" points="401.878993 315.691059 422.568094 434.277006 449.419906 505.28505"></polyline>
                <path d="M420.222861,411.390636 L500.341566,364.096674 C500.341566,364.096674 511.43235,358.849233 517.774922,367.803639 C524.117494,376.758045 527.225386,382.690141 527.225386,382.690141 C527.225386,382.690141 531.932393,389.972529 543.015253,382.024504 C554.098113,374.076478 648.582151,318.52588 648.582151,318.52588 C648.582151,318.52588 654.105356,309.094434 647.799235,302.477682 C641.493114,295.860931 624.62555,270.866252 624.62555,270.866252" id="Path-19" stroke="#9B9B9B" stroke-width="7"></path>
                <path d="M241.709991,532.823695 C241.709991,532.823695 184.095101,418.4485 212.618847,389.74367 C241.142592,361.038839 281.594985,348.733056 281.594985,348.733056 L393.862737,314.622846 L573.439026,277.263722 L653.560976,260.614078 L731.579223,236.826398 L765.009408,224.417786 L1002.07921,86.7656062" id="Path-10" stroke="#979797" stroke-width="15"></path>
                <path d="M0.148429367,555.635702 C0.148429367,555.635702 151.838287,381.136382 201.87757,407.763093" id="Path-9" stroke="#979797" stroke-width="15"></path>
            </g>
            <g id="buildings" transform="translate(327.000000, 148.000000)" opacity="0.75">
                <g id="Path-21">
                    <use fill="#D8D8D8" fill-rule="evenodd" xlink:href="#path-1"></use>
                    <path stroke="#979797" stroke-width="1" d="M93.5063624,208.022555 L156.500083,192.140947 L163.414717,220.152587 L127.02084,229.653726 L123.092705,216.377575 L122.955068,215.912395 L122.485943,216.035914 L97.0905448,222.722401 L93.5063624,208.022555 Z"></path>
                </g>
                <g id="Path-23">
                    <use fill="#D8D8D8" fill-rule="evenodd" xlink:href="#path-2"></use>
                    <path stroke="#979797" stroke-width="1" d="M1.05942138,249.035681 L6.31253549,247.556609 L6.79851169,247.419777 L6.65697383,246.935151 L5.25160253,242.12315 L10.8885869,240.61489 L12.0356295,245.15325 L12.1631525,245.657805 L12.6622011,245.510198 L25.2241063,241.794683 L29.7620182,256.56094 L5.22918543,263.78262 L1.05942138,249.035681 Z"></path>
                </g>
                <g id="Path-24">
                    <use fill="#D8D8D8" fill-rule="evenodd" xlink:href="#path-3"></use>
                    <path stroke="#979797" stroke-width="1" d="M26.965246,236.68149 L35.2256732,233.604034 L38.7781098,243.67999 L30.6473455,246.609051 L26.965246,236.68149 Z"></path>
                </g>
                <g id="Path-22">
                    <use fill="#D8D8D8" fill-rule="evenodd" xlink:href="#path-4"></use>
                    <path stroke="#979797" stroke-width="1" d="M50.0429988,266.787312 L42.1417922,241.632622 L52.6367302,238.73583 L53.1544441,238.592931 L52.9749433,238.086742 L46.9320741,221.045969 L66.4638307,215.098988 L73.0724029,236.595195 L53.7119885,242.639009 L53.2348056,242.787973 L53.3836682,243.265187 L59.9070014,264.177279 L50.0429988,266.787312 Z"></path>
                </g>
                <g id="Path-25">
                    <use fill="#D8D8D8" fill-rule="evenodd" xlink:href="#path-5"></use>
                    <path stroke="#979797" stroke-width="1" d="M66.4556781,251.599719 L79.9597599,245.999284 L83.834675,254.944301 L70.2625759,260.281028 L66.4556781,251.599719 Z"></path>
                </g>
                <g id="Path-26">
                    <use fill="#D8D8D8" fill-rule="evenodd" xlink:href="#path-6"></use>
                    <path stroke="#979797" stroke-width="1" d="M101.176889,242.966354 L112.756204,238.396489 L114.865336,244.380699 L112.599418,245.344547 L112.189333,245.518984 L112.315633,245.946357 L113.052867,248.440997 L104.193766,251.656342 L101.176889,242.966354 Z"></path>
                </g>
                <g id="Path-27">
                    <use fill="#D8D8D8" fill-rule="evenodd" xlink:href="#path-7"></use>
                    <path stroke="#979797" stroke-width="1" d="M13.7964501,278.019258 L21.5871075,274.937556 L23.5555672,280.661001 L15.7749182,283.489073 L13.7964501,278.019258 Z"></path>
                </g>
                <g id="Path-28">
                    <use fill="#D8D8D8" fill-rule="evenodd" xlink:href="#path-8"></use>
                    <path stroke="#979797" stroke-width="1" d="M10.3636421,298.595248 L24.4077837,294.705432 L28.4957027,308.854275 L13.9443794,312.647015 L10.3636421,298.595248 Z"></path>
                </g>
                <g id="Path-29">
                    <use fill="#D8D8D8" fill-rule="evenodd" xlink:href="#path-9"></use>
                    <path stroke="#979797" stroke-width="1" d="M27.8994797,293.342909 L45.3194493,287.747647 L45.8227713,287.585981 L45.6333422,287.092437 L43.3932855,281.256132 L64.9781106,273.4351 L72.3710305,292.710224 L49.4798709,300.265993 L48.6375197,297.92113 L48.4748882,297.468411 L48.0162246,297.613433 L31.0576442,302.975452 L27.8994797,293.342909 Z"></path>
                </g>
                <g id="Path-30">
                    <use fill="#D8D8D8" fill-rule="evenodd" xlink:href="#path-10"></use>
                    <path stroke="#979797" stroke-width="1" d="M15.8231344,327.910652 L36.5544611,321.767893 L44.4164914,348.845554 L23.8547154,355.227329 L15.8231344,327.910652 Z"></path>
                </g>
                <g id="Path-31">
                    <use fill="#D8D8D8" fill-rule="evenodd" xlink:href="#path-11"></use>
                    <path stroke="#979797" stroke-width="1" d="M43.2880778,320.14246 L49.0942899,318.009508 L49.53635,317.847114 L49.4006802,317.396135 L47.7892939,312.039729 L58.8558351,308.788842 L60.4852133,314.242464 L56.6454028,315.230651 L56.1449088,315.359454 L56.2901785,315.855419 L60.1047263,328.878657 L57.5737532,329.48378 L57.0538035,329.608093 L57.2125812,330.118574 L59.7374419,338.236178 L49.3071256,341.177326 L43.2880778,320.14246 Z"></path>
                </g>
                <g id="Rectangle" transform="translate(99.769259, 271.633944) rotate(-21.000000) translate(-99.769259, -271.633944) ">
                    <use fill="#D8D8D8" fill-rule="evenodd" xlink:href="#path-12"></use>
                    <rect stroke="#979797" stroke-width="1" x="85.2960089" y="264.347183" width="28.9465002" height="14.573523"></rect>
                </g>
                <g id="Rectangle" transform="translate(129.325693, 275.896902) rotate(-21.000000) translate(-129.325693, -275.896902) ">
                    <use fill="#D8D8D8" fill-rule="evenodd" xlink:href="#path-13"></use>
                    <rect stroke="#979797" stroke-width="1" x="120.246681" y="271.471941" width="18.158024" height="8.84992054"></rect>
                </g>
                <g id="Rectangle" transform="translate(132.396288, 290.472622) rotate(-21.000000) translate(-132.396288, -290.472622) ">
                    <use fill="#D8D8D8" fill-rule="evenodd" xlink:href="#path-14"></use>
                    <rect stroke="#979797" stroke-width="1" x="126.350311" y="284.596237" width="12.0919534" height="11.752771"></rect>
                </g>
                <g id="Rectangle" transform="translate(148.098999, 252.404003) rotate(-24.000000) translate(-148.098999, -252.404003) ">
                    <use fill="#D8D8D8" fill-rule="evenodd" xlink:href="#path-15"></use>
                    <rect stroke="#979797" stroke-width="1" x="132.505485" y="244.472897" width="31.1870288" height="15.8622137"></rect>
                </g>
                <g id="Rectangle" transform="translate(159.057810, 298.338843) rotate(-17.000000) translate(-159.057810, -298.338843) ">
                    <use fill="#D8D8D8" fill-rule="evenodd" xlink:href="#path-16"></use>
                    <rect stroke="#979797" stroke-width="1" x="145.707774" y="287.570133" width="26.7000723" height="21.5374205"></rect>
                </g>
                <g id="Rectangle" transform="translate(169.953158, 336.076430) rotate(-17.000000) translate(-169.953158, -336.076430) ">
                    <use fill="#D8D8D8" fill-rule="evenodd" xlink:href="#path-17"></use>
                    <rect stroke="#979797" stroke-width="1" x="155.537735" y="320.537024" width="28.8308458" height="31.0788124"></rect>
                </g>
                <g id="Path-32">
                    <use fill="#D8D8D8" fill-rule="evenodd" xlink:href="#path-18"></use>
                    <path stroke="#979797" stroke-width="1" d="M66.5128736,355.21077 L79.3023843,351.377258 L79.5783912,352.391355 L79.7052331,352.857394 L80.1753813,352.74675 L86.2244014,351.323183 L88.7261166,359.948756 L69.1317461,365.320512 L66.5128736,355.21077 Z"></path>
                </g>
                <g id="Path-17">
                    <use fill="#D8D8D8" fill-rule="evenodd" xlink:href="#path-19"></use>
                    <path stroke="#979797" stroke-width="1" d="M486.223348,23.3575084 L488.332713,22.2328457 L488.750424,22.0101323 L488.550878,21.580871 L484.352454,12.549261 L511.176535,1.15360516 L521.901837,24.6276405 L493.062761,37.3347818 L486.223348,23.3575084 Z"></path>
                </g>
                <polygon id="Path-13" fill="#8B572A" points="292 93.6233531 303.536543 120.527222 342.295588 104.799122 329.496849 77"></polygon>
                <g id="Path-4">
                    <use fill="#D8D8D8" fill-rule="evenodd" xlink:href="#path-20"></use>
                    <path stroke="#979797" stroke-width="1" d="M175.351531,145.38749 L170.955396,134.329719 L206.47204,121.325385 L208.959208,128.326671 L198.038222,132.184144 L197.571949,132.348839 L197.731482,132.816904 L198.988477,136.50488 L175.351531,145.38749 Z"></path>
                </g>
                <g id="Path-2">
                    <use fill="#D8D8D8" fill-rule="evenodd" xlink:href="#path-21"></use>
                    <path stroke="#979797" stroke-width="1" d="M178.965392,189.281664 L245.997056,177.64684 L254.452202,223.200688 L189.295057,250.887479 L178.965392,189.281664 Z"></path>
                </g>
                <g id="Path-3">
                    <use fill="#D8D8D8" fill-rule="evenodd" xlink:href="#path-22"></use>
                    <path stroke="#979797" stroke-width="1" d="M248.716893,171.537427 L271.077622,168.248303 L275.01378,189.279159 L263.917279,190.543275 L263.095197,186.897242 L262.996117,186.457807 L262.548764,186.510672 L251.9384,187.76453 L248.716893,171.537427 Z"></path>
                </g>
                <g id="Path-33">
                    <use fill="#D8D8D8" fill-rule="evenodd" xlink:href="#path-23"></use>
                    <path stroke="#979797" stroke-width="1" d="M311.833759,174.820865 L385.802703,167.888432 L393.726706,182.054997 L334.268767,213.947133 L311.833759,174.820865 Z"></path>
                </g>
                <g id="Path-34">
                    <use fill="#D8D8D8" fill-rule="evenodd" xlink:href="#path-24"></use>
                    <path stroke="#979797" stroke-width="1" d="M198.620123,273.192295 L231.183076,253.305344 L242.127317,270.886613 L226.277622,280.987853 L225.875716,281.243994 L226.112304,281.657712 L235.039861,297.269215 L219.895319,304.803458 L219.581811,304.959426 L219.6212,305.307365 L220.615655,314.09172 L211.341234,318.293066 L198.033176,280.156752 L200.419684,278.357461 L200.732643,278.121508 L200.57825,277.761258 L198.620123,273.192295 Z"></path>
                </g>
                <g id="Path-35">
                    <use fill="#D8D8D8" fill-rule="evenodd" xlink:href="#path-25"></use>
                    <path stroke="#979797" stroke-width="1" d="M216.303279,345.190035 L229.862294,339.271273 L232.238753,344.072144 L232.452242,344.50343 L232.891376,344.306588 L237.680672,342.159783 L242.655358,352.079955 L222.790014,360.684163 L216.303279,345.190035 Z"></path>
                </g>
                <g id="Path-36">
                    <use fill="#D8D8D8" fill-rule="evenodd" xlink:href="#path-26"></use>
                    <path stroke="#979797" stroke-width="1" d="M213.547694,323.86496 L235.338804,310.410718 L246.482565,328.289109 L239.632638,333.266208 L237.936572,330.399486 L237.686554,329.976902 L237.259502,330.219208 L222.88951,338.372617 L213.547694,323.86496 Z"></path>
                </g>
                <g id="Path-37">
                    <use fill="#D8D8D8" fill-rule="evenodd" xlink:href="#path-27"></use>
                    <path stroke="#979797" stroke-width="1" d="M237.685232,303.430881 L259.712259,290.565258 L265.448978,300.500215 L253.523087,307.222591 L251.785922,304.213103 L251.543562,303.793235 L251.116413,304.022518 L248.168828,305.60471 L247.736567,305.836737 L247.960348,306.273325 L249.731337,309.728451 L242.692609,313.367111 L237.685232,303.430881 Z"></path>
                </g>
                <g id="Path-38">
                    <use fill="#D8D8D8" fill-rule="evenodd" xlink:href="#path-28"></use>
                    <path stroke="#979797" stroke-width="1" d="M249.593678,241.508685 L268.089581,230.365886 L289.14553,262.420021 L268.979999,274.441649 L249.593678,241.508685 Z"></path>
                </g>
                <g id="Path-39">
                    <use fill="#D8D8D8" fill-rule="evenodd" xlink:href="#path-29"></use>
                    <path stroke="#979797" stroke-width="1" d="M285.396441,288.587907 L305.260711,275.98135 L323.223386,306.287443 L303.967007,317.481334 L285.396441,288.587907 Z"></path>
                </g>
                <g id="Path-40">
                    <use fill="#D8D8D8" fill-rule="evenodd" xlink:href="#path-30"></use>
                    <path stroke="#979797" stroke-width="1" d="M243.927445,336.305542 L250.558715,332.281193 L259.773389,348.437622 L252.762698,352.233973 L243.927445,336.305542 Z"></path>
                </g>
                <g id="Path-41">
                    <use fill="#D8D8D8" fill-rule="evenodd" xlink:href="#path-31"></use>
                    <path stroke="#979797" stroke-width="1" d="M312.471964,336.170013 L330.416673,322.958471 L358.49107,361.875855 L340.565616,374.294146 L326.601235,355.891558 L312.471964,336.170013 Z"></path>
                </g>
                <g id="Path-42">
                    <use fill="#D8D8D8" fill-rule="evenodd" xlink:href="#path-32"></use>
                    <path stroke="#979797" stroke-width="1" d="M315.037099,244.768922 L322.504828,239.978304 L323.426154,241.376226 L323.698571,241.789561 L324.114606,241.521285 L328.50446,238.690532 L336.874582,251.27229 L330.304426,254.803853 L329.889291,255.026994 L330.087538,255.454578 L332.471602,260.596591 L326.889623,263.225298 L315.037099,244.768922 Z"></path>
                </g>
                <g id="Path-43">
                    <use fill="#D8D8D8" fill-rule="evenodd" xlink:href="#path-33"></use>
                    <path stroke="#979797" stroke-width="1" d="M330.894708,272.515822 L340.344056,267.335843 L341.445919,269.63092 L341.661517,270.079988 L342.111385,269.866065 L347.583693,267.263849 L353.612999,280.111344 L345.374988,284.646948 L344.957599,284.87675 L345.16703,285.304724 L346.997058,289.0444 L340.375683,292.108619 L330.894708,272.515822 Z"></path>
                </g>
                <g id="Path-44">
                    <use fill="#D8D8D8" fill-rule="evenodd" xlink:href="#path-34"></use>
                    <path stroke="#979797" stroke-width="1" d="M393.937817,198.875098 L410.713678,187.67296 L431.170755,217.615593 L415.576059,228.282885 L412.832616,224.493552 L412.541973,224.092107 L412.137982,224.379199 L405.809288,228.876629 L402.247845,223.757416 L408.3564,218.867546 L408.734988,218.564487 L408.443641,218.176815 L393.937817,198.875098 Z"></path>
                </g>
                <g id="Path-45">
                    <use fill="#D8D8D8" fill-rule="evenodd" xlink:href="#path-35"></use>
                    <path stroke="#979797" stroke-width="1" d="M404.733663,248.934332 L414.594498,243.805612 L421.295679,256.279908 L411.182477,261.675676 L404.733663,248.934332 Z"></path>
                </g>
                <g id="Path-46">
                    <use fill="#D8D8D8" fill-rule="evenodd" xlink:href="#path-36"></use>
                    <path stroke="#979797" stroke-width="1" d="M409.999938,270.858386 L434.686726,254.240018 L443.011823,266.002077 L418.014768,283.452693 L409.999938,270.858386 Z"></path>
                </g>
                <g id="Path-47">
                    <use fill="#D8D8D8" fill-rule="evenodd" xlink:href="#path-37"></use>
                    <path stroke="#979797" stroke-width="1" d="M349.835874,304.904564 L397.187656,284.69517 L403.466127,300.593325 L356.709686,322.269801 L349.835874,304.904564 Z"></path>
                </g>
                <g id="Path-48">
                    <use fill="#D8D8D8" fill-rule="evenodd" xlink:href="#path-38"></use>
                    <path stroke="#979797" stroke-width="1" d="M371.465112,347.260243 L406.367189,329.339241 L422.051543,326.726984 L422.597144,326.636113 L422.451836,326.102425 L420.352247,318.390991 L433.204403,316.881985 L442.216956,349.256824 L383.528903,369.373148 L371.465112,347.260243 Z"></path>
                </g>
                <g id="Path-49">
                    <use fill="#D8D8D8" fill-rule="evenodd" xlink:href="#path-39"></use>
                    <path stroke="#979797" stroke-width="1" d="M419.172785,290.178607 L428.391381,284.053256 L432.697949,291.73213 L422.537555,294.849542 L419.172785,290.178607 Z"></path>
                </g>
                <g id="Path-50">
                    <use fill="#D8D8D8" fill-rule="evenodd" xlink:href="#path-40"></use>
                    <path stroke="#979797" stroke-width="1" d="M444.99873,323.472698 L468.615744,319.047065 L469.780126,325.589985 L469.865764,326.071204 L470.348803,325.996507 L474.611503,325.337327 L478.492762,346.063856 L452.451652,349.149197 L450.098551,333.463615 L450.027522,332.990142 L449.551415,333.040575 L445.756685,333.442538 L444.99873,323.472698 Z"></path>
                </g>
                <g id="Path-62">
                    <use fill="#D8D8D8" fill-rule="evenodd" xlink:href="#path-41"></use>
                    <path stroke="#979797" stroke-width="1" d="M412.534544,147.407674 L445.512641,137.901375 L447.957921,146.987233 L448.091133,147.482206 L448.582642,147.336732 L463.214076,143.006228 L463.664296,142.872976 L463.559581,142.415275 L460.086821,127.236199 L478.316574,123.132787 L483.190795,139.75691 L465.421547,144.983212 L464.908007,145.134255 L465.09367,145.636317 L469.266677,156.920831 L451.783538,162.292173 L450.191296,155.951501 L450.064825,155.447863 L449.566328,155.593285 L441.660154,157.899688 L441.24299,156.058238 L441.12842,155.552501 L440.627191,155.685412 L428.457493,158.912443 L427.992309,159.035796 L428.097811,159.50535 L428.540705,161.476532 L417.201333,164.909231 L412.534544,147.407674 Z"></path>
                </g>
                <g id="Path-63">
                    <use fill="#D8D8D8" fill-rule="evenodd" xlink:href="#path-42"></use>
                    <path stroke="#979797" stroke-width="1" d="M491.275153,124.169683 L516.688172,117.265728 L522.186243,137.484525 L496.197595,143.658949 L491.275153,124.169683 Z"></path>
                </g>
                <g id="Path-64">
                    <use fill="#D8D8D8" fill-rule="evenodd" xlink:href="#path-43"></use>
                    <path stroke="#979797" stroke-width="1" d="M464.139398,168.776331 L484.542487,168.776331 L484.542487,178.837925 L464.068607,178.837925 L464.139398,168.776331 Z"></path>
                </g>
                <g id="Path-65">
                    <use fill="#D8D8D8" fill-rule="evenodd" xlink:href="#path-44"></use>
                    <path stroke="#979797" stroke-width="1" d="M453.29149,188.999691 L483.660969,181.511499 L486.647245,193.961339 L456.131656,201.983678 L453.29149,188.999691 Z"></path>
                </g>
                <g id="Path-66">
                    <use fill="#D8D8D8" fill-rule="evenodd" xlink:href="#path-45"></use>
                    <path stroke="#979797" stroke-width="1" d="M495.170939,177.103202 L528.423163,168.486625 L534.612579,189.847519 L500.97242,199.480088 L495.170939,177.103202 Z"></path>
                </g>
                <g id="Path-67">
                    <use fill="#D8D8D8" fill-rule="evenodd" xlink:href="#path-46"></use>
                    <path stroke="#979797" stroke-width="1" d="M537.965028,147.629973 L572.727147,137.92898 L578.398167,159.761475 L542.712776,169.501723 L537.965028,147.629973 Z"></path>
                </g>
                <g id="Path-68">
                    <use fill="#D8D8D8" fill-rule="evenodd" xlink:href="#path-47"></use>
                    <path stroke="#979797" stroke-width="1" d="M537.932571,107.173622 L555.752216,102.541814 L556.760323,105.429251 L556.91328,105.867354 L557.361561,105.747463 L597.185929,95.0966446 L590.78918,114.211645 L571.351029,120.136129 L569.993614,113.578571 L569.887713,113.066971 L569.381253,113.195222 L564.076061,114.538661 L563.590043,114.661735 L563.714436,115.147418 L565.258585,121.176376 L545.327046,126.525591 L537.932571,107.173622 Z"></path>
                </g>
                <g id="Path-69">
                    <use fill="#D8D8D8" fill-rule="evenodd" xlink:href="#path-48"></use>
                    <path stroke="#979797" stroke-width="1" d="M467.450045,229.90763 L489.362339,224.621941 L489.952137,228.06591 L490.044416,228.604748 L490.572899,228.464867 L499.293107,226.156757 L503.059026,239.485968 L470.899593,247.122059 L467.450045,229.90763 Z"></path>
                </g>
                <g id="Path-70">
                    <use fill="#D8D8D8" fill-rule="evenodd" xlink:href="#path-49"></use>
                    <path stroke="#979797" stroke-width="1" d="M479.312146,281.576288 L496.19212,278.293496 L496.677468,278.199106 L496.58851,277.712733 L496.207949,275.632035 L508.988426,273.179512 L510.469892,281.521372 L501.287544,283.567674 L500.825265,283.670693 L500.9031,284.137872 L502.512704,293.799033 L482.961143,297.983226 L479.312146,281.576288 Z"></path>
                </g>
                <g id="Path-71">
                    <use fill="#D8D8D8" fill-rule="evenodd" xlink:href="#path-50"></use>
                    <path stroke="#979797" stroke-width="1" d="M541.461958,217.012779 C541.631028,217.094293 541.856538,217.212573 542.124061,217.36858 C542.787796,217.755638 543.452065,218.231505 544.070668,218.798278 C544.924557,219.580623 545.620981,220.473342 546.10694,221.479072 C546.593276,222.485581 547.022449,223.922128 547.390635,225.670598 C547.666209,226.979262 547.891909,228.384328 548.070878,229.789803 C548.133555,230.28202 548.185889,230.738962 548.228325,231.148751 C548.249252,231.350842 548.264069,231.50481 548.273029,231.604012 L546.07824,247.160898 L539.135185,257.399822 L527.389538,261.207301 L521.745677,253.367035 L519.816008,244.230125 L521.954217,232.279863 L527.110786,224.138578 L541.461958,217.012779 Z"></path>
                </g>
                <g id="Path-72">
                    <use fill="#D8D8D8" fill-rule="evenodd" xlink:href="#path-51"></use>
                    <path stroke="#979797" stroke-width="1" d="M569.782614,248.093826 L577.012422,251.923775 L574.384983,256.975288 L567.112564,252.638775 L569.782614,248.093826 Z"></path>
                </g>
                <g id="Path-73">
                    <use fill="#D8D8D8" fill-rule="evenodd" xlink:href="#path-52"></use>
                    <path stroke="#979797" stroke-width="1" d="M587.244188,223.365535 L577.943267,219.37777 L581.162124,214.191388 L581.420204,213.775557 L581.009992,213.508635 L577.122113,210.97881 L579.187766,206.662014 L592.151016,213.867644 L587.244188,223.365535 Z"></path>
                </g>
                <g id="Path-74">
                    <use fill="#D8D8D8" fill-rule="evenodd" xlink:href="#path-53"></use>
                    <path stroke="#979797" stroke-width="1" d="M694.871121,113.888359 L703.894915,114.295297 L722.520926,133.193428 L701.875569,157.770335 L695.65307,151.874977 L695.232473,151.476492 L694.899814,151.950865 L645.827153,221.928611 L619.442503,204.792805 L646.506392,166.725745 L694.871121,113.888359 Z"></path>
                </g>
                <g id="Path-75">
                    <use fill="#D8D8D8" fill-rule="evenodd" xlink:href="#path-54"></use>
                    <path stroke="#979797" stroke-width="1" d="M618.835063,205.632704 L645.288301,222.704787 L637.62937,234.337268 L610.28459,216.710107 L618.835063,205.632704 Z"></path>
                </g>
                <g id="Path-76">
                    <use fill="#D8D8D8" fill-rule="evenodd" xlink:href="#path-55"></use>
                    <path stroke="#979797" stroke-width="1" d="M609.876646,217.605737 L637.022581,234.874886 L627.631828,251.135045 L599.904056,300.746103 L592.197207,322.947042 L563.631188,313.948146 L584.177441,263.786035 L609.876646,217.605737 Z"></path>
                </g>
                <g id="Path-77">
                    <use fill="#D8D8D8" fill-rule="evenodd" xlink:href="#path-56"></use>
                    <path stroke="#979797" stroke-width="1" d="M560.967938,322.225822 L590.058905,331.486707 L582.944416,350.826113 L556.507289,346.574635 L560.967938,322.225822 Z"></path>
                </g>
                <g id="Path-78">
                    <use fill="#D8D8D8" fill-rule="evenodd" xlink:href="#path-57"></use>
                    <path stroke="#979797" stroke-width="1" d="M484.627469,318.045206 L487.987309,317.074457 L488.354285,316.968427 L488.348464,316.586485 L488.293264,312.96429 L492.087818,312.204535 L493.991328,316.962974 L494.1516,317.363624 L494.571382,317.263668 L499.718983,316.037944 L500.188458,315.926155 L500.093359,315.453016 L499.36808,311.844575 L503.903578,311.156323 L504.560894,314.72341 L504.648795,315.200427 L505.12826,315.127044 L510.01577,314.379008 L510.50231,314.304543 L510.435498,313.816894 L509.932889,310.148438 L512.964761,309.536832 L517.353654,333.606388 L489.472698,339.798536 L484.627469,318.045206 Z"></path>
                </g>
                <g id="Path-79">
                    <use fill="#D8D8D8" fill-rule="evenodd" xlink:href="#path-58"></use>
                    <path stroke="#979797" stroke-width="1" d="M527.776321,309.77572 L539.782031,311.330878 L539.407963,312.958817 L539.283673,313.499728 L539.834576,313.567092 L545.342402,314.240591 L543.859488,323.000114 L540.102642,322.009206 L539.473481,321.843258 L539.475125,322.493935 L539.483265,325.715751 L527.216744,324.628361 L526.162818,318.916832 L527.776321,309.77572 Z"></path>
                </g>
                <g id="Path-80">
                    <use fill="#D8D8D8" fill-rule="evenodd" xlink:href="#path-59"></use>
                    <path stroke="#979797" stroke-width="1" d="M526.768151,326.575206 L548.426063,328.56951 L545.995463,346.636829 L528.465303,346.636829 L526.768151,326.575206 Z"></path>
                </g>
                <g id="Path-81">
                    <use fill="#D8D8D8" fill-rule="evenodd" xlink:href="#path-60"></use>
                    <path stroke="#979797" stroke-width="1" d="M641.111904,45.2729751 L650.795484,40.8804945 L657.878816,55.5788391 L647.475431,60.2345192 L641.111904,45.2729751 Z"></path>
                </g>
                <g id="Path-82">
                    <use fill="#D8D8D8" fill-rule="evenodd" xlink:href="#path-61"></use>
                    <path stroke="#979797" stroke-width="1" d="M713.287249,60.9888303 L736.73171,50.3256565 L743.887877,65.4336849 L720.039869,76.2652989 L713.287249,60.9888303 Z"></path>
                </g>
                <g id="Path-83">
                    <use fill="#D8D8D8" fill-rule="evenodd" xlink:href="#path-62"></use>
                    <path stroke="#979797" stroke-width="1" d="M720.943451,90.695479 L743.811118,76.5490159 L754.896705,69.9745818 L770.426243,86.5604465 L732.943451,108.765001 L720.943451,90.695479 Z"></path>
                </g>
                <g id="Path-84">
                    <use fill="#D8D8D8" fill-rule="evenodd" xlink:href="#path-63"></use>
                    <path stroke="#979797" stroke-width="1" d="M607.845072,320.669107 L658.629552,314.66831 L676.765352,315.250762 L677.614095,328.8852 L677.643286,329.354135 L678.113129,329.354135 L682.244112,329.354135 L687.72522,333.116098 L688.690814,340.303352 L685.372893,346.242301 L663.006142,349.52289 L662.503708,349.596583 L662.585178,350.097815 L663.421322,355.242016 L608.452574,355.718776 L607.845072,320.669107 Z"></path>
                </g>
                <g id="Path-87">
                    <use fill="#D8D8D8" fill-rule="evenodd" xlink:href="#path-64"></use>
                    <path stroke="#979797" stroke-width="1" d="M633.724926,295.050303 L658.332799,250.803782 L658.567858,250.38113 L658.153268,250.132127 L654.604641,248.000826 L661.990283,231.319515 L676.502129,234.256905 L700.458589,246.770133 L668.345813,290.278243 L657.94402,308.907923 L633.724926,295.050303 Z"></path>
                </g>
                <g id="Path-88">
                    <use fill="#D8D8D8" fill-rule="evenodd" xlink:href="#path-65"></use>
                    <path stroke="#979797" stroke-width="1" d="M675.32352,224.867612 L707.911405,174.350558 L713.267076,166.560301 L713.481333,166.248632 L713.23973,165.957648 L710.636223,162.822017 L726.945828,145.453575 L734.276165,159.848067 L734.337005,159.967537 L734.449454,160.040542 L739.2985,163.188645 L748.009919,179.307351 L744.536576,195.908541 L703.969168,243.761585 L675.32352,224.867612 Z"></path>
                </g>
            </g>
        </g>
    </g>
</svg>