<svg xmlns="http://www.w3.org/2000/svg" viewBox="0 0 662 135" preserveAspectRatio="xMidYMin">
  <path fill="#FFF" fill-rule="evenodd" d="M29.4 60 35.2-.1h20.4L61.3 60H50l-.8-9.7h-7.3l-.7 9.7H29.4Zm13.3-19.3h5.5L45.5 10H45l-2.3 30.6ZM63.4 60 69.2-.1h20.3L95.3 60H83.9l-.9-9.7h-7.3L75 60H63.4Zm13.3-19.3H82L79.5 10h-.6l-2.2 30.6ZM98.9-.1h18.5c3 0 5.2.6 6.8 2a10 10 0 0 1 3.3 5.6c.5 2.4.8 5.4.8 9.2 0 3.4-.4 6-1.3 8a7.7 7.7 0 0 1-4.6 4c1.8.3 3.1 1.2 4 2.7a12 12 0 0 1 1.1 5.9V60h-11.8V36.5c0-1.7-.4-2.8-1-3.2-.7-.5-1.9-.7-3.6-.7V60H98.9V-.1ZM114 22c1.7 0 2.6-1.8 2.6-5.4a16 16 0 0 0-.3-3.6c0-.8-.3-1.3-.7-1.6-.4-.3-1-.5-1.6-.5h-2.8V22h2.8Zm16.7 38 5.8-60.1H157l5.7 60.1h-11.4l-.8-9.7H143l-.7 9.7h-11.7ZM144 40.7h5.5L146.8 10h-.6L144 40.7Zm36.2 19.9c-5 0-8.6-1.4-11-4.2-2.4-2.8-3.6-7-3.6-12.5v-44h11.7v43.5c0 2 .1 3.4.5 4.5.4 1 1.2 1.6 2.4 1.6s2-.5 2.4-1.6c.3-1 .5-2.5.5-4.5V0h11.7v44c0 5.5-1.2 9.7-3.6 12.5-2.4 2.8-6 4.2-11 4.2Zm20.6 7.4 2.2-8h-4.3V49.8h12.7v9.9L208 68h-7.2Zm31.5-68h16c4.7 0 8.2 1.5 10.2 4.6 2 3.1 3.1 7.7 3.1 13.6 0 6-1 10.5-2.7 13.5-1.9 3-5.1 4.6-9.8 4.6h-5V60h-11.8V-.1ZM245 25.4c1.4 0 2.5-.3 3.2-.9.6-.5 1-1.3 1.3-2.3a22.4 22.4 0 0 0-.5-9.7c-.6-1.2-1.7-1.7-3.4-1.7h-1.3v14.6h.7Zm34.8 35.2c-4.8 0-8.5-1.5-11-4.5-2.6-3-3.8-7.1-3.8-12.5V15c0-5.2 1.2-9.1 3.8-11.7 2.5-2.7 6.2-4 11-4 4.9 0 8.6 1.3 11 4 2.6 2.6 3.9 6.5 3.9 11.7v28.6c0 5.4-1.3 9.6-3.8 12.5-2.5 3-6.2 4.5-11 4.5Zm0-11.1c1.1 0 1.8-.5 2.2-1.4.4-1 .6-2.2.6-4V14.9c0-1.3-.2-2.4-.6-3.2-.3-.8-1-1.2-2.1-1.2-2 0-3 1.5-3 4.5v29.3c0 1.8.2 3 .6 4 .4.9 1.2 1.3 2.3 1.3ZM299.4 60V-.1h12.4l5.5 28.7V0H329v60h-11.7l-6-30.1V60h-11.8Zm40 0V11.4h-7.1V0h26.3v11.5h-7.1V60h-12Zm37 .6c-5 0-8.6-1.5-11.1-4.5-2.6-3-3.8-7.1-3.8-12.5V15c0-5.2 1.2-9.1 3.8-11.7 2.5-2.7 6.2-4 11-4 4.9 0 8.6 1.3 11 4 2.6 2.6 3.9 6.5 3.9 11.7v28.6c0 5.4-1.3 9.6-3.8 12.5-2.5 3-6.2 4.5-11 4.5Zm0-11.1c1 0 1.7-.5 2.1-1.4.4-1 .6-2.2.6-4V14.9c0-1.3-.2-2.4-.6-3.2-.3-.8-1-1.2-2.1-1.2-2 0-3 1.5-3 4.5v29.3c0 1.8.2 3 .6 4 .4.9 1.2 1.3 2.3 1.3ZM396 60V-.1h12.4l5.5 28.7V0h11.6v60h-11.7l-6-30.1V60H396Zm34.3 0V-.1h11.6V60h-11.6Zm16.4 0V-.1h24.1v11.6H459v11.7h11.3v11.3H459v13.8h12.6V60h-24.9ZM475.6-.1H494c3 0 5.2.6 6.8 2a10 10 0 0 1 3.3 5.6c.5 2.4.8 5.4.8 9.2 0 3.4-.5 6-1.3 8a8.2 8.2 0 0 1-4.7 4c1.9.3 3.2 1.2 4 2.7a12 12 0 0 1 1.2 5.9L504 60h-11.8V36.5c0-1.7-.3-2.8-1-3.2-.6-.5-1.8-.7-3.5-.7V60h-12.2V-.1ZM490.7 22c1.7 0 2.5-1.8 2.5-5.4 0-1.6 0-2.8-.2-3.6-.1-.8-.4-1.3-.8-1.6-.3-.3-.9-.5-1.6-.5h-2.8V22h3Zm23 37.9-6.5-60H519l3.4 38 3.3-38H537l3.2 38 3.3-38h11.9L548.6 60h-14.5l-3-29-2.8 29h-14.7Zm44.6 0v-60h11.6V60h-11.6Zm16.4 0v-60h24v11.6H587v11.7h11.3v11.3H587v13.8h12.6V60h-24.9Zm43.1.6c-5.4 0-9.4-1.4-11.8-4.1-2.4-2.7-3.6-7-3.6-13v-6h11.8V45c0 3 1 4.5 2.9 4.5 1 0 1.8-.3 2.2-1 .4-.6.6-1.6.6-3.1 0-2-.2-3.6-.7-4.9-.4-1.3-1-2.4-1.8-3.2-.7-.9-2-2.2-3.8-4l-5.2-5.2c-4-4-6-8.3-6-13 0-5.2 1.1-9 3.5-11.8 2.4-2.6 5.8-4 10.3-4 5.4 0 9.3 1.4 11.7 4.3 2.4 2.9 3.6 7.4 3.6 13.5h-12.3V13c0-.8-.3-1.5-.7-2-.4-.4-1-.6-1.9-.6-.9 0-1.6.2-2 .7a3 3 0 0 0-.8 2.1c0 2 1.2 4 3.4 6.1l7 6.8c1.6 1.5 3 3 4 4.5 1.1 1.4 2 3 2.6 5 .7 2 1 4.2 1 6.9 0 6-1 10.4-3.2 13.5-2.2 3-5.8 4.6-10.8 4.6Zm18-.6v-60H660v11.6h-11.8v11.7h11.3v11.3h-11.3v13.8h12.6V60h-24.9Zm-441.1 71.2c0-2.7.5-5.3 1.3-7.6.9-2.3 2-4.4 3.2-6.3 1.3-1.9 3-4 5-6.6l5-6.6c1.2-1.9 2.3-4 3.1-6.3.9-2.4 1.3-5 1.3-7.7a8 8 0 0 0-.7-3.8c-.4-.9-1.3-1.3-2.5-1.3-2 0-3 1.8-3 5.3v7.4h-12.7l-.1-3.7c0-4.6.5-8.3 1.4-11.3 1-3 2.6-5.2 4.9-6.7 2.3-1.5 5.5-2.3 9.7-2.3 5 0 8.9 1.4 11.6 4.2 2.8 2.8 4.2 6.8 4.2 12a27.9 27.9 0 0 1-4.8 16 82 82 0 0 1-5.2 7.1 82.7 82.7 0 0 0-6.8 9.8h16.3V134h-31.2v-2.9Zm49.8 3.5c-5 0-9-1.5-11.8-4.3-2.7-3-4-7-4-12.3V90.8c0-5.7 1.2-10 3.9-13s6.6-4.5 11.9-4.5c5.3 0 9.3 1.5 12 4.5 2.6 3 4 7.3 4 13V118a17 17 0 0 1-4.2 12.3 15.8 15.8 0 0 1-11.8 4.3Zm0-11.1c.9 0 1.6-.4 2.2-1.2a5 5 0 0 0 .8-3V89.8c0-1.7-.2-3-.6-4-.4-.9-1.2-1.3-2.4-1.3s-2 .4-2.4 1.3c-.4 1-.5 2.3-.5 4v29.7c0 1 .2 2 .8 2.9.5.8 1.2 1.2 2.1 1.2Zm19.2 10.5v-10.2h12.2V134h-12.2Zm16.2-17.4v-8h17.6v8h-17.6Zm21.8 14.5c0-2.7.4-5.3 1.3-7.6a31 31 0 0 1 3.2-6.3c1.2-1.9 2.9-4 5-6.6l5-6.6a37 37 0 0 0 3.1-6.3c.9-2.4 1.3-5 1.3-7.7a8 8 0 0 0-.7-3.8c-.5-.9-1.3-1.3-2.5-1.3-2 0-3 1.8-3 5.3v7.4h-12.7l-.1-3.7c0-4.6.4-8.3 1.3-11.3 1-3 2.6-5.2 5-6.7 2.3-1.5 5.5-2.3 9.6-2.3 5 0 9 1.4 11.7 4.2 2.8 2.8 4.1 6.8 4.1 12a27.9 27.9 0 0 1-4.7 16c-1.3 2-3 4.4-5.3 7.1a82.7 82.7 0 0 0-6.8 9.8H333V134h-31.2v-2.9Zm40.7-43.4c-.8 1-1.9 1.7-3.3 2.3-1.4.6-2.8 1-4 1v-9.6c2-.4 4-1.2 6-2.5s3.5-3 4.4-5.1h9.7V134h-12.8V87.7Zm16.8 46.3v-10.2h12.3V134h-12.3Zm46.6.6c-2.8 0-5.3-.6-7.5-1.7-2.3-1-4-2.6-5.3-4.7a14 14 0 0 1-2-7.5v-15h12V120c0 1 .1 2 .6 2.6.4.6 1.1.9 2 .9 1 0 1.6-.3 2-.9a4 4 0 0 0 .7-2.5V74h12.1v45c0 3.2-.6 6-1.8 8.3-1.3 2.3-3 4.2-5.2 5.4-2.2 1.3-4.8 2-7.6 2Zm33.2 0c-5 0-8.7-1.4-11-4.2-2.5-2.8-3.7-7-3.7-12.5v-44H436v43.5c0 2 .2 3.4.6 4.5.4 1 1.1 1.6 2.4 1.6 1.2 0 2-.5 2.3-1.6.4-1 .6-2.5.6-4.5V74h11.7v44c0 5.5-1.2 9.7-3.6 12.5-2.4 2.8-6 4.2-11 4.2Zm19.2-.6V73.9h12.4l5.5 28.7V74h11.6v60H476l-6-30.1V134h-11.8Zm34.3 0V73.9h11.6V134h-11.6Zm32.3-2.9c0-2.7.4-5.3 1.3-7.6.8-2.3 1.9-4.4 3.2-6.3 1.2-1.9 2.9-4 5-6.6l5-6.6c1.2-1.9 2.2-4 3-6.3 1-2.4 1.4-5 1.4-7.7 0-1.6-.3-2.9-.7-3.8-.5-.9-1.3-1.3-2.5-1.3-2 0-3 1.8-3 5.3v7.4h-12.7l-.2-3.7c0-4.6.5-8.3 1.4-11.3 1-3 2.6-5.2 5-6.7 2.3-1.5 5.5-2.3 9.6-2.3 5 0 9 1.4 11.7 4.2 2.7 2.8 4.1 6.8 4.1 12a27.9 27.9 0 0 1-4.7 16c-1.3 2-3.1 4.4-5.3 7.1a82.7 82.7 0 0 0-6.8 9.8H556V134h-31.2v-2.9Zm49.8 3.5a16 16 0 0 1-11.8-4.3c-2.8-3-4.1-7-4.1-12.3V90.8c0-5.7 1.3-10 4-13 2.6-3 6.6-4.5 11.8-4.5 5.4 0 9.4 1.5 12 4.5 2.7 3 4 7.3 4 13V118c0 5.3-1.4 9.4-4.1 12.3a16 16 0 0 1-11.9 4.3Zm0-11.1c.8 0 1.6-.4 2.1-1.2a5 5 0 0 0 .9-3V89.8c0-1.7-.2-3-.6-4-.4-.9-1.2-1.3-2.5-1.3-1.2 0-2 .4-2.3 1.3-.4 1-.6 2.3-.6 4v29.7c0 1 .3 2 .8 2.9.6.8 1.3 1.2 2.1 1.2Zm19.3 7.6c0-2.7.5-5.3 1.3-7.6.9-2.3 2-4.4 3.2-6.3 1.3-1.9 3-4 5-6.6 2-2.6 3.8-4.8 5-6.6 1.2-1.9 2.3-4 3.1-6.3 1-2.4 1.3-5 1.3-7.7a8 8 0 0 0-.7-3.8c-.4-.9-1.3-1.3-2.5-1.3-2 0-3 1.8-3 5.3v7.4H594l-.1-3.7c0-4.6.5-8.3 1.4-11.3 1-3 2.6-5.2 4.9-6.7 2.3-1.5 5.6-2.3 9.7-2.3 5 0 8.9 1.4 11.7 4.2 2.7 2.8 4 6.8 4 12a27.9 27.9 0 0 1-4.6 16c-1.4 2-3.1 4.4-5.3 7.1a82.7 82.7 0 0 0-6.8 9.8h16.4V134H594v-2.9Zm49.8 3.7c-4.8 0-8.6-1.1-11.5-3.5-2.8-2.4-4.2-5.8-4.2-10.5V112h12.5v5c0 2.1.2 3.7.6 4.9.4 1.2 1.3 1.7 2.6 1.7 1.2 0 2-.4 2.5-1.1.4-.8.7-2 .7-3.5v-12c0-1.9-.2-3.4-.6-4.6a2.5 2.5 0 0 0-2.5-1.7c-2.3 0-3.4 1.7-3.4 5h-11v-32H658V85h-17.2v8.4a8 8 0 0 1 2.4-2c1-.4 2.2-.7 3.5-.7 5 0 8.5 1.8 10.3 5.3 1.9 3.6 2.8 8.6 2.8 15a60 60 0 0 1-1.1 13.1c-.8 3.4-2.4 6-4.7 7.8-2.3 2-5.8 2.8-10.3 2.8Z"/>
</svg>
