<svg xmlns="http://www.w3.org/2000/svg" viewBox="0 0 662 135">
  <path fill-rule="evenodd" d="M29.41 60 35.22-.13h20.37L61.33 60H49.92l-.84-9.73H41.8L41.1 60H29.41Zm13.3-19.32h5.46l-2.66-30.59h-.56l-2.24 30.59ZM63.36 60 69.17-.13h20.37L95.28 60H83.87l-.84-9.73h-7.28l-.7 9.73H63.36Zm13.3-19.32h5.46l-2.66-30.59h-.56l-2.24 30.59ZM98.92-.13h18.48c2.94 0 5.21.66 6.82 2a9.92 9.92 0 0 1 3.26 5.6c.56 2.4.84 5.47.84 9.2 0 3.4-.44 6.07-1.33 7.98a7.47 7.47 0 0 1-4.62 3.99 5.56 5.56 0 0 1 3.95 2.73c.82 1.45 1.23 3.4 1.23 5.88L127.41 60h-11.76V36.48c0-1.68-.33-2.75-.98-3.22-.65-.47-1.84-.7-3.57-.7V60H98.92V-.13Zm15.12 22.26c1.68 0 2.52-1.82 2.52-5.46 0-1.59-.07-2.78-.21-3.57-.14-.8-.4-1.34-.77-1.64a2.5 2.5 0 0 0-1.61-.46h-2.8v11.13h2.87ZM130.7 60l5.81-60.13h20.37L162.62 60h-11.41l-.84-9.73h-7.28l-.7 9.73H130.7ZM144 40.68h5.46l-2.66-30.59h-.56L144 40.68Zm36.19 19.88c-4.95 0-8.62-1.4-11.03-4.2-2.4-2.8-3.6-6.95-3.6-12.46V-.13h11.69v43.54c0 1.91.19 3.4.56 4.48.37 1.07 1.17 1.61 2.38 1.61s2-.52 2.38-1.58c.37-1.05.56-2.55.56-4.51V-.13h11.69V43.9c0 5.5-1.2 9.66-3.6 12.46-2.4 2.8-6.08 4.2-11.03 4.2Zm20.58 7.49 2.24-8.05h-4.34V49.78h12.74v9.87l-3.43 8.4h-7.21ZM232.34-.13h15.89c4.8 0 8.24 1.55 10.29 4.66 2.05 3.1 3.08 7.64 3.08 13.61s-.91 10.48-2.73 13.51c-1.82 3.03-5.09 4.55-9.8 4.55h-4.9V60h-11.83V-.13Zm12.53 25.48c1.45 0 2.5-.27 3.19-.8a3.83 3.83 0 0 0 1.32-2.32c.22-1 .32-2.43.32-4.3 0-2.52-.28-4.34-.84-5.46-.56-1.12-1.68-1.68-3.36-1.68h-1.33v14.56h.7Zm34.86 35.21c-4.85 0-8.54-1.48-11.06-4.45-2.52-2.96-3.78-7.12-3.78-12.49V14.99c0-5.18 1.26-9.09 3.78-11.72 2.52-2.64 6.2-3.96 11.06-3.96 4.85 0 8.54 1.32 11.06 3.96 2.52 2.63 3.78 6.54 3.78 11.72v28.63c0 5.41-1.26 9.59-3.78 12.53-2.52 2.94-6.2 4.41-11.06 4.41Zm0-11.06c1.07 0 1.8-.47 2.17-1.4.37-.93.56-2.24.56-3.92v-29.4c0-1.3-.17-2.37-.52-3.18-.36-.82-1.07-1.23-2.14-1.23-2 0-3.01 1.52-3.01 4.55v29.33c0 1.73.21 3.03.63 3.92.42.89 1.19 1.33 2.31 1.33ZM299.4 60V-.13h12.39l5.53 28.77V-.13h11.62V60h-11.76l-6.02-30.1V60H299.4Zm40.04 0V11.42h-7.14V-.13h26.32v11.55h-7.14V60h-12.04Zm36.89.56c-4.85 0-8.54-1.48-11.06-4.45-2.52-2.96-3.78-7.12-3.78-12.49V14.99c0-5.18 1.26-9.09 3.78-11.72 2.52-2.64 6.2-3.96 11.06-3.96 4.85 0 8.54 1.32 11.06 3.96 2.52 2.63 3.78 6.54 3.78 11.72v28.63c0 5.41-1.26 9.59-3.78 12.53-2.52 2.94-6.2 4.41-11.06 4.41Zm0-11.06c1.07 0 1.8-.47 2.17-1.4.37-.93.56-2.24.56-3.92v-29.4c0-1.3-.17-2.37-.52-3.18-.36-.82-1.07-1.23-2.14-1.23-2 0-3.01 1.52-3.01 4.55v29.33c0 1.73.21 3.03.63 3.92.42.89 1.19 1.33 2.31 1.33ZM396 60V-.13h12.39l5.53 28.77V-.13h11.62V60h-11.76l-6.02-30.1V60H396Zm34.3 0V-.13h11.62V60H430.3Zm16.45 0V-.13h24.08v11.62H459v11.69h11.34v11.34H459v13.79h12.6V60h-24.85ZM475.59-.13h18.48c2.94 0 5.21.66 6.82 2a9.92 9.92 0 0 1 3.26 5.6c.56 2.4.84 5.47.84 9.2 0 3.4-.44 6.07-1.33 7.98a7.47 7.47 0 0 1-4.62 3.99 5.56 5.56 0 0 1 3.95 2.73c.82 1.45 1.23 3.4 1.23 5.88L504.08 60h-11.76V36.48c0-1.68-.33-2.75-.98-3.22-.65-.47-1.84-.7-3.57-.7V60h-12.18V-.13Zm15.12 22.26c1.68 0 2.52-1.82 2.52-5.46 0-1.59-.07-2.78-.21-3.57-.14-.8-.4-1.34-.77-1.64a2.5 2.5 0 0 0-1.61-.46h-2.8v11.13h2.87ZM513.67 60 507.23-.13h11.76l3.36 37.94 3.36-37.94h11.2l3.22 37.94 3.22-37.94h11.9L548.67 60h-14.42l-3.01-28.98L528.37 60h-14.7Zm44.59 0V-.13h11.62V60h-11.62Zm16.45 0V-.13h24.08v11.62h-11.83v11.69h11.34v11.34h-11.34v13.79h12.6V60h-24.85Zm43.12.56c-5.46 0-9.4-1.35-11.83-4.06-2.43-2.7-3.64-7.07-3.64-13.09v-5.88h11.83v7.49c0 2.99.96 4.48 2.87 4.48 1.07 0 1.82-.31 2.24-.95.42-.63.63-1.69.63-3.18 0-1.96-.23-3.58-.7-4.86a10.6 10.6 0 0 0-1.78-3.23c-.73-.86-2.02-2.2-3.89-4.02l-5.18-5.18c-4.01-3.92-6.02-8.26-6.02-13.02 0-5.13 1.18-9.04 3.53-11.73 2.36-2.68 5.8-4.02 10.33-4.02 5.41 0 9.31 1.43 11.69 4.3 2.38 2.88 3.57 7.37 3.57 13.48h-12.25l-.07-4.13c0-.8-.22-1.42-.66-1.89a2.44 2.44 0 0 0-1.86-.7c-.93 0-1.63.26-2.1.77a3 3 0 0 0-.7 2.1c0 1.96 1.12 3.99 3.36 6.09l7 6.72a39.91 39.91 0 0 1 4.06 4.52 17.7 17.7 0 0 1 2.59 5.03c.65 1.94.98 4.24.98 6.9 0 5.93-1.08 10.42-3.25 13.48-2.18 3.05-5.76 4.58-10.75 4.58Zm17.99-.56V-.13h24.08v11.62h-11.83v11.69h11.34v11.34h-11.34v13.79h12.6V60h-24.85Zm-555.8 71.13c0-2.75.43-5.3 1.3-7.63a29.51 29.51 0 0 1 3.18-6.3 93.99 93.99 0 0 1 4.97-6.58 103.5 103.5 0 0 0 5-6.65 28.6 28.6 0 0 0 3.16-6.27c.86-2.35 1.29-4.9 1.29-7.66a8.5 8.5 0 0 0-.7-3.82c-.47-.9-1.3-1.36-2.52-1.36-2 0-3.01 1.8-3.01 5.39v7.35H80.02l-.14-3.71c0-4.57.47-8.33 1.4-11.27a12.15 12.15 0 0 1 4.9-6.72c2.33-1.54 5.55-2.31 9.66-2.31 5.04 0 8.94 1.41 11.69 4.23 2.75 2.83 4.13 6.83 4.13 12.01 0 3.31-.45 6.31-1.36 9a30.29 30.29 0 0 1-3.36 7.03 94.6 94.6 0 0 1-5.29 7.07 82.72 82.72 0 0 0-3.96 5.11 43.32 43.32 0 0 0-2.83 4.62h16.38V134H80.02v-2.87Zm49.77 3.43c-5.09 0-9-1.43-11.76-4.3-2.75-2.88-4.13-6.97-4.13-12.29V90.81c0-5.7 1.33-10.03 3.99-13.02s6.63-4.48 11.9-4.48c5.32 0 9.31 1.5 11.97 4.48 2.66 2.99 3.99 7.33 3.99 13.02v27.16c0 5.37-1.38 9.47-4.13 12.32-2.75 2.85-6.7 4.27-11.83 4.27Zm0-11.06c.89 0 1.61-.4 2.17-1.22.56-.82.84-1.79.84-2.91V89.69c0-1.73-.2-3.04-.6-3.95-.4-.92-1.2-1.37-2.41-1.37-1.21 0-2 .45-2.38 1.36-.37.92-.56 2.23-.56 3.96v29.68c0 1.12.27 2.09.8 2.9a2.45 2.45 0 0 0 2.14 1.23Zm19.18 10.5v-10.22h12.25V134h-12.25Zm42.84.56c-3.83 0-6.45-1.14-7.88-3.43-1.42-2.29-2.13-5.7-2.13-10.22V82.76h12.32v38.32c0 1.43.22 2.43.66 3.02.45.58 1.14.87 2.07.87 1.26 0 2.05-.52 2.38-1.58a16 16 0 0 0 .49-4.51v-.42l.07-35.7h12.18V134h-12.25v-5.46c-.84 2.15-1.82 3.69-2.94 4.62-1.12.93-2.78 1.4-4.97 1.4Zm25.06-51.8h12.25v6.51c.51-2.1 1.4-3.8 2.66-5.11a6.68 6.68 0 0 1 5.04-1.96c3.45 0 6 1.06 7.67 3.19 1.65 2.12 2.48 5.14 2.48 9.06V134h-12.04V95.71a5.8 5.8 0 0 0-.67-2.87 2.2 2.2 0 0 0-2.06-1.19c-1.26 0-2.09.57-2.48 1.71-.4 1.15-.6 2.68-.6 4.59V134h-12.25V82.76Zm45.01 51.8c-2.99 0-5.24-.71-6.75-2.13a10.45 10.45 0 0 1-3.01-5.68 45.86 45.86 0 0 1-.74-9.06l.14-23.1c0-3.64.92-6.61 2.76-8.92 1.85-2.32 4.45-3.47 7.81-3.47 3.31 0 5.79 1.1 7.42 3.29V73.52h12.25V134h-12.25v-5.46c-.7 2-1.64 3.51-2.83 4.52-1.2 1-2.8 1.5-4.8 1.5Zm4.69-9.59c1.21 0 2-.6 2.38-1.78.37-1.2.56-2.8.56-4.8V96.97a10 10 0 0 0-.63-3.78c-.42-1.03-1.17-1.54-2.24-1.54-1.21 0-2.02.48-2.41 1.43-.4.96-.6 2.26-.6 3.89v21.56c0 4.3.98 6.44 2.94 6.44Zm36.12 6.16c0-2.75.43-5.3 1.3-7.63a29.51 29.51 0 0 1 3.18-6.3 93.99 93.99 0 0 1 4.97-6.58 103.5 103.5 0 0 0 5-6.65 28.6 28.6 0 0 0 3.16-6.27c.86-2.35 1.29-4.9 1.29-7.66a8.5 8.5 0 0 0-.7-3.82c-.47-.9-1.3-1.36-2.52-1.36-2 0-3.01 1.8-3.01 5.39v7.35h-12.67l-.14-3.71c0-4.57.47-8.33 1.4-11.27a12.15 12.15 0 0 1 4.9-6.72c2.33-1.54 5.55-2.31 9.66-2.31 5.04 0 8.94 1.41 11.69 4.23 2.75 2.83 4.13 6.83 4.13 12.01 0 3.31-.45 6.31-1.37 9a30.29 30.29 0 0 1-3.35 7.03 94.6 94.6 0 0 1-5.29 7.07 82.72 82.72 0 0 0-3.95 5.11c-1.06 1.5-2 3.03-2.84 4.62h16.38V134h-31.22v-2.87Zm40.74-43.47a8.5 8.5 0 0 1-3.32 2.38c-1.43.6-2.8.91-4.1.91v-9.59c2.05-.33 4.1-1.14 6.13-2.45a11.15 11.15 0 0 0 4.37-5.11h9.66V134h-12.74V87.66Zm16.8 46.34v-10.22h12.25V134h-12.25Zm46.55.56c-2.75 0-5.25-.54-7.49-1.61s-4-2.65-5.29-4.72a14.04 14.04 0 0 1-1.92-7.53v-15.05h11.83V120c0 1.07.22 1.92.66 2.56.45.63 1.14.94 2.07.94.89 0 1.55-.3 2-.88.44-.58.66-1.4.66-2.48V73.87h12.11v45.08c0 3.13-.62 5.87-1.86 8.22a13.3 13.3 0 0 1-5.18 5.46 14.88 14.88 0 0 1-7.59 1.93Zm33.18 0c-4.95 0-8.62-1.4-11.02-4.2-2.4-2.8-3.61-6.95-3.61-12.46V73.87h11.69v43.54c0 1.91.19 3.4.56 4.48.37 1.07 1.17 1.61 2.38 1.61s2-.52 2.38-1.58c.37-1.05.56-2.55.56-4.51V73.87h11.69v44.03c0 5.5-1.2 9.66-3.6 12.46-2.4 2.8-6.08 4.2-11.03 4.2Zm19.25-.56V73.87h12.39l5.53 28.77V73.87h11.62V134h-11.76l-6.02-30.1V134h-11.76Zm34.3 0V73.87h11.62V134h-11.62Zm32.27-2.87c0-2.75.43-5.3 1.3-7.63a29.51 29.51 0 0 1 3.18-6.3 93.99 93.99 0 0 1 4.97-6.58 103.5 103.5 0 0 0 5-6.65 28.6 28.6 0 0 0 3.15-6.27c.87-2.35 1.3-4.9 1.3-7.66a8.5 8.5 0 0 0-.7-3.82c-.47-.9-1.3-1.36-2.52-1.36-2 0-3.01 1.8-3.01 5.39v7.35h-12.67l-.14-3.71c0-4.57.47-8.33 1.4-11.27a12.15 12.15 0 0 1 4.9-6.72c2.33-1.54 5.55-2.31 9.66-2.31 5.04 0 8.94 1.41 11.69 4.23 2.75 2.83 4.13 6.83 4.13 12.01 0 3.31-.45 6.31-1.37 9a30.29 30.29 0 0 1-3.35 7.03 94.6 94.6 0 0 1-5.29 7.07 82.72 82.72 0 0 0-3.95 5.11c-1.06 1.5-2 3.03-2.84 4.62H557V134h-31.22v-2.87Zm49.77 3.43c-5.09 0-9-1.43-11.76-4.3-2.75-2.88-4.13-6.97-4.13-12.29V90.81c0-5.7 1.33-10.03 3.99-13.02s6.63-4.48 11.9-4.48c5.32 0 9.31 1.5 11.97 4.48 2.66 2.99 3.99 7.33 3.99 13.02v27.16c0 5.37-1.38 9.47-4.13 12.32-2.75 2.85-6.7 4.27-11.83 4.27Zm0-11.06c.89 0 1.61-.4 2.17-1.22.56-.82.84-1.79.84-2.91V89.69c0-1.73-.2-3.04-.6-3.95-.4-.92-1.2-1.37-2.41-1.37-1.21 0-2 .45-2.38 1.36-.37.92-.56 2.23-.56 3.96v29.68c0 1.12.27 2.09.8 2.9a2.45 2.45 0 0 0 2.14 1.23Zm19.39 7.63c0-2.75.43-5.3 1.3-7.63a29.51 29.51 0 0 1 3.18-6.3 93.99 93.99 0 0 1 4.97-6.58 103.5 103.5 0 0 0 5-6.65 28.6 28.6 0 0 0 3.15-6.27c.87-2.35 1.3-4.9 1.3-7.66a8.5 8.5 0 0 0-.7-3.82c-.47-.9-1.3-1.36-2.52-1.36-2 0-3.01 1.8-3.01 5.39v7.35h-12.67l-.14-3.71c0-4.57.47-8.33 1.4-11.27a12.15 12.15 0 0 1 4.9-6.72c2.33-1.54 5.55-2.31 9.66-2.31 5.04 0 8.94 1.41 11.69 4.23 2.75 2.83 4.13 6.83 4.13 12.01 0 3.31-.45 6.31-1.37 9a30.29 30.29 0 0 1-3.36 7.03 94.6 94.6 0 0 1-5.28 7.07 82.72 82.72 0 0 0-3.96 5.11 43.32 43.32 0 0 0-2.83 4.62h16.38V134h-31.22v-2.87Zm49.77 3.71c-4.8 0-8.63-1.18-11.48-3.53-2.85-2.36-4.27-5.85-4.27-10.47v-8.89h12.53v5.11c0 2.05.21 3.66.63 4.83.42 1.17 1.28 1.75 2.59 1.75 1.21 0 2.04-.4 2.49-1.19.44-.8.66-1.96.66-3.5v-11.83c0-1.91-.2-3.44-.6-4.59-.4-1.14-1.22-1.71-2.48-1.71-2.29 0-3.43 1.66-3.43 4.97h-10.99V73.8h28.63v11.27h-17.22v8.47a6.9 6.9 0 0 1 2.45-1.96 7.72 7.72 0 0 1 3.5-.77c5.04 0 8.48 1.77 10.32 5.32 1.85 3.55 2.77 8.56 2.77 15.05 0 5.37-.38 9.72-1.15 13.05-.78 3.34-2.33 5.94-4.66 7.81-2.33 1.87-5.76 2.8-10.29 2.8Z"/>
</svg>
