<svg xmlns="http://www.w3.org/2000/svg" viewBox="0 0 628 135" preserveAspectRatio="xMidYMin">
  <path fill-rule="evenodd" d="M8.19 60.69.77.49h11.48l4.41 40.95L20.58.49h11.48l-7.42 60.2H8.19Zm24.22 0L38.22.56h20.37l5.74 60.13H52.92l-.84-9.73H44.8l-.7 9.73H32.41Zm13.3-19.32h5.46l-2.66-30.59h-.56l-2.24 30.59ZM67.97.56h18.48c2.94 0 5.215.665 6.825 1.995 1.61 1.33 2.695 3.197 3.255 5.6.56 2.403.84 5.472.84 9.205 0 3.407-.443 6.067-1.33 7.98-.887 1.913-2.427 3.243-4.62 3.99 1.82.373 3.138 1.283 3.955 2.73.817 1.447 1.225 3.407 1.225 5.88l-.14 22.75H84.7V37.17c0-1.68-.327-2.753-.98-3.22-.653-.467-1.843-.7-3.57-.7v27.44H67.97V.56Zm15.12 22.26c1.68 0 2.52-1.82 2.52-5.46 0-1.587-.07-2.777-.21-3.57-.14-.793-.397-1.342-.77-1.645-.373-.303-.91-.455-1.61-.455h-2.8v11.13h2.87Zm17.71 37.87V.56h11.62v60.13H100.8Zm14.84 0L121.45.56h20.37l5.74 60.13h-11.41l-.84-9.73h-7.28l-.7 9.73h-11.69Zm13.3-19.32h5.46l-2.66-30.59h-.56l-2.24 30.59Zm22.26 19.32V.56h11.9v24.08L168.7.56h12.11l-6.72 27.51 8.12 32.62h-12.46l-6.58-29.12v29.12H151.2Zm38.22 0V12.11h-7.14V.56h26.32v11.55h-7.14v48.58h-12.04Zm21.98 0V.56h11.62v60.13H211.4Zm30.8.56c-4.853 0-8.54-1.482-11.06-4.445-2.52-2.963-3.78-7.128-3.78-12.495V15.68c0-5.18 1.26-9.088 3.78-11.725C233.66 1.318 237.347 0 242.2 0c4.853 0 8.54 1.318 11.06 3.955 2.52 2.637 3.78 6.545 3.78 11.725v28.63c0 5.413-1.26 9.59-3.78 12.53-2.52 2.94-6.207 4.41-11.06 4.41Zm0-11.06c1.073 0 1.797-.467 2.17-1.4.373-.933.56-2.24.56-3.92v-29.4c0-1.307-.175-2.368-.525-3.185-.35-.817-1.062-1.225-2.135-1.225-2.007 0-3.01 1.517-3.01 4.55v29.33c0 1.727.21 3.033.63 3.92.42.887 1.19 1.33 2.31 1.33Zm19.67 10.5V.56h12.39l5.53 28.77V.56h11.62v60.13h-11.76l-6.02-30.1v30.1h-11.76ZM16.03 135.25c-2.753 0-5.25-.537-7.49-1.61s-4.002-2.648-5.285-4.725c-1.283-2.077-1.925-4.585-1.925-7.525v-15.05h11.83v14.35c0 1.073.222 1.925.665 2.555.443.63 1.132.945 2.065.945.887 0 1.552-.292 1.995-.875.443-.583.665-1.412.665-2.485V74.56h12.11v45.08c0 3.127-.618 5.868-1.855 8.225-1.237 2.357-2.963 4.177-5.18 5.46-2.217 1.283-4.748 1.925-7.595 1.925Zm33.18 0c-4.947 0-8.622-1.4-11.025-4.2-2.403-2.8-3.605-6.953-3.605-12.46V74.56h11.69v43.54c0 1.913.187 3.407.56 4.48.373 1.073 1.167 1.61 2.38 1.61 1.213 0 2.007-.525 2.38-1.575.373-1.05.56-2.555.56-4.515V74.56h11.69v44.03c0 5.507-1.202 9.66-3.605 12.46-2.403 2.8-6.078 4.2-11.025 4.2Zm31.64 0c-4.34 0-7.572-1.528-9.695-4.585s-3.185-7.688-3.185-13.895v-25.9c0-5.553 1.237-9.753 3.71-12.6C74.153 75.423 77.84 74 82.74 74c3.967 0 7.047.793 9.24 2.38 2.193 1.587 3.71 3.897 4.55 6.93.84 3.033 1.26 6.93 1.26 11.69H86.03v-5.39c0-1.447-.198-2.567-.595-3.36-.397-.793-1.108-1.19-2.135-1.19-2.287 0-3.43 1.493-3.43 4.48v29.12c0 1.82.233 3.197.7 4.13.467.933 1.283 1.4 2.45 1.4 1.167 0 1.983-.467 2.45-1.4.467-.933.7-2.31.7-4.13v-8.61h-3.22V99.69h14.7v35h-4.83l-2.03-5.04c-2.147 3.733-5.46 5.6-9.94 5.6Zm21.56-.56V74.56h24.08v11.62h-11.83v11.69H126v11.34h-11.34V123h12.6v11.69h-24.85Zm28.84 0V74.56h12.39l5.53 28.77V74.56h11.62v60.13h-11.76l-6.02-30.1v30.1h-11.76Zm34.86-60.13h16.59c4.293 0 7.513 1.19 9.66 3.57 2.147 2.38 3.243 5.903 3.29 10.57l.14 28.14c.047 5.927-.98 10.383-3.08 13.37s-5.577 4.48-10.43 4.48h-16.17V74.56Zm14.21 49.49c2.193 0 3.29-1.073 3.29-3.22V89.82c0-1.353-.105-2.368-.315-3.045-.21-.677-.595-1.132-1.155-1.365-.56-.233-1.423-.35-2.59-.35h-1.33v38.99h2.1Zm20.3 10.64V74.56h11.9v24.08l5.6-24.08h12.11l-6.72 27.51 8.12 32.62h-12.46l-6.58-29.12v29.12h-11.97Zm46.97.56c-4.947 0-8.622-1.4-11.025-4.2-2.403-2.8-3.605-6.953-3.605-12.46V74.56h11.69v43.54c0 1.913.187 3.407.56 4.48.373 1.073 1.167 1.61 2.38 1.61 1.213 0 2.007-.525 2.38-1.575.373-1.05.56-2.555.56-4.515V74.56h11.69v44.03c0 5.507-1.202 9.66-3.605 12.46-2.403 2.8-6.078 4.2-11.025 4.2Zm19.25-.56V74.56h12.04v49.91h12.39v10.22h-24.43Zm28.77 0V86.11h-7.14V74.56h26.32v11.55h-7.14v48.58h-12.04Zm36.47.56c-4.947 0-8.622-1.4-11.025-4.2-2.403-2.8-3.605-6.953-3.605-12.46V74.56h11.69v43.54c0 1.913.187 3.407.56 4.48.373 1.073 1.167 1.61 2.38 1.61 1.213 0 2.007-.525 2.38-1.575.373-1.05.56-2.555.56-4.515V74.56h11.69v44.03c0 5.507-1.202 9.66-3.605 12.46-2.403 2.8-6.078 4.2-11.025 4.2Zm19.25-60.69h18.48c2.94 0 5.215.665 6.825 1.995 1.61 1.33 2.695 3.197 3.255 5.6.56 2.403.84 5.472.84 9.205 0 3.407-.443 6.067-1.33 7.98-.887 1.913-2.427 3.243-4.62 3.99 1.82.373 3.138 1.283 3.955 2.73.817 1.447 1.225 3.407 1.225 5.88l-.14 22.75h-11.76v-23.52c0-1.68-.327-2.753-.98-3.22-.653-.467-1.843-.7-3.57-.7v27.44h-12.18V74.56Zm15.12 22.26c1.68 0 2.52-1.82 2.52-5.46 0-1.587-.07-2.777-.21-3.57-.14-.793-.397-1.342-.77-1.645-.373-.303-.91-.455-1.61-.455h-2.8v11.13h2.87Zm34.65 37.87V74.56h24.08v11.69h-11.97v9.59h11.34v11.55h-11.34v27.3H401.1Zm27.93 0V74.56h24.08v11.62h-11.83v11.69h11.34v11.34h-11.34V123h12.6v11.69h-24.85Zm43.12.56c-5.46 0-9.403-1.353-11.83-4.06-2.427-2.707-3.64-7.07-3.64-13.09v-5.88h11.83v7.49c0 2.987.957 4.48 2.87 4.48 1.073 0 1.82-.315 2.24-.945.42-.63.63-1.692.63-3.185 0-1.96-.233-3.582-.7-4.865-.467-1.283-1.062-2.357-1.785-3.22-.723-.863-2.018-2.205-3.885-4.025l-5.18-5.18c-4.013-3.92-6.02-8.26-6.02-13.02 0-5.133 1.178-9.042 3.535-11.725S466.013 74 470.54 74c5.413 0 9.31 1.435 11.69 4.305 2.38 2.87 3.57 7.362 3.57 13.475h-12.25l-.07-4.13c0-.793-.222-1.423-.665-1.89-.443-.467-1.062-.7-1.855-.7-.933 0-1.633.257-2.1.77-.467.513-.7 1.213-.7 2.1 0 1.96 1.12 3.99 3.36 6.09l7 6.72c1.633 1.587 2.987 3.092 4.06 4.515 1.073 1.423 1.937 3.103 2.59 5.04.653 1.937.98 4.235.98 6.895 0 5.927-1.085 10.418-3.255 13.475-2.17 3.057-5.752 4.585-10.745 4.585Zm23.17-.56V86.11h-7.14V74.56h26.32v11.55h-7.14v48.58h-12.04Zm21.98 0V74.56h11.62v60.13H517.3Zm21.98 0-7.42-60.2h11.48l4.41 40.95 3.92-40.95h11.48l-7.42 60.2h-16.45Zm24.22 0 5.81-60.13h20.37l5.74 60.13h-11.41l-.84-9.73h-7.28l-.7 9.73H563.5Zm13.3-19.32h5.46l-2.66-30.59h-.56l-2.24 30.59Zm22.26 19.32V74.56h12.04v49.91h12.39v10.22h-24.43Z"/>
</svg>
