<svg xmlns="http://www.w3.org/2000/svg" xmlns:xlink="http://www.w3.org/1999/xlink" viewBox="0 500 2017 998">
  <defs>
    <circle id="a" cx="70" cy="70" r="70"/>
  </defs>
  <g fill="none" fill-rule="evenodd">
    <path fill="#FFE6A9" fill-rule="nonzero" d="M-14 44h2034.4v1563.1H-14z"/>
    <path fill="#B1C29E" fill-rule="nonzero" d="m604.2 1030-38.4 14.3-45.9 14.3-49.5 13.5-76.2 20.7-132.3 49.6-39-32.2-97 12.4-86.8 11.6L4.2 1158l-61-2-15.5 5.6-7.6 11.7 5 10-59-8.6-15.8-2.7v-74l15 2.8 66.5 12.7 75.9 9.8 73.5-3.1 154.3-26.6 222.4-45.3 81.2-21 57.2-17.3 7.9 20Zm-37.3-107.4-11 4-109 28.9-97 13.1-13.8 1.2-16.8 1.5-32.7 3-55.2 5-109.4-7.9-147.4 4-105.3 7.1-18.9-.7V874.2l14.9-1.7h.2l25.7-.9.9 83.3 136.5-3.2 217-13.3 159.2-28 15.7-17.2 3.7-10.3 18-14 21.1-11.3 20.7-.8 15.2 3.8 22.9 1.9 13 9.1 7.2 10.4 17.6 7.9v11.6l7 21.1Zm11.6-17.7 8.3 9 14.9-5.9 67-20.1 33.6-7.5 32.4-14.9 22.8-4.2 5.6-5.3 29.4-8.5 17.3-12.1 24.4-3.7 64.6-42.3 15.8-12.6-1.1-16.7-14.6-5.6-29.9 24.7-39.3 29.1-28.9 11.2-14.1-10.4 6.7-17.1 23.7-31.2-38.4-2.1-59.7 20.9 3.4 17.2-15.3 23.3 1.6 18.4-13.4 7.3-49.2 24.5-51.9 9.8-10.1 13.9-5.6 10.9Z"/>
    <g fill="#B1AFFF" fill-rule="nonzero">
      <path d="m346.6 1156.5 7.5 30.8 34.2 8.9 9.6-13.2 5.5 3.1 1 3.4 14.8 8 19.1-31.2-3.5-11-7-22.3-33.7 9.6 4.2 12.5 8.4 5.8 1.6 3.1-3.7 5.2-6.3 1.6-8.7-26.9-43 12.6Zm-53.8 172 24 22 46.5-47.6 13.9-4 3.5-11.3-24.8-24-63.1 64.9Zm-8.7-46.6 2.7 31.4 11.1-.8 20.9-21.9-10.3-9.8-24.4 1.1Zm115.6-66 2.9 9.3 5.3 6.9 11.1 2.2 11.1-.7 9.7-5.1-2.2-6.6-13.1 2.4-5.1-4.9-8.6 2.7-2.3-8.6-8.8 2.4ZM2079 202.9l-62.2 52.1-148.4 124.1-19.6 9.7-18.4 14-53.3 23.6-45.8 16.8-80.5 20.8-82.9 22.8-83.2 13.5-31.5 5.9-11.5 4.8-26.4 6.6-31.9 13.7-28.1 7.7-70.6 18.2-68.1 16.4-77.2 6.9-59.8 3.4-31 1.1-67.1-.4-65.3-1.6-110.4-3.1-50.2 10.2-46.9 12.9-52.9 2.3L613 607l-20.1-14-28.8 1.5-10.7 6.9-23.5 4.2-22.2 5.7 2.6 16.4-30.7 18.5-16.9 2.1-9.8-1.9-19.9-3.6-66.8 14.1-111.5 17.7L126 695.4l-29.8-.2-21.3-6.3-5.9-1.7-36.2 4-119.4 14-63.1 5.4v154.9l80.7-6.8 98.4-8.6 94.2-7.5 106.1-9 107.1-5.6 100.4-9.8 20.6-2.1 3.5.3 25.5-8.1 75.4 2.6 21.2.9 40-1.8-.4-8.5 62.7-15.9 66.7-24.5 14.5-5.5 41.2-8.8 79.7-13.8 22.4-1.4 7.9 10.3-5.8 5.5 6.6 14.1 3.2 15-11.6 13-12.4 9-28.7 15.6L846 828l-10.1 8.7-17.7 1.1-10.4 5-15.1 9.5-18.5 3.1-16.9 10.2-14.6 1.5-17.8 9.8-10.6 1.5-11.7 5.9-19.9 2.6-18.2 9.2-55.7 13.8-19.6 9.4-22.2 3.1-11 4-109 28.9-97 13.1-13.8 1.2-16.8 1.5-32.7 3-55.2 5-51.8 12.2-36.4 3.6-29.1 4.4-25.3 2.8-42.4-1.6-77.6-5.5-30.1-3.7-69.6-8.7-18.9-.7v116l15 2.9 66.5 12.7 75.8 9.8 73.5-3 154.3-26.6 222.5-45.3 81.2-21 57.2-17.3 70-21.1 153.5-44.5 71.8-30.9L994.8 867l188.4-76.9 71.7-28.4 69.3-25.8 84.6-35.5 26.2-8.9 23.7-8.1 49-12.5 67.7-23.9 124.8-27.9 2.9 3 71.6-13.5 161.2-37.8 128.4-21.2 111.8-29.5 49.1-10.8V325.9l-7.4 2-36.4 14-19.4 5.9-10.4-4.2-6.5-7.1-2-14.4.9-13.5 14.1-23.7 57.3-63.4 9.8-10.9V34.3l-22.7 36L2079 202.9Zm-1448.1 532-13.2 4.4-39.1 4.5-.7 11.3-5.2-1.6-10.9.4-12.7 4.7-39.8 4.1-40.5 4-11.2-1.3-6.7-7-3.9-9.7.7-11.2 9.1-10.3 11.2-8.5 14.6-2.6 24.9 3.7-.3 4.1 65.9-4 38.5-7.8 15-.8 16.4 11.9-12.1 11.7Zm1344.8-49.3 6.2 12.6 14.3-7.1 15.6-7.7-6.2-12.6-16.3 8.1-13.6 6.7Zm-434.3 615.7.2 1.3.7 1.2 1 .9 1.2.6 1.4.2 1.4-.3 1.3-.8.9-1.1.5-1.4v-1.5l-.5-1.4-.9-1.2-1.3-.7-1.5-.3-1.5.2-1.2.7-.9 1-.6 1.2-.2 1.4ZM358.7 1132l1.4 4.9 18-5.1-.8-2.6-.6-2.3-18 5.1Z"/>
      <path d="M393.6 645.1h257v140h-257z"/>
    </g>
    <g stroke="#FFF" stroke-linecap="round" stroke-linejoin="round">
      <path d="M560 901.3c14 43.1 27.6 86.5 44.3 128.7m-.1 0c4.8 14.5 8.4 30.5 15.1 44.1a303.4 303.4 0 0 0 28.3 45.8m689-363.6c8.2 1.9 16.4 3.7 24.6 5.3M560 901.3c0-3.9 1.1-9.4-1.2-12.1-3.4-4-12.1-3.9-16.2-7.2-3.2-2.6-4.3-7.8-7.5-10.5-3.6-3-9.3-4.8-13.4-7-4.5-2.3-11.2-4.4-15-7.7-3.2-2.9-5-8.4-7.4-12-5.1-7.6-13-13-17.9-20.8m166.3 296c12.6 21 24.7 42.4 37.7 63.2 10.1 16.3 28.1 29.4 41.7 42.8 30.9 30.5 60.4 62.8 92.2 92.4 9.1 8.5 17.7 18.2 28.3 24.7 7.1 4.3 9.9 7.7 18.2 4.8 5.2-1.8 9.6-5.9 14.1-9.1m494.9-826.1c-14.5 1.2-29 2-43.5 2.9m417.4 376.3-26.1 14m272.5 394 22.6 44.9 12.5 24.8c3.4 6.9 2.8 6.2 10.9 5.3 15.2-1.7 25.9-8.4 39.6-15.4l45.4-23.2"/>
      <path d="M2033.2 1375.7c-3.6 8.3-6.8 22.9-13 29.3-6 6.1-20.2 9.8-27.7 13.5l-70.6 34.3m-461-763.8 33.8-10.9m198.4 244.4-7.1 8.4m-1.6-71 28.2-20.1M604.2 1030c61.2-19 121.8-39.4 182.5-60.1 13.9-4.7 27.6-11.5 41.8-15 15.5-3.9 31.9-2.2 47.5-5.2 12.7-2.5 27.5-13.2 39.1-19 13.6-6.9 27.3-13.6 41.1-20 32-14.9 63-30.9 95.7-44.1"/>
      <path d="m746.1 983.4 8.8 35.4c.9 3.5 1.2 9.2 3.1 12.4 2.4 4 8.7 7.6 12.2 10.7m1160.3-32c23.5-11.7 61.9-23.5 86.6-32.1m-60 90.5c2.9-1.9 10.7-7.1 14-7.8 3-.7 5.5 1.3 8.6 2.8a123 123 0 0 0 22.2 8.2c8.7 2.5 13.4 4.7 22 2.3a67.4 67.4 0 0 0 21.3-9.7m-103.7-59.3 22.3 59.2M542.3 881.9c50.4-5 99.8-18.8 145.9-39.8 10.4-4.7 20.8-10.5 32.4-11.5 13.2-1.1 28.6 2.4 41.4-.5 10.9-2.4 22.6-11.6 32.4-17.1 11.2-6.2 22-13.5 33.5-19.1 12-5.9 24.9-10 35.3-18.7 11.8-9.8 22.3-20.2 34.5-29.6-29.5-2-58 5.7-86.7 11.9-12.1 2.6-25.6 3.5-37.4 6.8-14.5 4-29.4 11.5-43.1 17.7-26 11.7-51.1 25.3-77 37.2-10.2 4.7-21 11.8-31.9 13.8-15.7 2.9-30.4 2.4-46.2 2-13.9-.4-28.3.8-41.9-1.6a395 395 0 0 0-49.6-6m88.4 50.7 4.1-13.4m.5-16-3.1-13.9"/>
      <path d="M576.4 864.7c10.5-2.5 7.4-18.4-3.1-15.9-9.8 2.4-6.6 17 3.1 15.9m251.5-70.8c-2.6-5.7-7.4-5.5-12.5-7.5-5.5-2.1-9.7-6.1-14.7-9.1-8.4-5.2-18-8.8-26.9-13.1m-124.6 93.9-8.4-33.2m65.5 8.9c-6-10.3-11.4-21-19.1-30.2m-437.8 643.3L241 1321c-2.1-31.6-6.2-63.2-7.9-94.9l-2.4-43.4c-.5-9.1 4-16 7.7-24.3m1316.4-320.2c4.9-2.1 13.7-7.2 18.8-2.9 3.3 2.8 5.4 11.9 7.1 15.7l15.6 34.4c2 4.4 3.6 10.3 7.2 13.4 3 2.6 16.2 10.3 20.1 10.1 3.6-.2 9.9-8.2 12.8-10.7 3.8-3.4 7.6-7 11.5-10.2 11.9-9.7 24.4-18.9 36.6-28.3M1658.1 635c-4.8 9.8-3.8 10.2-14.6 10.1-11.3-.1-9.6-.2-10.9 11M625.5 832.4l-1.1-10.8m-203.1 491.8c2.4-4.9 3.9-9.9 8-13.2 6.2-5.1 14.7-8.7 21.6-12.8 8.6-5.1 20.2-9.2 26.9-16.4 4.4-4.7 7.3-11.2 11-16.5 5.5-7.9 6.4-8.6 3.5-17.9-4-12.4-11.3-24.1-17.1-35.8-10.5-20.9-14.9-46.7-21.1-69.2-2-7.4-1.7-7.6-8.7-10.6-4.2-1.8-10.4-5.9-14.9-5.7-6 .2-14.1 5.1-19.7 7.1l-22.3 8c-20.1 7.5-41.9 10.9-61.4 19.5-21 9.2-56 17-55.2 45.7.3 13.5.7 27.1 1.2 40.6.2 6 1.3 12.6.4 18.6-.8 6.2-4.3 12.2-5 18.4-1.7 13.9.5 29.3.8 43.3a59 59 0 0 0 11.4 29.4c5.1 6.9 19.8 21.6 29 23.5 9.5 1.9 26-5.8 35-8.8 11.1-3.7 21.6-7.8 32.3-12.4l24.1-10.5c3.5-1.5 8.3-2.7 10.9-5.5 4.1-4.6 6.5-13.2 9.3-18.8m953.6-162.2a103 103 0 0 1 8.7-67.6c11.4-19.8 26.1-37.2 36.1-58 5-10.4 7.5-20.6 9.2-32.1 1.8-11.9 1.4-23.8 6.2-34.9 5.1-11.7 9.6-23.7 14.2-35.7 3.6-9.1 5.2-18.9 8.9-27.9 2.4-5.9 5.8-11.5 7.9-17.5 2.8-7.9 5.4-12.5.3-18.9-1.3-1.7-5.1-8.5-7.1-9-1.7-.4-3.9 1.7-5.7 2.9-5.8 3.8-10.9 7.7-16.2 12.2m534.9 195c-5.9-20.4-11.4-39.6-20.3-58.9m-900-134.3c68.1-30.4 136.4-60.7 204.6-90.8l47.2-20.8m501.2 73.7-56.4 24 18 31-17.9 8.3m75.2-54.3c-8-2.2-13.4-2.7-18.9-9m-602.9 107.7c31.6-8.6 63.1-17.6 94.9-25.8 30.1-7.7 58.8-20 89-27.1a297.4 297.4 0 0 0 51.3-18.7m-794.4 248.8c36.6-28.3 72.9-62.4 115-82.4M1458.8 849l12.2-15.9 11.6-9.1c45.4-28.3 93.2-52.6 138.1-81.7 13-8.4 25.4-14.8 39.5-21.1"/>
      <path d="M427.1 1301.5c-15-1.7-27-2.6-39.1-12.4-7.3-5.9-13.8-13.1-20.7-19.5-3.4-3.2-8.5-10.4-12.3-9.3-2.5.7-6.3 6.3-8.1 8.1l-12.2 12.1-11.5 11.5-34.3 34.2 11.6 11.1c5 4.8 11 13.1 17.1 16.4 4.4 2.3.8 2.4 5.1-.3 5.3-3.4 10-10.3 14.3-14.8 9.4-9.8 18.8-22.7 29.7-30.8 3.8-2.8 9.1-2.6 13.1-5 4.1-2.5 6.7-8 9.5-12.1"/>
      <path d="M289 1326.1c.7-4-2.2-6.3-3.2-9.8-1.1-4-1-8.9-1.4-13l-3.3-30.4c7.5.6 18.3-.8 25.2 2 6.1 2.4 12.9 11.7 17.9 16.2m-55.9-17.9c-10.3-.7-20.2-1-30.6-.7m257.2-26.6c4.6-.5 14-3.2 17.5-1 4.3 2.8 7.9 15.3 10.4 20.1m-51.1-71c-.4 4.4.2 9.1-2.7 11.8-3.2 3-11.2 4.5-15.4 6.1a283 283 0 0 1-28.4 8.9m34.3-69.3c-8.8.5-16.5.3-24.6 3.7"/>
      <path d="m343.1 1155.6 2.5 13.2c1 5.4 1 14.4 3.7 19.3 3.4 6.2 16.3 7 23.5 9.1 2.8.8 11.2 4.8 14.1 4 3.6-1 5.2-8 8.5-10.1 3.9-2.6 4-.7 9 2.8 2.3 1.6 11.4 10.2 14.2 9.9 1.5-.2 4-5.2 5-6.5l12.9-17.9c6.8-9.4 7.2-13.1 4.9-25.3-.8-4.3-4.4-23.5-7.9-25.1-1.7-.8-8.8 2.4-10.5 2.9l-21.1 5.8c-19.8 5.2-39.2 11.7-58.8 17.9m47.2-15-4.2-9.3m1119.1-456.9c28.5-9 56.8-18.5 85.8-26a708 708 0 0 1 79.4-15.1c67.5-9.3 134.4-19.6 201.5-31.6 62.8-11.2 125.2-25.8 187.6-39a2925.1 2925.1 0 0 0 162-40.4c27.1-7.4 54.4-14.4 81.3-22.7 29.6-9.1 59.9-14.1 89.5-22.9l21.4-6.3M1303.9 754.9c27.1-11.2 54.5-22.1 81.5-33.6 25.2-10.7 49.7-23 75.5-32.2M1028 876.2c7.5 23.7 13.1 49.1 24.3 71.3m15.8 591.9-34-105.6c-1.6-4.9-2.4-9.5-3.3-14.6-1.8-10.2-5.5-13.6-11.2-22.4a180 180 0 0 1-20.1-39.3c-6.4-19.5-10.7-40-16-59.8m763.8-482.2 23.7-6.9m0 0c.3-4-.8-14.3 1.2-17.5 2.7-4.4 13-8.3 17.3-11.2 9-6 17.6-12.8 27.2-17.9 7.8-4.1 15.7-8 23.6-12 6.6-3.4 9.7-2.4 7.2-9.5-5-14.2 7.3-29.2 14.9-41.2m-149.8 140.5 34.7-24.3m-24.7 90.4c-10.5 5.1-20.1 9.7-29.5 16.6m-789.3 59.1L890.6 943M2051 1218.8c1.8-6.3 5.7-14.1 5.3-20.4a95.6 95.6 0 0 0-8.1-27c-2.5-5.5-8-10.1-9.7-15.8-2.4-8.1-.2-17.6-2-25.8-3.5-16.4-12-32.9-17.7-48.7-4.4-12-7.8-24.4-11.6-36.6l-17.5-56.7m-495-309.7 10.5-3.7M1686 930.9l-8.5 16.7m-519.9-128.2 8.5 32.5 5.9 22.6c.9 3.6 1.3 10.8 3.6 13.7 2.2 2.8 8.4 4.2 11.8 5.8 6.1 2.7 7.8 2.4 9.3 8.3 2.7 10.8 3.4 23.1 5.4 34.1m37 2.1c-3.9-10.2-6-19.9-8.2-30.6"/>
      <path stroke-width="5" d="M1784 1339.1s-169.4 30.5-208.2 43.1"/>
    </g>
    <g stroke="#FFF" stroke-linecap="round" stroke-linejoin="round">
      <path d="M1829.8 636.2c7.5 22 16.6 43.4 25.2 65"/>
      <path stroke-width="5" d="M1783.8 1334.5c2.2-11.8 4.6-14 13.3-22"/>
      <path d="M1474.8 1391.3c-2.3-4.6-4.2-10.1-7.4-14.1-4.7-6-11.7-11-17.3-16.1-8.9-8.4-18.7-15.7-28.3-23.2-9.3-7.3-20.8-14.6-26.9-25.1-6.5-11-4.7-22.9-3.2-34.9m-50.3-121.8a353.6 353.6 0 0 0-56.9 10.3c-8.8 2.5-18.2 4.4-26.9 7.5-9.7 3.5-18.9 9.1-28.1 13.7-16.2 8.1-28.1 20.6-41.5 32.8-12.5 11.3-26.1 21.4-39.4 31.9l-55 43.3"/>
      <path d="M1093.6 1295.5c12.3 19.6 25 37.8 32.9 59.5 7.6 21.1 16.9 41.1 25.1 61.9 9 22.9 19.6 45.7 26.4 69.4 3.4 11.8 5.9 24.3 10.4 35.6 3.5 8.7 8.4 17.1 12.7 25.5l25.1 48.4c4.4 8.5 9 22.1 17.2 27.3m-363.6-284.4c5.1-3.6 2-7.9 7.4-10.4 7-3.2 15.3-4.9 22.7-7.2l61.4-19.5c12-3.8 22.7-5.5 35.4-7 13-1.6 25.7 2.9 38.2 6.4 8.7 2.4 17.1 5.7 26.4 3.7 7.8-1.7 15.4-7 21.7-11.6m-329.6-231.2c-7.7-1.4-16.1-3.8-23.9-3.6a39.4 39.4 0 0 0-24.4 7.7 469.2 469.2 0 0 0-43.5 33.8c-9.8 8.3-20.3 15.9-28.6 25.6l-38.5 44.6a5020 5020 0 0 1-145.9 163.5l-81.2 86.4c-4.9 5.2-9.6 11.5-15.1 15.9-4.2 3.4-7.4 2.9-13.2 3.3l-72 5.5c-31.4 2.4-62.9 5.9-94.4 7.6-36.9 2-73.6 2.6-110.5 5.3L37 1460c-6.8.5-9.3.5-10.3 8.5-1.1 8.6-.9 21.8 6.2 27.9 2.8 2.4 1.3 2.1 4.1 2.4 3.3.4 8.9-2.3 12.1-3.2 22-5.7 44.3-11 66.2-17.3 16-4.6 31.5-11.9 47.1-17.9l21.3-8.3m909.3-159c-39.4-82.7-78.7-167.5-98.1-257.5-2.5-11.8-5.2-23.5-7.9-35.3-2.7-11.8-3.7-25.5-8.2-36.7m505 269c9.6-.9 19.6 1.9 25.7 7.2 2.8 2.4 9.2-.5 13.5 2.2 3.1 2 5.5 6.9 7.8 9.8m-89.3-97c.4 8 .7 16 1.6 24 .9 8.2 4.9 15.4 8.1 23 3 7.2 5.2 14.2 10.3 20.1 2.2 2.5 6 9.1 9.2 10.5 3.2 1.4 9.4.2 13 .3m120-298.1c-64.4 33.4-106.4 117.4-138.3 173.5-8.6 15.2-16 31.1-23.8 46.7m-100.2 1.3c-5.6-5.2-11-9.8-13.2-17.4-2.2-7.7-1.6-16.6-3.3-24.5-3.3-15.8-5.5-32-9.4-47.6-2.1-8.3-3.9-16.9-6.6-25.1-2.4-7.4-7.9-12.9-12.7-19.1-9-11.7-18-23.2-26.3-35.4a939.5 939.5 0 1 1-48.4 0M1093 1293.1c.5.7.8 1.5.6 2.3m496.9-551.5c4.2 6.4 8.7 16.5 17.6 17.3 3.3.3 8.7-2.1 11.8-2.9l19.6-4.8c8.1-2 17.4-5.4 25.7-6.3 9.8-1 20.6.8 30.4 1.3 17.9.8 37.5-2.4 55.1-5.3 16-2.6 32.1-7.2 47.8-11.4 12.4-3.3 26.9-5.3 38.6-10.5 7.7-3.4 12.7-13.3 17.7-20.2m-991.3 635.2c6.6-2.2 17.2-5.5 23.7-7.9"/>
      <path stroke-width="5" d="m1890 1259.3 27.8-17.8c7.6-4.9 16.9-9.2 23.3-15.5a50.6 50.6 0 0 0 14.8-22.1l10.5-40.1c5.1-19.6 3.1-40.9 2.7-61.1-.2-8-3.9-14.6-6.9-22-3.9-9.8-8.1-19.5-11.8-29.3a458.9 458.9 0 0 0-34.8-69.8"/>
      <path d="M1533.6 1255.5a97.6 97.6 0 0 0 38.4 30.2c8 3.8 14.6 8.6 23.4 7.6 8.5-1 16.8-1.7 25.4-2.1 16.6-.7 34.1.4 50.5-2 15.3-2.3 30.2-8.1 45.3-11.3 12.7-2.7 25.6-5.2 38.3-8 4.8-1.1 10.9-2.3 13.7-4.8"/>
      <path stroke-width="5" d="M1797 1312.4c30.8-18 61.9-35.6 93-53.1"/>
      <path d="M1391.8 1277.8c.9-11.7 3.3-23.7.7-35.3-2.1-9.2-6.3-18.2-10.3-26.7-5.2-11-9.4-24.5-16.4-34.5-6.4-9.2-16.6-17.1-24.4-25.2m-952-316.5c-4.6 3.5-9.5 8.7-14.8 10.7-7.5 2.8-17.5 2.7-25.4 4-13.7 2.1-27.1 5-40.6 8-6.7 1.4-13.9 2.3-20.4 4.4-6.1 2-11.5 6-17.5 8.3-12.6 4.7-28.9 5.8-42.3 7.6-58.1 7.5-117.4 9.5-175.8 14.2l-109.3 8.7c-8.1.7-17.5.1-25.5 2-8.7 2.1-16.8 11.8-10.1 19.8 6.9 8.3 27.6 3.8 36.7 3.3 7-.4 14-1.1 20.9-1.7l105.9-8.4 121.2-9.6 39.5-3.1c2.8-.2 7.9.4 10.5-.8 3.5-1.6 1 1.3 2.5-2.9 2.2-6.1-.7-17.4-.9-24M481.3 824c-3 9.6-5.5 15.9-11.3 24-6.7 9.4-11.5 12-21.8 17.6-8 4.3-14.3 10.4-21.8 15.5-7.1 4.8-15.9 7.3-23.9 10.6m67-246.1-1.5-19.4"/>
      <path d="m-160.2 874.5 18-1.4c52.3-4.1 104.9-6.7 157.3-10.6 68.3-5 136.6-11.5 205-15 29.2-1.5 58.6-.8 87.8-2.1 27.1-1.2 56.1-1.4 82.8-6.2 17.9-3.2 35.7-8.7 53.3-13 5.5-1.3 11.6-3.8 17.2-4.2 6.4-.5 13.7 1.3 20.1 2m860.1 332.1 31 1.3M1886.2 815a2016 2016 0 0 1-62.3 22.6c15.2 26 33.3 49.9 47.1 76.7 13.1 25.3 24.4 45.3 37.3 70.6M1139 1389.3l109.8-45.8c14-5.8 30.8-10.4 43.8-18 7.9-4.6 14.4-12 21.9-17.3 7.1-5 15.4-9.5 23.2-13.3 9.2-4.4 20.2-5 30.1-7.2 9.1-2 15.9-5.5 24-10.1m29.1-121.4 20.6-1.4m223.1 206.1c-11.5 15.5-24.5 30-36.6 45a355 355 0 0 0-30.9 46.6m-779.9-233.1c50-16.7 101-30.2 151.7-44.9M1255.6 966c-41.3 26.7-85.8 48.7-126.1 76.8m725.4-341.5c50.2-12.9 99.1-35.9 145.4-59 8.2-4.1 18.9-7.5 26.2-13.1 4.6-3.6 6.7-10.2 9.3-15.6m-162.9 304.3 41.7-21.5m-306.8-135.1c-4.5 5.7-8.1 8.5-6.1 16 1.3 4.9 4.5 9.9 6.6 14.4l18.9 41.3M1211 994.2l26.7 51.8m52.1-32-22.6 12.3c-3.9 2.1-14.2 9.9-17.5 8-2.1-1.2-4.6-8.4-5.7-10.4l-8.6-15.8a2301 2301 0 0 0-11.8-21.6m32-20.5c21.4-13.3 49.7-12.2 74.1-13.9m36.7-82.8c2.5 7.4 5.2 14.8 7.6 22.2 3 9.3 9.6 21.5 10 31.3.3 8.1-5.4 18.8-12.3 23.1-7 4.4-18.6 5.3-26.7 7.6m-30.5 109.1c10.5-2.8 23.1-4.2 32.6-9.2 12.9-6.8 14.7-15.6 19.7-28.6m-47.1 280.3 17.1 27.8m-66.5-162.5 25.4 48.7"/>
      <path d="m1334.9 1200.8 25.3 50.6c2.2 4.4 4.1 10.5 7.7 13.7 6.2 5.5 16.7 8.8 24 12.7m-338.7-68.1c7.3-3.8 13-8.9 21-4.7 7.4 3.8 14.2 11.4 20.7 16.6m348.7-38c1.8 10.8 1.9 24 5.9 34.1 4 10.3 13.3 20.9 19.5 30.2m266.3 5.7c-7.1 2.4-19 4-24.8 8.5-3.5 2.8-2.2-.2-2.3 5.2-.1 3.9 1.2 8.2 1.7 12.1m-83.6 89.2-9.4-40.8 16.4-2.4m-260.9-168 35.7-1.2m-220.1 64.2c-6.8-7.3-11.8-12.3-4.6-21.1m-662.8 68.4L539 1290l84.5-123.2m0 0c4.8-2.7 11.6-8.8 17-9.7 3-.5 14.2 2.6 16.6 5 4.1 3.8 8.1 15 5.9 19.7-2.8 5.9-10 11.9-14.2 16.9l-25.5 30.3-135.4 160.9-35.7 42.4"/>
      <path d="M452.3 1432.3c-7.2-3.2-26-6.5-22.2-17.7.8-2.4 4.7-5.4 6.4-7.3l12.5-14.4 71.2-81.5 18.8-21.5m890.6 54c8.4-5.8 16.8-11.5 25.4-17.1l14.7-9.5c2.9-1.9 9.1-7.6 12.2-7.9 6.6-.5 21 14.1 26.6 18.2l24 17.7m594-737.3c-.5-6.2-3.1-15.7-10.1-18.2-3.9-1.4-11.8.6-15.9.8l-62.5 3.2c-12.6.6-25.1 1.5-37.7 2.3-5.2.3-19.5-1.4-23.8 1.5-3.7 2.5-5.4 15.3-6.4 19.6m-408.3 142.6c-3.8-5.6-6.9-10.4-9.7-16.7-1.4-3.1-6.8-11.3-5.7-13.9.7-1.6 8.8-4 10.3-4.6l22.2-10 82.1-37.1m-397.6 188.2c28.9-11.1 58.7-20.8 86.3-34.9 29.7-15.2 59.3-30.3 88.2-46.8l34.6-19.7c5.6-3.2 12.3-5.9 16.9-10.5"/>
      <path d="m1498.1 771.4-65.8 37.8c-19.4 11.1-38.5 23.8-58.6 33.6-26.2 12.7-54.2 22.7-81.1 33.9-5.6 2.4-17.2 8.1-23 4-2.9-2-5.1-12.9-6.3-16.4-1.9-5.6-4.7-12.5-4.3-18.2.5-6.6 1.9-9.9 6.7-12.8 6.8-4 15.4-6.2 22.6-9.1l40.5-16.3-7.5-16.7m86-27.6c18-8.6 36.2-19.6 55-26.1 3-1 12-4.3 14.9-3.5 2.6.8 5.4 7.3 7 10 5.5 9.1 10.2 17.4 13.9 27.4m378.5-76.3c-4-11.5-7.1-22.7-11-34.3"/>
      <path d="M1337.9 836.3c-1.1-5.4-1.8-17.9-9.5-19.3-4.8-.9-17.6 7.4-21.9 9.2-16 6.7-31.7 13-46.9 21.5m608.8-178.6a364.8 364.8 0 0 1 61.3-18.8c8.7-1.7 17.7-2.3 26.6-3.4 6.3-.7 13.6-2.7 19.9-2.3 5.6.3 4.4-.1 8 5.7m-503 88.6-53.8 27.9c-5.8 3-14.7 5.7-19.5 10.1-1.6 1.5-6.1 8-6 10.1.2 2.9 6.8 9 8.7 11.4M991 1017.5c-12.6 5.7-25.5 11-37.9 17-3.3 1.6-13.2 4.7-14.6 7.7-1.3 2.8 3.9 12.7 5.1 16.1m463.7-294.7c-13.5 8.4-26.2-2.6-36.1-11.9m-565.3 346.6 58.9-26.3m264.7-29.2c-1.8 6.7-3.8 13.4-5.4 20.2-1.5 6.5 1 9.2 4.2 15.3m182.2-296.7 10.9 9.7m9.7-22.1-9.7 22.1m420.9 126.5 33.6-17.3-9.3-16.9m-637.1 159.2c-8.5-1.1-8.4-3.7-12.8-11.2-2.7-4.5-5.8-13.1-10.1-16-8.8-6.1-22.5 9.7-30 13.9-24.2 13.7-50.1 24.8-75 37.2"/>
      <path stroke-width="5" d="m1625.9 978.7 38.7-24.3s15.8-9.5 23.1 3.6c7.3 13.1 59.5 95.4 59.5 95.4s6.9 8.5 15.3 3.7 154.1-85.8 263.8-115.6"/>
    </g>
    <g stroke="#FFF" stroke-linecap="round" stroke-linejoin="round" stroke-width="5">
      <path d="M1583.1 747.5c-38.9 22.4-77.4 45.5-116.6 67.5-17.5 9.9-35.4 19.2-53.1 28.8-19.4 10.5-38.7 22.4-58.9 31.3-22 9.6-46 17.2-69.5 22.2m394-202.5-29.1 15.3m-690.3 960.4a618 618 0 0 0-11.1-63.4c-4.9-20.4-11.1-40.2-17.2-60.3-12.7-41.5-24.4-83.4-37.5-124.8-24-75.6-55.1-148.8-84.5-222.4l-26-65-17.2-44c-3.6-9.1-2.4-18.9-2.6-28.6m458.7-152.2-14.5 3.1m622.1-276.7c-10.1.1-21.4-1.4-31.3.4-9.3 1.6-19.2 6.3-28.1 9.5a842.3 842.3 0 0 0-61.4 25.3m-59.1 38.7c-22.1 12.6-44 26.1-66.8 37.4m125.9-76.1c-8.9 9.2-19.9 15.4-30 23.4m-394 202.5-30 6.1m-83.8 16.6-14.2 2.7m98-19.3c-11 2-21.9 4.1-32.8 6.4m-65.2 12.9-23.3 4.8m74-14.6a4688 4688 0 0 1-36.5 7m-37.5 7.6c-43.3 15-89.6 21.8-134.4 31.6m922.2-338.3a1793 1793 0 0 0-91.8 15.4m526.1-50.1c-54.2 5.4-108.2 12.6-162.5 16.8-56.9 4.4-113.8 8.2-170.8 11.4a5631 5631 0 0 0-100.9 6.5M763.4 1061.9c2.3-7 3.8-15.6 8.1-21.5 4.4-6.1 12-14.1 18.5-17.9 14.3-8.3 32.4-13.3 47.9-18.7 35.2-12.3 70.5-24.4 106.7-33.4 18-4.5 36.5-7.3 54.6-11.4"/>
      <path d="M1208.7 874.1c-2.1 7-4 12.4-3.4 19.7.5 6.4 1.6 12.8 2.4 19.2M1679 694.8c.7-9 3.5-26.2-5.8-31.1"/>
      <path d="M1234.2 907.2c-5.3-4.9-12.3-9.8-16.6-15.6-3.8-5.1-6.1-11.9-9-17.6"/>
      <path d="M1223.9 835.4c-3.1 5-7.1 10.1-9.2 15.6-2.8 7.3-4.1 15.5-6.1 23m.1.1c-4.6 3-10.6 5.6-14.6 9.3-3.1 2.9-4.4 6.8-6.5 10.6-5 8.9-10.9 17.4-16.4 26m139.3-138.4c-16.1 8.4-32.3 16.7-48.4 25.2-14 7.5-26.3 18.2-38.2 28.6m86.6-53.8c39.1-23.4 81.9-36.9 123.7-54.7l79.5-27.7c39.3-15 78.4-32 119-43.2m76.3 15.4a161 161 0 0 0-31.6-4.8m1.6 28.2c6.6-.5 14.5.1 20.8-1.6 5.1-1.4 10.3-4.8 15-7 11.7-5.6 23.3-11.8 35.5-16.3 27.4-10.1 54.3-18.9 79.5-33.6m-156.7 27.4c-6.1-3.4-11.6-7.2-18.4-8.6-8-1.7-14.2-.4-22.1 1"/>
    </g>
    <path fill="#DEAA79" fill-rule="nonzero" d="m1920.5 1383.5 1.7 3.9 4.8 10.8 4.4 9.8 12.9 29.1 19-7.6 2.8 8 31.6-12.2 6.8 20.7 37.4-14.3 8-3.1 4.6 11 25.2-10.5 44.1-18.4-18.2-44.2-8.4-20.4-6.8 2.5-6.7-14.1 5.7-2.8-6.4-13.1-16.8-6.7-7.9 3.7-20.2 9.8-22.4 10.7-44.1 21.2 2.5 5.1-21.8 9.9-2.3-3.8-3.8 1.9-6.2 3.2-5.5 2.7-7 3.6-7 3.6Zm-917.4 61.1 13.4-4.2 4 12.7-13.4 4.2-4-12.7Zm-14-48.9 13.4-4.2 4 12.7-13.4 4.2-4-12.7Zm-25.4 60.2 29-9.1 4.2 13.3-29 9.1-4.2-13.3Zm-13.8-47.9 29-9.1 4.2 13.3-29 9.1-4.2-13.3Zm-8.8 57.2 13.4-4.2 4 12.7-13.4 4.2-4-12.7Zm-15.8-49.5 13.4-4.2 4 12.7-13.4 4.2-4-12.7Zm-11.7-32.9 41.9 133 19.2-6 42.4-13.4 18-5.7-20.1-63.9 12.1-3.8-4.9-15.6-12.8 4-16.8-53.5-79 24.9Zm848.3-531.7 59.9 112.5 41.4-22.1-11.4-21.4-.6.4-45.7-85.7-27.1 14.4-2.9-5.3-13.6 7.2Zm219.4-79.6 9.9 46 11-2.9 2.8 5.7 4.1 5.4 5.6 4.6 6.4 3.3 6.3 1.7 8.7.2 2.5-.3-2.1-20-5.7-.2-3.3-1.1-1.6-1-2.4-2-2.1-2.9-1.5-3.6-.4-4.8.7-3.3 1.1-2.6 1.9-2.7 3-2.5 4.1-1.8 4.8-.5 4 .9 2.4 1.1 3.6 3 2.1 3.2 1.2 3.7.2 4.4-.7 3.2-1.2 2.6 16.5 7.1 3.4 9.1 18.6-6.3-14.5-59.5-.2-13.7-6 1.4-1.4-5.1-50 17.7-18 6.3-9.2-.2 1.5 4.3-6.1 2.1Zm-42.3-92.9 36.9 74.6 23.4-10.9-3.9-8 8.3-3.7 3.2.5 4.4-.3 5.5-1.9 3.8-2.9 3.5-4.8 10.2-5 3.6 8.6 23.4-11.5-23.8-50.3-6.3-13.5-6.8-14.2-22.9 11.9 7.1 14.5 16.6 34-6.5 2-8.5 2-6.8 3.2-2.3 1-8.2 5.9-9 4.4-15.6-32.5-6.2-12.9-23.1 9.8ZM998.6 979.9l11.6 67.1 72-30.4-5.3-35.7-1.7-11.5-76.6 10.5Zm854.2 314.3 15.7 27.7 22.8-13.8 2.1 3.1 29.7-17.2 3.5 5.9 24.8-12.1-8.5-12.9 16.4-9-15.1-24.4-25.4 14-5.4-1.9-17.4 15.5-4.7-2.1-17.1 14.7-4.7-2.2-16.7 14.7Zm-162.2-576.9 4.9 17.7 25.4-7 1.6 5.7 60.7-16.7-.8-2.8 46.6-12.9-7.2-26.3-36.8 10.1-1-3.5-46.7 12.9 1.8 6.2-33 9.1.8 3-16.3 4.5ZM83.5 923.8l1.8 21.3 172.4-14.6-1.8-21.3-172.4 14.6Zm15.3-55 1.7 20.6 164.7-13.9-1.7-20.6-164.7 13.9Zm1054.6 526.5 24.2 65.2 20.4-7.6 35.8-13.3-7.7-20.7-35.1 13-4.3 1.6-9.1-24.3 4.7-1.8 38.4-14.2-7.5-20.2-37.1 13.8-22.7 8.5Zm378-379.4 32.7 24.5 38.4-48.8-1.6-1.7-28.8-30.4-16.4 20.3-1.3-.5-8.9 11.7 1.9 1-16 23.9Zm14.8-228.6 13.4 29.1 12.3-5.7 21.5 45.9 23.9-11.2-28.6-61.1-6.3 2.9-4.3-9.1-10.4 4.9-2.8-6.1-18.7 10.4Zm-399.9 175.2 24.8 44.5 62-35.2-8.9-15.5-77.9 6.2Zm559.1 193.2 34.2 49 30.8-20.1-7.6-13.6-23.1-39.9-19.2 11.8-15.1 12.8Zm-247.2 101.4 24.8 40.2 3.3-2 18.7-12 26-16.5 5.1-3.2-4.4-7.1-2.5-4-4.9-7.8-21.5 13.5-14.6-23.3-13 8.1-6.3 4.9-7 5.5-3.7 3.7Zm-251.3-105.9 14 29.3 36.4-18 28.8-7.9-8.7-32.4-33.8 10.5-36.7 18.5ZM336.4 868.5l61.5-22.3 12.4 34.2-61.5 22.3-12.4-34.2ZM1729.6 759l10.9 35 4 13.5 2.8 8 8.8 29.1 23.8-7.4-7.1-22.6-1.8-6-2.1-6.7-11.5-37.2-3.6-11.8-.4-1.2-23.8 7.3ZM258.2 879.6l48.7-6.1 5 40.5-48.5 6.2-5.2-40.6Zm1367.2-112.8 7.5 34.9 11.9 23.3 28.2-14.4-9.5-18.7-6.8-31.8-31.3 6.7Zm-314.7 490.7 10.6 19.2 9.4 17.1 11.9-6.5-2.1-3.9 2.5-1.4 4.7 8.6 21.4-11.7-22.6-41-35.8 19.6ZM1767 745.3l.9 3.2 3.6 11.9 3.1 10.7 48.8-14.4-1.8-6.2 16.2-4.8-5.8-19.6-65 19.2Zm-44.1 249.6 16.8 28.3 7.4-3.3 36.4-20.3-14-28.3-46.6 23.6Zm-700.1 75.3 9.9 18.9-6.6 2.4 8.7 28.1 11.3-6.7-2.5-8.7 17.6-10.5-9.1-15.3 16.2-11.1-10.9-18.4-34.6 21.3Zm621-168.4 23.5 37.9 7.8-5.4 2 3 8.9-6.4 4.5 3.9 5.8-3.8-3.2-8.5-7.6-17.6-9.2-20-32.5 16.9Zm18.6 280.6 3 4.7 3 4.8 4 6.3 16.3 24.4 27.5-18.4-28.5-39.4-25.3 17.6Z"/>
    <path fill="#DEAA79" fill-rule="nonzero" d="m1959.5 1329.3 1.4 3.2 10.7 24.8 44.1-21.2-13.6-29.5-42.6 22.7Zm-315.2 74.9 18.8 15.6 9.6-9.1 24.8-23.2 7.8-7.2-12-11.5-6.6-6.3-42.4 41.7Zm-15.3-261.3 15.4 22.1 6.8 9.8 29.6-19.9-21.3-32.7-30.5 20.7Zm-6.5-273.2 3.4 5.6 7.7 12.7 15.5-8.5 12.7-8.2 12.5-14.5-15.6-22.2-16 10-11.7 6.7 6.5 10.6-11.7 6.1-3.3 1.7Zm-438.3 234.4 10.7 21.4 26-12.9 26.4-13.1-10.6-21.4-52.5 26Zm-698.8 81.3 7 22.7 57.6-19.8-7.3-21.2-57.3 18.3Zm1375.5-55.2 6.1 20.1 1.2 13.6.8 8.1 24.6 1.2 3.3-25.6-9.5-27.3-26.5 9.9Zm105 70.5 43.9 11.8 7.7-28.8-43.8-11.8-7.8 28.8Zm-218.8-180.8 18.5 27.7 32.6-20.4-14.7-27.6-36.4 20.3Zm-664.5 222.9 17.1 31.3 31.7-17.2-17.1-31.4-31.7 17.3Zm28.4-370.2 14.2 28.1 36.3-18.3-14.1-28.1-36.4 18.3Zm643.3 483.3 4.7 25 1.9 8.7-4.9 4.3 15.2 15.8 10.9-10.6 4.9-4.5-9.3-43.4-4.9 1-18.5 3.7Zm-783.4-228.3 10.2 32.3 35.4-11.1-10.2-32.3-35.4 11.1Zm816.9-143.8 20.1 38.9 25.6-14.1-19.9-37.7-25.8 12.9Zm-271.9 231.4 11.7 18.2 7.3 10 1.1-.6 21.6-10.7 4.6-2.3-3.7-4.7-1.4-1.8 4.8-2.4-1.6-3.2-7-13.6-4.3-8.4-33.1 19.5Zm-451.3 111.4 28-13.4 17.3 36.1-28 13.5-17.3-36.2Zm736.6-521 9.6 25.2 18.9-4 20.9-10.1-2.1-6.8-5.3-17-.4-1.2-12.7 3.2-15.4 5.6-13.5 5.1Zm8.9 340.5 11.1 15 15.2-6.5 1.2 8.6 17.5-.7h5.4l-1.6-16.2-4.5-13.7-3.3-10-41 23.5Zm23-161.4 11.9 22.4 34.2-18.2 4.5-2.4 2.7-1.4-11.9-22.4-41.4 22Zm-687.8 153.6 31.9 39.8 18.2-14.5-15.8-19.7-16.1-20.2-18.2 14.6Zm488.5 81.8.7 1.5 9.5 18.2 42-16.1 2.7-1.1-16.3-24.4-2.2 1.3-20.1 11.6-7.6 4.4-8.7 4.6Zm75.2-350.9 11.5 32.5 26.4-10.9 3.7-1.8-13.3-33.3-1.3-3.7-10.4 3.8 3.3 3.9-19.9 9.5Z"/>
    <path fill="#DEAA79" fill-rule="nonzero" d="m1843.2 792.9 5.3 17 11.3-3 2.3 8.6 19.6-5.2-4-15.2 6.5-1.8-1.8-6.6-1.6-5.9-6.1 1.6-3.2-12.2-19.6 5.2 3.8 14.2-12.5 3.3Zm-342.6 394.6 15.3 27.7 33.1-19.5-14.1-24-34.3 15.8Zm-314.2 47.7 21.1 37.8 22.6-12.6-21.1-37.9-22.6 12.7Zm635.4-271.6 11.3 21.1 41.4-22-11.3-21.2-41.4 22.1Zm78.9-43.6 12.2 28.2 2.8 6.3 5.1-2.2 2.6 6 29-12.6-15.6-35.9-9 3.8 11.5 26.7-15.1 6.5-9.7-22.3 11.3-4.9-3.8-8.8-21.3 9.2Zm-824.2 116.1 22.5 35.9 21-13.2-9.2-14.7 1.9-1.2-7.9-12.8-2.1 1.4-5.3-8.5-20.9 13.1Zm509.3 291.2 7.5 26.6-3.9 1.9 4.2 14.4 27.9-7.1-4.7-16.6-3 .9-7.3-26-20.7 5.9Zm307.6-16.1 7.5 12.5 4.3-2.1 7.8 16.1 26.4-12.3-1.8-3.6-11-21.9-3.5-5.9-29.7 17.2ZM651.9 822.7l8.5 25.3 28.2-10.6 10.7-13.8-15.8-12.9-7.9 1.8-23.7 10.2Zm1065.2 113.8 17.2 31.7 26.4-13.7-18-28-2.1-3.2-11.7 6.8-9.7 5.6-2.1.8Zm-348.6 102.6 2.5 11 4 6.7 8.6-2.9 6.4-4.9 6.5-7 2.7-9.1-.6-10-3.7-8.6-3.3-6.1-6.9 3.5-6 2.9-5.3 7.3-3.8 7.8-1.1 9.4Zm-26.5-74 36.7-9.5 6.7 25.8-36.7 9.5-6.7-25.8Zm-469.4 289.6 11.7 39.3 23.5-7-11.7-39.3-23.5 7Zm1101.5-333.5 5.7 20.4 12.8 1.8 24.5-8.3-.5-1.8-7.8-24.4-34.7 12.3Z"/>
    <path fill="#DEAA79" fill-rule="nonzero" d="m1714 979.4 8.9 15.5 46.6-23.6-8.8-16.8-26.4 13.7-20.3 11.2Zm-113.2 182.1.4.6 11.4 17.1 5.7 8.5 10.8-6-3.2-5.8 18.5-10.9-15.4-22.1-28.2 18.6Zm-575.1 87.8 1.3.6 9.8 21.1 5.2 12.9 22.1-10.5-14.6-36.3-23.8 12.2Zm906.9-389.2 1.4 4.8 4.2 15.3 36.5-10-5.2-18.9-12.2 3.3-2.9-10.6-18.4 5.1 2.6 9.3-6 1.7Zm-360.5 99.4 28.8 30.4 14.2-16.1-20.7-29.8-16.8 10.8-5.5 4.7Zm354.5 340.4 11 21.9 35.6-18.9-11.4-19.8-10.4 4.7-24.8 12.1Zm-513.3 72.8 19.7 25.9 24-12.3-26.1-31.4-17.6 17.8Zm-82.4-583.3 29.9-15.5 12.9 24.7-30 15.6-12.8-24.8Zm161.7 316.9 28.4 3 8 .8 8.8-19.4-31.9-13-4.6 7.8-1.6 1.9-4.8 14.2-2.3 4.7ZM1267.8 1274l20 40 18.5-9.2-20-40-11.7 5.8-6.8 3.4Zm-151-185.8 20.8-13.5 20.3 31.4-20.7 13.5-20.3-31.4Zm816.8 259.9 12.6 22.3 3.8-1.9 2.3 3.8 21.8-9.9-2.5-5.1-10.7-24.8-27.3 15.6Zm-698.9-358.4 23.9 35.5 17.5-11.8-23.9-35.5-17.5 11.8Zm-997.8 212.2 2.6 63.5 16.1-.7-1.3-30.8 10.2-.5-.3-7.1-18.3.8-1-25.5-8 .3Zm1446.5-343.6 1 1.6 11.6 15.6 13-6.3 19.9-9.5-3.3-3.9-13-16-1.4-1.6-16.6 10.1-11.2 10Zm-348.9 444.6 19 31.6 21.5-12.9-15-24.9-3.9 2.4-2-3.3-2.1 1.3-2.1-3.4-15.4 9.2Zm345.3-189.5 15 25.1 10.6 17.2 15.1-12.8-5.3-6.4-3.7-4.7-17.6-28.4-14.1 10Zm-4-340.2 13.8 28.3 22.4-8.4-3.5-11.3-10.5 1.2-.2-3.4 18-7.3-1.9-10.5-38.1 11.4Zm-608.2 367 33-19.6 11.4 19.2-33 19.6-11.4-19.2Zm805.5 59.3 15.7 24.6 3.7-1.8 19.2-21.7-19.7-19.5-18.9 18.4Zm97-106.4 25.5-5.3 6.6 31.8-25.4 5.3-6.7-31.8Zm-374.5 6.6 3.9 6.3 4.5 6.1 1.7 2.8 5.3-3.4 1.4 2 28-18.4-14-17.9-30.8 22.5Zm-54.5-181.9 16.2 13 1.8 1.5.9.7 3.5 6.4 16.9-20.9-2.3-7.2-17.5-13.6-19.5 20.1Zm88-3.6 24.6 37.1 11.3-9.5 2.3-2.1-23.5-37.9-1.7 1.3-13 11.1Zm-614 400.2 17.6-3.1 8 45.2-17.4 3.1-8.2-45.2Zm682.8-366.5 16.1 31.5 20.3-11.2-17.2-31.7-19.2 11.4Zm23.8 139.6 16.9 27.3 9.5-3.1 17.4-12.1-9-14-9.4 8.9-8.6-15.9-16.8 8.9Zm-329.8-153.4 5.7 21.9 34.1-8.9-5.7-21.9-34.1 8.9Zm-80.6 88 5.2 22.1 35.9-8.4-3.9-16.7-12.9 3-1.3-5.4-23 5.4Zm572.5 69.7.6 1.5 7 13.7 38.3-13.7-3.8-13.6-3.5-3.7-27.2 10.8-11.4 5Zm-271.4 21.7 12.3 17.7 29.4-17-13.7-19.1-28 18.4ZM1257 932.9l4.7 19 37.2-9.2-2.4-9.5-2.3-9.6-37.2 9.3Zm549-156.2 8.7 23.8 15.4-5.6-4.3-11.8 24.5-8.9-4.4-12.1-39.9 14.6Zm-32 169.2 13.6 27.8 22-9.4-15.7-29.2-19.9 10.8Zm-464.1 422.4 5.3 11.5-.5 5.3-3.6 2.3 9.1 15.8 20.8-9.2-13.8-29.6-1.8-2.8-15.5 6.7Zm483.2-27 12.8 38 19.4-6.7-4.8-16.1-16.9-20.3-10.5 5.1Zm-167.4-300.4 16.2 23.3 21.2-15.8-18.1-23.2-19.3 15.7Zm174.1 139.1 18.7 31.2 17.3-10.7-8.6-18.1-1.9-4-3.9 2.2-5.3-9.7-16.3 9.1Zm98.4-59.7 2.6 5.3 3.1 13.2 30.7-3.4.4-14.6.1-3.8-.6-4.5-.2-1.4-36.1 9.2Zm-273.4 219 .6 4.4 2.2 16.1 33.1-5.2 2.3-.4-2-19.7-2.7.3-7.4 1-26.1 3.5Zm334.9-60.2 2.1 4 11.4 19.8 1.2 1.9 23.6-13.7-15.6-20-1.6.8-1.9-3-19.2 10.2Z"/>
    <path fill="#DEAA79" fill-rule="nonzero" d="m1754.5 918.6 19.5 27.3 19.9-10.8-18.4-25.4-21 8.9Zm-17 404.7 1.6 17.5 34.8-4.1-4.9-28.2-12 2.7 7.3 8.7-26.8 3.4Zm-226.1-264.2 32.9 17.5 9.3-16.5-32-17.1-10.2 16.1Zm-550.1 34.1 7.4 21.8 28.5-9.6-7.4-21.8-28.5 9.6Zm732 275.6 12 11.5-7.8 7.2 10.6 9.5 8.4-8.2 7.1-2.4 2.6-1.1-7.4-21.8-1.6-4.7-17.7 5.9-6.2 4.1ZM1339.5 909l6.5 23.4 26.9-7.4-6.4-23.4-27 7.4Zm-102.2 363.7 16.8 35.8 15.3-7.1-16.8-35.9-15.3 7.2Zm417.8-296.2 16.5 21.8 18.6-12.4-16.4-25-18.7 15.6Z"/>
    <path fill="#DEAA79" fill-rule="nonzero" d="m1521.6 1043 32 17.1 8.5-14.1-31-19.9-9.3 14-.2 2.9Zm467.5 192.3 1.6 5.8 4.7 3.9 2.6 4 1.8 5.8 2.4 4.4 4.2 2.6h4.5l3.6-2.1v-6.3l2.1-4.7 3.2-1.5 2.8-3.5.7-2.3-.1-3.3-2.9-2h-10.5l-3.9-2.3-2.4-3.7-4.2-2.4-4.4-.5-4.5 3.4-1.3 4.7Zm-281-140.4 14.9 29.4 2.4 4 3.8-.3 12.8-7.2-3.4-6-16.9-27.3-13.6 7.4Zm-349 261 11.7 22 14.4-5.6 8.9-5.3-10.4-21.8-15.3 6.5-9.3 4.2Zm-192.9-534.1 9.9 21.4 14.8-6.9-4.6-9.9 19.5-9.1-5.3-11.4-34.3 15.9Zm336.8 254.3 2.9 1.6 31.9 13 6.5-14.1-32.9-17.5-8.4 17Zm388.4 30.9 6.8 13.3 36.1-9.2-.6-3.9-4-13.9-38.3 13.7Zm-300.1-235.7 11.8 18.5 22.8-14.5-3.4-5.6 3.3-1.7-10.1-12.7-24.4 16Zm-360.5 330.8 21-9.6 11.6 25.5-20.9 9.5-11.7-25.4Zm609.5 187.4 9.4 20.8 1.7 4.1 18.9-6.9-2.8-11.1-9.1-13.7-5-6.6-13.1 13.4Zm-80.6-246.5 13.1 20.1 4.7-3.6 19.5-10.2-14-19.4-23.3 13.1ZM1645 1025.2l18.1 23.2 1.8 2.4 15.2-13-18.4-24.4-16.7 11.8Zm40.6 299.5.7 6.8 1.2 18.5 26.2-4.9-2.9-18.5-.8-5.6-24.4 3.7Zm-68.9-398.9 26.2 31.6 10.8-6.1-24.6-37.1-12.4 11.6Zm103.8-24.1 7.2 15.8 35.6-14.4-6.1-12-8.9 3.7-1.4-4-26.4 10.9Zm-329.6 311 7.3 26.1 18.7-6.5 3.5-3-3.9-13.4-2.5-8.3-.4-1.3-20.9 5.9-1.8.5Zm-440.9-168 7 18.3 29.8-11.5-7-18.2-29.8 11.4Zm748.3-238 42.3-12.7 4 13.5-42.3 12.6-4-13.5Zm193.8 557.1 12 31.1 18.1-7.5-1.7-3.9-11.9-26.4-16.5 6.7ZM1569 1062.6l9.5 13.4 30-21.1-9.3-14.2-30.2 21.9Zm68.8-72.9 14 19.6 2.3 3 8.8-6.4 8.7-7.6-16.5-21.8-17.3 13.2Zm-707.5 203 32.6-9 4.9 17.3-32.6 9.2-5-17.4Zm855.8-86.4 6.5 11.3 41.7-23.9-5.9-10.9-18.1 10.1-24.2 13.4Zm-52.5 171.4 3.5 14.9 13.7-4 6.2 22.6 12-2.7-3.6-9.6-8.3-21.7-1.7-4.8-21.8 5.3Zm-484-208.6 28.3-20.3 10 14.2-28.2 20.2-10.1-14.1Zm535.9 119.8 18.2 30.2 14.8-7.9-18.7-31.2-14.3 8.9Zm-227.4 72 6.7 4.2 14.7 8.7 6.5 2.2 10-12-6.5-7.1 4.1-3.4-8.7-7.5-26.8 14.9Zm-457.3-82.6 5.3 8.8 6.3 10.3 22.8-13.8-11.7-19.1-22.7 13.8Zm-202.4-112.2 29.4-11.7 7 17.4-29.5 11.7-7-17.4Zm395.8 68.3 27.7-5 3.8 20.7-27.8 5-3.7-20.7Zm-257.2-10.1 11.4 17.6 23.3-15.2-11.4-17.5-23.3 15.1Zm766.5 11.4 6.6 10.4 41-23.5-6.5-10.3-41.1 23.4Zm-950.2-118.8 8.9 25.9 13.8-4.8-1.7-4.9 7.7-2.7-7.1-20.9-21.6 7.4Zm151.1 243.6 9.9 21.1 22.5-10.6-9.8-21.1-22.6 10.6Zm892.3-83 21.2 17 11.5-24.6-28.3-6.9-4.4 14.5Z"/>
    <path fill="#DEAA79" fill-rule="nonzero" d="m1901.1 1163 28.3 6.9 3.6-21.5-28.8-3.1-.7 5.7-2.4 12ZM937.2 991.8l5.1 15.1.7 3.6 27.5-6.6-1.6-18.4-31.7 6.3Zm392.9 130 1.3 6.9 6.4-1.3 1.9 9.5 5.7-1.1-1.9-9.9 5-1 2.3 11.9 7.8-1.5-2-10.5 5.7-1.1 2.2 11.3 6.1-1.2-4.5-23.3-6.3 1.2.9 4.8-5.6 1.1-1-5-5.8 1.1.9 4.9-6.3 1.2-.9-4.8-6.6 1.3.9 4.3-6.2 1.2Zm545.1-109.1 11.1 25.9 6.6-2.7 11.8-4.9-11.2-26-4.7 2-13.6 5.7ZM1828 1367l.9 3.8 6.8 21 4.6-2.3 13.1-13.4 6.1-6.3-5.9-6.7-3.8 3.5-7.4-8.4-14.4 8.8ZM802.5 1040.7l4.6 14.2 15.4-4.9 1 3.2 12.2-3.9-6.3-19.9-14.1 4.5-.8-2.7-8 2.6 1.6 5.2-5.6 1.7Zm761-101.3 6.8 8.5 2.6-2.1 4.7 9 16.8-10.8-14-25.5-16.9 20.9Zm16.4 239.9 10.1 16.1 22.6-16.2-11.4-17.1-4.3 2.4-17 14.8Z"/>
    <path fill="#DEAA79" fill-rule="nonzero" d="m1805.9 1379.3 5.9 21.9 23.9-9.4-6.8-21-3.6 1.8-19.4 6.7ZM1578.5 1076l8.3 13 30.3-22.9-8.6-11.2-30 21.1Zm98-21 3.8 5.3-3 2.3 17.5 23.1 13.1-6.3-20.4-31.4-11 7Zm-290.2-161.3 5.4 21.6 23.8-6-2.3-9.1-2.5-9.7-.7-2.8-23.7 6Zm405.8 354.7 5.5 12.3 3.7 9.9 10-6.4 10.5-6.1-8.3-20.5-21.4 10.8Zm-150.2-184.2 10.6 16.2 15.2-10.7 7.5-5.6-10.3-13.3-1.8-2.4-21.2 15.8Zm-171-54.8 24.8 18.3 9.6-13.4-24.4-19.8-10 14.9Zm115.9 79.6 3 4 1.4-.4 4.4 7.1 30.8-22.5-9.3-11.1-30.3 22.9Zm260.7-63.9 14.3 31.6 14.1-6.7-1.5-3.1-13.5-28.2-13.4 6.4Zm41.5 44.9 6.2 16.8 27.2-10.8-6.8-16.8-26.6 10.8Zm-770.4 247 8.3 12.3 29.1-19.5-8.3-12.4-29.1 19.6Zm-212.3-314.6 31-10.5 5.1 15-31 10.6-5-15.1Zm470.7 124.8.9 8.6 8 1.3-2.1 13.3h19.5l6.2-19.5-32.5-3.7Zm-31.8 84.8 10.8 21.7 19.1-9.4-10.8-21.8-19.1 9.5Zm206.2-110.7 7.9 12.9 8.8-6 20.5-13.6-7.8-12.2-25.8 16.8-3.6 2.1Zm-723.6 28.6 9.2 27.2 16.9-5.8-9.2-27.1-16.9 5.7Zm970.2-3.5 5.5 9.3 41.1-23.4-5.3-9.5-41.3 23.6Zm-377.3-243.2 1.1 4.5 2.5 9.7.2 1 31.5-8-3.8-15.2-31.5 8Zm-93.5 481.2 13.8 29.6 16-8.7-13-24.6-10.2 5.4-1.8-3.6-4.8 1.9Zm476.4-28.2 16.9 20.3 16.5-10.8-3.7-4.8-16.6-15.3-13.1 10.6Zm-245.1-111.1 3.7 4.7 2.8 3.9 10.2-4.9 3.6 6.8 6.7-3.3 3.8-2 9.5-4.7-10.9-14.6-29.4 14.1ZM852.8 1081l8 19.6 22.2-9-8.1-19.7-22.1 9.1Zm866 282.5 7.4 21.8 20.8-6.4-6.6-20.2-.7-1.9-20.9 6.7Zm29.2-234.8 11.7 14.3 23.3-13.1-9.5-15.4-25.5 14.2Zm-52-253.2 6.7 21 3.8 10.7 14-5.5-11.5-32.5-13 6.3Zm-215.1 119 24.4 19.8 8.1-14.7-25.6-19.1-6.9 14Zm-404.8 180.8 13.3 22 16.7-10.2-5.3-8.8-8-13.1-16.7 10.1Zm617.8-71.9 17.6 28.4 11.5-7.5-14.9-29.4-14.2 8.5Zm-705.1 114.4 7.4 15.8 6.6-3.5 19.6-8.6-7.5-15.9-26.1 12.2Zm774.6-146.5 8.2 11.9 19.8-12.5-9.6-18.1-18.4 11v7.7Z"/>
    <path fill="#DEAA79" fill-rule="nonzero" d="m1792.6 1117.6 5.4 8.8 41.3-23.6-5-9.1-41.7 23.9Zm-194 90.3 7.3 12.5 11.8-7.6 14.7-12.7 2.8-1.6-6.1-10.2-7.6 4.7-22.9 14.9Zm-43 157.7 2.6 12 35.4-7.4-4.2-14.4-33.8 9.8Zm-9.2-108.8 9.9 4.1h1.8l26.8-14.9 6.9-3.7-6.3-10-6.7 3.3-12.7 7.4-19.7 13.8Zm139.4-422.9 8.8 14.4 16.6-10.1 7.8-4.7-8.8-14.4-7.7 4.7-13.9 8.4-2.8 1.7Zm197.3 499.4 7.6 14.3 3.8 1.2 19.6-9-1.1-2.1-7.8-16.1-4.3 2.1-17.8 9.6Zm-1463.3-482 5.1 15.8 27.5-8.9-5.1-15.8-27.5 8.9ZM1687.5 1048l20.4 31.4 5.8-3.3 5.6-3.3-20.6-30.8-11.2 6Zm-136.7 39.5 4.2 11.7 25.8-16.8-6.9-7.9-7-9.7-16.1 22.7Zm187.8 27.3 3.4 6 6 7.9 25.5-14.2-8-14.9-17.4 12.1-9.5 3.1Zm-322.2 3.3 26.4 9.5 6.5-16-26.9-9.1-6 15.6Zm294.4 208.5 2.9 18.5 5.9-1.1 19.5-3.2-3.9-18.8-24.4 4.6Z"/>
    <path fill="#DEAA79" fill-rule="nonzero" d="m1868.5 1321.9 8.6 14.6 6-3.2 17.8-9.6-7.5-12.5-2.1-3.1-22.8 13.8Zm-380.7-341.4 25.6 19.1 8-12.4-25.3-19.2-8.3 12.5Zm262.7 228 18.6 28.6 12.2-5.5-18.7-29.9-12.1 6.8Zm-98-128.1 15.6 19.8 15.2-7.7-15.6-22.8-15.2 10.7Zm-58 37.1.9 1.4 13.5 22.2 15.8-9.9-12.3-17.7-1.4-2-5.3 3.4-1.7-2.8-9.5 5.4Zm-601.1 53.7 2.9 8.8 4.8-1.5 2.8 8.8 23-7.4-5-15.7-13 4.2-.6-1.9-14.9 4.7Zm867.1 37 12.6 24.1 8.4-4.6 7.3-3.6-15.7-24.6-12.6 8.7Zm-85.3-13.8 16 31.8 12.5-7.1-18.2-30.2-10.3 5.5Zm85.7-175.7 13.5 28.2 13-5.8-1.1-2.5-11.1-25.9-14.3 6Zm-33.7 163.7 8.6 18.1 15.6-9.2 2.9-12 1-4.4-16.4-.1-4.2 2.8-7.5 4.8Zm-695.7 27.8 19.5-14.3 11.2 15.2-19.5 14.4-11.2-15.3Zm546.7-188.3 9 13.6 22.9-15.7-9.8-13.9-22.1 16Zm-372.1 151 10 19.4 18.5-8.7-9.2-19.8-19.3 9.1Z"/>
    <path fill="#DEAA79" fill-rule="nonzero" d="m1762.6 1201.7 18.7 29.9 9.9-5.4-16-31.8-12.6 7.3Zm-607.4 64.2 5.1 9 2.2-1.2 7.9 14.1 15.1-8.5-11.4-20.4-8.7 4.8-1.5-2.6-8.7 4.8Zm727.5-210 1.8 3.9 4.5 10.2 26.6-10.8-5.5-14.8-21.5 9-2.5 1-3.4 1.5Zm-582.1-75.8 4.7 16.1 25.9-7.6-4.8-16.1-25.8 7.6Zm295.2 302.2 12.7 6.2 19-3.1-7.7-20.7-1.3-3.6-3.4 1.1-1.8 2.6-6.6 8.3-10.3 8.8-.6.4Zm-344.9 99.6 1 5.1 3.4 17.4 12.2-3.4 4.7-2-4.2-8.7 5.5-3.1-6.3-13.6-16.3 8.3Zm364.2-145.9 8.1 9.8 7.8 1 13-7-9.5-18.2-5.6 3.4-2.4-3.1-11.4 14.1Zm-328.3-6 6.3 14 25.9-12.7-7.2-14.1-25 12.8Zm-245.1-82 10.7 26 14.6-6-10.7-26-14.6 6Zm609.5 26.8 7.1 10.4 29.4-20.4-6.9-9.9-29.6 19.9Z"/>
    <path fill="#DEAA79" fill-rule="nonzero" d="m1620.5 1215.7 6 6.2 2.4 3.1 5.6-3.4-.7-1.5 8.7-4.6 7.6-4.4-3.8-6.7 22.1-12.5-3-4.8-44.9 28.6Zm226 2.6 11.5 21.2 7.6-3.2 7.5-4-12.6-24.1-14 10.1Zm-256.5-22.9 7.7 11.1.9 1.4 22.9-14.9-1.2-1.9-2-3.4-5.7-8.5-22.6 16.2Zm-246 165.3 13 24.6 13.8-7.4-11.7-22-1.3-2.5-10.8 5.7-3 1.6Zm364-122.1 5.8 12.6 4.7 6.3 14.9-5.2-8.1-16.2 9.2-5-2.7-4.9-3.4 1.9-20.4 10.5Zm108.7-206 8.2 18.5 19.8-9.7-9.4-18.1-18.6 9.3Zm-174 223 9.1 31.3 13.1-4.1-.8-2.4-9.7-29.2-11.7 4.4Zm-213-171.3 29.4 10.4 6.5-11.4-30.3-11.7-5.6 12.7Zm178.2-68.4 9.3 14.4 12.9-9.3 6.3-5.5-10.3-14.6-18.2 15Zm-39.8 92.3 6.2 12.6 25.2-14.8-3.9-6.3-4.4-7.1-2.6 2-20.5 13.6Zm-65.3-151 24.3 19.4 8.2-11.9-23.3-17.4-9.2 9.9Zm50.5 246.9 7 13.6 25.4-13.2-7.9-12.5-24.5 12.1Zm-140.1-69.4 23.5 6.7 6.1-13.8-26.4-9.5-3.2 16.6Zm176.3 122.2 6.5 7.1 9.7-8.1 13.8-6.5-15.1-16.3-11.2 6.4 7 8.4-6.6 5.6-4.1 3.4Zm-414.6 52.2 14.3 20.8 13.6-9.4-14.2-20.7-13.7 9.3Zm558.1-53.5 1.5 3.5 1.8 3.4 1.8 3.9 2.3 4.8 9.1-3 .7 1.7 3.3-1.3 5.5-2.4-3.4-14.6-1.4-5.6-9.2 3-5.7 1.8 1.2 2.4-7.5 2.4Zm-405.1-176.1 3 18.4 21-3.3-.6-4.1 2.8-.5-1.3-8.5-4.2.6-.9-5.8-19.8 3.2Zm39.5 152.9.2 25.3 16.3-.1-.1-25.3-16.4.1Zm491 150.3 9.1 13.7 19.6-12.5-6.8-15.7-21.9 14.5ZM1463 1021.5l25.6 16.3 7.1-10.1-24.8-18.3-7.9 12.1ZM1281 1183l8 17.9 18.5-8.3-7.9-17.9-18.6 8.3Zm-107.6 168.7 5 14.6 24.3-8.2-4.9-14.6-24.4 8.2Zm266.2-289.7 29.6 12.8 6-10.4-29.7-13.4-5.9 11Zm338.8 32.5 7.7 11.8 24.2-13.4-2.8-4.6-4.6-7.5-24.5 13.7ZM1401 1361.6l12.3 11.1 17.6-17.8-13.8-9.4-16.1 16.1Zm-398.2-131.5 8 14.1 10.9-5.2 11.2-5.7-6.7-13.4-3.8 1.6-19.6 8.6Zm825.3-169 7.1 16.2 18.5-9.4-1.5-3.1 2.4-1-6.6-12.2-18.7 8.8-1.2.7Zm-159.7-48.1 7.9 9.9 1.9-1 22.1-16-5.8-11.1-26.1 18.2Zm-382.2 360.6 3 6.5 6.2 14.1 6.7-2.9 9-3.9-7.2-16.6-1.8-4.1-15.9 6.9Zm129-138.2 3.8 8.6 20.9-7.5 3.5 7.9 9.7-3.9-11.6-16.2-1.5-.7-10.9 6.4-13.9 5.4Zm-574.6-66.7 5.2 16 21.7-7-5.2-16.1-21.7 7.1Z"/>
    <path fill="#DEAA79" fill-rule="nonzero" d="m1496.1 968 25.3 19.2 5.7-10.6-24.3-19.4-6.7 10.8Zm-421.8-4.7.9 6.1 1.7 11.5 21.3-3.1-2.6-17.6-21.3 3.1Zm597.9 280.2 11.8 26.1 1.9-.7 10.7-3.8-13.4-27.6-11 6Zm-1432-52.6 15.2-19.2 12 9.6-15.1 19.2-12.2-9.6Zm1469.6 76.1 2.5 9.7 9.4-2.8.5 1.7 18.2-4.4-2.3-4.8-1.8-3.9-1.8-3.4-1.5-3.5-15.4 5.6 1 2.8-8.8 3Zm-83.7-266.1 10.3 14.6 3.2 3.5 12.2-9.7-14-19.6-11.7 11.2Zm114.9 213.5 10 15.3 9.1 12.5 9-5.1-18.6-28.6-9.5 5.9Zm-205 28.4 3.1 4.1 2.8 3.8 4.5 6.1 19.7-13.8-8.5-10.9-21.6 10.7Zm154.5-308 7.4 13.1 19.2-11.4 2.1-.8-7.1-13.2-8.5 4.6-7.3 3.9-5.8 3.8Zm-282.2 217.3 7.4.4 18.1.3 2.9-11.4-23.5-6.7-4.9 17.4Zm-153.9 95.3 7.2 14.5 6.9-3.5 13.5-6.7-7.2-14.5-20.4 10.2Zm53.4-334.7 4.1 16.7 3.5-.8 17.2-4.3-4.1-16.7-20.7 5.1Zm449.3 364.5 8.3 21.7 17.2-6.2-5.1-12.5-5.4 2.3-3.2-9.8-11.8 4.5Zm-835.5-32.7 5.6 19 17.6-5.2-5.5-19-17.7 5.2Zm561.4 52.8 12.4 13.4 46.6 35.6 2.8-4.9-34.4-24.5-24.1-21.6-3.3 2Zm408.5-555 1 2.3 7.7 18.6 14.7-6.1-5.9-14.1-1.8-4.5-1-2.3-14.7 6.1Zm-119.9 340.9 6.8 11.3 24.5-13.7-3.8-6.9-4.7 2.5-3-5.7-19.8 12.5Zm-321.2-40.9 27 14.8 5.1-9.6-25.7-16-6.4 10.8Zm217.3 27.4 15.6 22.8 11.5-6.8-17.5-23.1-2.1 1.5-7.5 5.6Zm-13.3 181.5 9.7 29.2 12.8-4.2-1.7-3.6-11.9-24.7-8.9 3.3Zm6.1 76.5.5 6.8 2 19.7 12.9-2.8-.9-18.7-.3-6.7-2.2.3-12 1.4Zm-162.6-404.1 19.4 15.8 8.9-11-19.4-15.8-8.9 11Z"/>
    <path fill="#DEAA79" fill-rule="nonzero" d="m1456.8 1031.5 25.7 16 6.1-9.7-25.6-16.3-6.2 10Zm-226.6 329.6 12.2 29.5 9.5-3.6-1-5.1-4.8-10.1-5.8-14.8-10.1 4.1ZM1872.1 869l3 10.3 30.8-9-3-10.3-30.8 9Zm-184.9 166.5 11.5 6.5 8-2.7 12.2-7.9-8.8-11.6-22.9 15.7Zm94.6 17.1 9.6 18.1 14-8.8-2-4.1-6.5-13.6-15.1 8.4Zm-633.9-15.3 12.5 21.8 5.9-3.4-3.1-5.5 8.6-4.9-7.7-13.5-5.5 3.1-1.6-2.8-9.1 5.2Zm18.6 33.1 12.4 21.8 5.9-3.4-3.1-5.5 8.6-4.9-7.7-13.6-5.5 3.2-1.5-2.8-9.1 5.2Zm602.4-268.5 2.1 6.7 1.8 6 24.3-7.5-4-12.7-21.6 6.7-2.6.8Zm-953.6 296.9 16.8-5.8 6.2 17.7-16.9 5.8-6.1-17.7ZM1606 1307l26.3.3.1-1.1v-11.6l-26.3-.3-.1 9.6v3.1Zm-20-31 10.4 5.9 10.3-8.8 6.6-8.3-7.6-8.9-9.7 8.1-10 12Zm-449.2 60.2 7.9 15.4 17.1-8.8-5.4-10.6-2.5-4.8-3.1 1.6-14 7.2Zm546.4-98.7 13.4 27.6 3-1.1 6.5-1.8-2.6-5.8-10.9-24.7-9.4 5.8Zm-266.7-21.6 3.9 13.4 8.7.7 10.9-6.4-5.3-15.2-14.3 5.8-3.9 1.7Zm5.9-113.4 26.9 9.1 5.5-9.8-28.6-10.3-3.8 11Zm-459.8 176.6 4.4 15.8 19.5-5.5-4.4-15.8-7.2 2.1-10.5 2.9-1.8.5Zm806.3-6.4 3.2 9.8 5.4-2.3 1.3-.3 22.5-9.3-3.7-9.9-25.4 10.6-3.3 1.4Zm-193.1 36.8 9.8 8.3 2 1 15.7-16.2-18.1-6.6-9.4 13.5Zm87.1-303.6 5.5 7.1 26.1-18.2-4.3-8.9-18.6 12.4-8.7 7.6Zm-30 252.5 8.2 27 1.1 3.9 9.6-2.4-9.1-31.3-9.8 2.8Zm192.9 58 14.1 13.2 11-12.1-12.1-13.6-13 12.5ZM1512 947.3l23.3 17.4 6.3-9.6-22.2-16.3-7.4 8.5Zm-215.5-14.1 2.4 9.5 1.6 6.6 18.8-4.6-3.9-16.1-3.5.8-15.4 3.8Zm332.6 255.1 6.1 10.2 23.1-13.3-7.1-10.4-22.1 13.5Zm-195.6-214.5 6.1 5.1 7.4-5.8 6.9-13-13.4-8.3-5.7 11.9-1.3 10.1Zm183.7 56.5 8.5 10.6 19.3-15.7-5.4-6.2-3.2-3.5-6.3 5.5-12.9 9.3Zm-181.9 41.3 30.3 11.7 3.6-8.5-29.6-12.8-4.3 9.6Zm398 269.3 3.7 4.8 23-13.7-9.1-14.5-11 12.1 2.1 1.9-8.7 9.4Zm-633.8-6.8 15.7-5.8 6.6 17.7-15.7 5.8-6.6-17.7Zm142.2 14 5.3 11 10.8-5.7 1.3 2.5 9.3-4.2-8-14.8-18.7 11.2ZM925.3 1285l4.2 14.7 19.5-5.7-4.3-14.7-19.4 5.7Z"/>
    <path fill="#DEAA79" fill-rule="nonzero" d="m1796.9 1044.2 6.5 13.6 4.6-2.7 2.7 5.1 9.5-4.3-8.9-19.7-14.4 8Zm-98.2-2.2 20.6 30.8 7.2-5.6-9.5-13.4-10.3-14.5-8 2.7Zm137.1 183.1 9.3 19.8 7.4-3.1 5.5-2.3-11.5-21.2-10.7 6.8Zm-143.2 6.6 10.9 24.7 10.3-5.2-5.8-12.6-5.3-11.9-10.1 5Zm-173.2-292.9 22.2 16.3 6.3-8.7-20-16.3-8.5 8.7Zm221 419.9 6.6 20.2 5.1-1.5.9 4.9 6-1.4-4.7-25-13.9 2.8Zm-442-95.5 10.6 19.2 12.3-5.7-10.6-19.2-12.3 5.7Zm-151.7 57.8 4.1 8 3.1-1.6 2.5 4.8 16.3-8.3-6.6-12.9-19.4 10Z"/>
    <path fill="#DEAA79" fill-rule="nonzero" d="m1702.7 1226.7 5.3 11.9 20.4-10.5-6-11.6-19.7 10.2Zm60.1-55.7 7.6 13.6 15.9-13.7-8.8-11.4-4.7 3.6-10 7.9Zm61.1 60.7 9.6 19.6 11.6-6.4-9.3-19.8-11.9 6.6Zm-944-72.7 4.8 15 19.1-6.1-3.7-11.5-6.4 2-1.1-3.5-12.7 4.1Zm669.1 36.7 4.3 8.4 24.5-12.1-5.8-10.5-23 14.2Zm354.9-56.9.2 3.4.1 3.1 28.8 3.1 1.2-9.9.3-2.1.1-1-30.7 3.4Zm-87.2 186.8 16.6 15.3 8.7-9.4-2.1-1.9-14.1-13.2-9.1 9.2Zm68.4-280.8 3.5 8.6 21.5-9-5.4-13.4-11.8 4.9 1.8 4.5-9.6 4.4Z"/>
    <path fill="#DEAA79" fill-rule="nonzero" d="m1813.5 1237.6 8.3 20.5 11.7-6.8-9.6-19.6-10.4 5.9Zm-484.7-74.6 16 19.4 6.5-2.9 3.1-1.4-10.7-18.2-14.9 3.1Zm56.8 181 10.8-8.5 12.5 15.7-10.8 8.6-12.5-15.8Zm467.8 32.1 5 6.6 21.9-14.5-5.4-10-15.4 11.6-6.1 6.3ZM1445.5 1051l29.7 13.4 2.2-7.3-27-14.8-4.9 8.7Zm-36.7 111.7 2.7 11.9 23.3-3.5.3-10.1-26.3 1.7Zm274.6-282.3 9.9 21.2 9.4-5.1-6.7-21-12.6 4.9Zm-205.8 214.8 3.6 2.3 13.7 4.1 4.8-14.2-15-6.1-7.1 13.9Zm299.9 64.3 8.8 11.4 15.6-9.7-4.9-11.9-19.5 10.2Zm-114.2 88.4 11.9 24.7 3-1.2 2.5-.6 3.3-1.2-11.8-26.1-8.9 4.4ZM1311 956.3l.1 10.8 24.8-.3-.1-10.7-24.8.2Zm103.3 236.9 2 13.1 21.8-6.1-2.2-10.6-21.6 3.6Zm459.4-116.5 2 2.5 8.1 12.6 11.4-5-6.2-16.8-15.3 6.7Zm-606.5 296.9 6.3 13.6 3.6-1.9 12.1-5.2-3-6.5-3.1-7.3-15.9 7.3Zm439.5-334.3 10.3 14.5 11.9-8.6-10-13.8-12.2 7.9Zm-478.2 278.2 6.2 15.1 14.3-5.9-6.2-15-14.3 5.8Zm617.3 31.9 5.4 12.2 1.3-1 15.9-12-4.8-9.5-17.8 10.3Zm-419.6-257.9 28.6 10.3 4.3-7.1-29.4-10.4-3.5 7.2Z"/>
    <path fill="#DEAA79" fill-rule="nonzero" d="m1408.3 1152.1.5 10.6 26.3-1.7-1.3-8.2-18.1-.3-7.4-.4Zm197.6 68.3.8 1.5 8.4 14.1 11.4-14.1-6-6.2-1.4-1.5-1.4-1.4-11.8 7.6Zm111.1-166.6 9.5 13.4 12-9.5-9.6-12.5-11.9 8.6Zm-304.5 127.8 1.8 11.6 21.6-3.6-1.2-10-22.2 2Zm378.9-110.9 3 5.7 4.7-2.5 3.8 6.9 10.3-4.9-2.6-4.6 2.6-1-5.3-10.1-2.5 1.7-14 8.8Zm-53.5 166.2 7.1 12.1 9.2-3 5.9-3.8-9.1-12.5-13.1 7.2Zm-469.4 21.5 6.1 12.2 11.7-5.8 3.9-2-6.1-12.2-2.1 1.1-13.5 6.7ZM504 1157.6l6.4 16.6 7.5-1.7 4.7-8.2-2.9-9.3-15.7 2.6Zm-34.6 7.2 6.4 16.6 7.5-1.7 4.7-8.2-2.9-9.3-15.7 2.6Zm17.9-2.1 6.4 16.6 7.6-1.7 4.6-8.2-2.9-9.3-15.7 2.6Zm412.5 42.8 13.6-3.8 4.5 16-13.6 3.8-4.5-16Zm925.1-154.4 4.4 9.3 18.7-8.8 1.8-.8-5.1-9.4-19.8 9.7Zm-143.3 239.6 1.5 14.6 15.7-.9-3.4-16.3-13.8 2.6Zm-107.3-169.9 9.8 13.6 9.3-5.6-1.1-8.1-4.5-7.5-13.5 7.6Zm278.2 239.8 1.1 2.5 5.9 6.7 15.4-11.6-6.5-9.6-15.9 12Zm-607.1-318.2 8.3 15 11.7-6.4-8.2-15.1-11.8 6.5Zm282.5-112.3 20 16.3 5.2-7.1-18.2-15.5-7 6.3Zm-51.7 185.2 6 2.5 1.1 1.3 9.3-12.8 2.3-4.7-13.7-4.1-5 17.8Zm-620.8 100.8 14.2-4.6 4.6 14.1-14.3 4.6-4.5-14Z"/>
    <path fill="#DEAA79" fill-rule="nonzero" d="m1725.3 1236.1 8.1 16.2 5.9-1.5 5.7-1.8-7.1-12.1-3.4-5.8-9.2 5Zm-1480.4-85 9-11 11.9 9.9-9.1 10.9-11.8-9.9Zm609.8-27 5.8 17.1 11.2-3.8-5.8-17.1-11.2 3.8Zm1053.9 233 11.9 26.4 7-3.6-12.3-25.4-6.6 2.6Zm-398-534.3 8.8 16.4 10.2-5.5-8.8-16.4-10.2 5.5Zm114.5 438.1.6 1.7 7.5 21.8.8 2.9 7.1-1.9-8.2-27-7.8 2.5Zm49.9 71.8.9 18.7 11.6-1.4-1.2-18.5-11.3 1.2Zm-92.2-197.5 8.3 15.3 10.2-4.7-7.9-17-9.3 5.6-1.3.8Zm155.7-56.6 8.6 15.9 9.4-8.9-5.6-13.3-12.4 6.3Zm-280.7 75.5 13.6.4.3-13.1.1-2.6-13.6-.3-.4 15.6Zm45-99.1 8.6 4.1 10.2-16.1.2-2.9-8.6-3-10.4 17.9Zm334.2 290.7 3.2 6.9 5.6-3.2 17.8-10.3-3.6-7.1-23 13.7Zm-760.7-250 13-7.5 7 12-13 7.5-7-12ZM1535 923.9l18.2 15.5 6-7-18-14.5-6.2 6Zm186.3 356.7 4 16.9 11.9-4.8-3.5-14.9-12.4 2.8Z"/>
    <path fill="#DEAA79" fill-rule="nonzero" d="m1915.2 1354.5 12.3 25.4 7-3.6-12.5-24.1-6.8 2.3Zm-410-127.9 11-7.5 8.8 13-10.8 7.4-9-12.9Zm-1002.5-19.4 2.6 13.8 14.5-3.7-2.4-10.8-5.9-2.4-8.8 3.1Zm-15.5 7.3 2.6 13.8 14.6-3.8-2.4-10.8-5.9-2.3-8.9 3.1Zm32.2-13.2 2.6 13.8 14.5-3.7-2.4-10.8-5.9-2.4-8.8 3.1Zm1318.2-38.1 1.2 11.1.1.5 16.4.1-.2-12.4-17.5.7Zm-1302.3 32.1 2.6 13.8 14.5-3.8-2.4-10.7-5.9-2.4-8.8 3.1Zm1146.9-373.9 13.8-8.4 6.5 10.8-13.8 8.4-6.5-10.8Zm12.9 465.1.3 1.6 3.4 16.3 10.2-2.3-3.1-18.4-10.8 2.8Zm-281.1-78.9 2.5 8.3 3.9-1.7 14.3-5.8 5.2-1.5-1.8-6.7-21.8 6.1-2.3 1.3Zm-167.9 164.2 4.8 10.1 16.3-8.3-5.2-9.3-15.9 7.5Zm469.1-235.3 5.3 6.4 19.2-11.8-3.4-5-7.1 1.9-3.8.3-10.2 8.2ZM1442.8 1244l8.6 15.4 6.8-2.3 3.7-3.7-8.8-12.9-9.7 3.9-.6-.4Zm233.5-359.1 9.2 20 2.7-1 5.1-2.3-9.9-21.2-7.1 4.5ZM216 1192.5l7.3-.5 1.7 25.6-7.3.5-1.7-25.6Zm1652.5-125 5.2 9.2 15.3-6.7-4.5-10.2-16 7.7Zm-276.2 53.2 1.1 8.1 7.9 17 7.6-4.7-13.5-22.2-3.1 1.8Zm161.5-367.8 3.6 11.8 14.1-4.3-3.6-11.9-14.1 4.4Zm-816.4 319 3.6 9 17.6-7-3.6-8.9-17.6 6.9Zm547.1 6.5 16.8 7.1 4.6-7.8-2.9-1.6-13.2-7.2-5.3 9.5Zm-96.2 41.4 2.5-11.7 14.9 3.3-2.6 11.6-14.8-3.2Zm538.8 230.5 12.9 23.3 6.2-3.2-12.6-22.3-6.5 2.2Zm-63.7-289.9.9 1.9 2.8 5.8 1.4-.6 16-7.7-1.8-3.9 3.4-1.5-2-3.6-20.7 9.6Zm-451.9 114.2 1 7 22.2-2 .1-8.5-23.3 3.5Zm-574.3-81.5 15.7-6.1 3.8 9.8-15.8 6-3.7-9.7Zm103.2-9.1 4.3 12.8 12.4-4.2-4.3-12.8-12.4 4.2Zm-62.6-36 4.1 9.4 15.4-6.6-4.1-9.5-15.4 6.7Zm385.7 158.7 12-5.5 5.4 11.9-11.9 5.5-5.5-11.9Zm295.2 67.7 16 6.5 4.8-7.1-14.7-8.7-6.1 9.3Zm-77.9-147.3 1.3 13.6 12.2-.9-1.1-13.4-12.4.7Zm-50.5-117.4 6.3-11 11.4 6.6-6.4 11-11.3-6.6Zm214.2 285.1.5 13 6.9.1 5.8.2-1.1-13.9-12.1.6Zm67.6-372.3 7.1 13.2 9.7-5.6-7.1-12.2-9.7 4.6Z"/>
    <path fill="#DEAA79" fill-rule="nonzero" d="m1632.3 1307.3 12.7.5-.5-13-12.1-.2-.1 12.7Zm-288.8-113.5 6.5 10.1 11.1-5.9-6.2-11-11.4 6.8Zm345.9-437.9 3.4 10.1 13.9-4.7-3.3-10-14 4.6Zm232.6 596.3 12.5 24.1 5.5-2.7-12.9-23.3-5.1 1.9Zm-216.1-68.5 3.1 18.4 8.4-2.2-3.7-18-7.8 1.8Zm97-202.9 4.6 7.5 15.5-8.2-3.2-7.2-6.6 3-10.3 4.9Zm-1278.8 87.8 12.5-4.1-.3-11.9-11.6 2.9-.6 13.1Zm1461.6-267.3 16.3-5.3 2.7 8.4-16.3 5.2-2.7-8.3ZM1146.5 1365l4.3 9.8 12.8-5.7-4.3-9.8-12.8 5.7Zm-177.2-163.2 2.9 10 13.6-4-2.9-10-13.6 4Zm427.7-35.5 1.1 9.7 3.6-.4 9.8-1-2.7-11.9-8.8.8.2 2.4-3.2.4Zm269.5-336.5 5.9 9.6 10.9-6.6-5.8-9.7-11 6.7Zm5.2 462.8 1.7 13.9 9.7-1.2-1.5-14.6-9.9 1.9Zm-130.6 55.8v3.1l.9 2.2 1.4 1.5 2 1.1 2.7.4 2.3-.5 2.7-2.2 1.1-2.1.3-2-.4-2.3-1.4-2.2-1.8-1.5-2.1-.7-2.4.1-2.3.9-2.1 2.1-.9 2.1Z"/>
    <path fill="#DEAA79" fill-rule="nonzero" d="m1713.7 1281.9 3.7 18 7.8-2.5-4-16.9-7.5 1.4Zm-229.8-420.1 8.1 9.2 8.6-7.6-8.1-9.2-8.6 7.6Zm135.9 402.9 7.7 20.7 5.7-1-7.5-21.8-5.9 2.1Zm-234.6 107.6 4.8 8.1 12.2-7.2-4.8-8.1-3.3 1.9-8.9 5.3Zm317.4-449.8 1 4.6 8.5-4.6 9.7-4.6-4.7-6.3-9.3 4.7-5.2 6.2Zm-85.8 424 4.7 16.6 6.1-3.3-2.2-16.1-8.6 2.8Zm-279-160.8 5.7 8.1 11.4-6.8-3.6-7.5-6.5 2.9-7 3.3Zm129.2-63.1 10.9 5.1 4.3-9.9-6-2.5-5.4-2.1-3.8 9.4Zm-210.2 65.8 11.5-4.7 3.9 9.3-11.6 4.8-3.8-9.4Zm407.7 105.4 1.2 13.8.3 2.4 5.7-.4 2.1-.1-.4-3-1.7-13.9-7.2 1.2Zm-383.5 41.6 10.3-4.6 4.4 9.5-10.3 4.7-4.4-9.6Zm129.7-444.9 2.5 9.7 11.1-2.8-2.5-9.7-11.1 2.8Zm-277.3 389.6 5.4-8.5 9.5 6-5.5 8.6-9.4-6.1ZM1458 896.4l8-9.3 6.8 5.8-8 9.4-6.8-5.9ZM961.1 1269l3.3 9.6 10.5-2.9-3.3-9.5-10.5 2.8Zm695.5 25.2 1.1 13.9 8-.5-1.2-13.8-7.9.4Zm-502.6-.4 7.8 11.9 6.4-4.2-7.7-11.9-6.5 4.2Zm-239.4-256.3 10.8-4.3 3.4 8.5-10.9 4.3-3.3-8.5Zm560.8-87.2 6.8 5.5 7.1-9-6.9-5.4-7 8.9Zm-641.6 81 3.6 11.7 7.7-2.4-3.7-11.7-7.6 2.4Zm844.4 240.1 1.9 10.4 8.3-2.1-2.5-10.8-1.9.7-3.3 1.2-2.5.6Zm-418.5-183.8 10.5-5.7 3.3 6.3-10.4 5.6-3.4-6.2Zm121.5 12.7 3-8.5 8 2.9-3 8.5-8-2.9Zm198.2 36.9 7.4 15.7 4.3-2.4-8.3-15.3-3.4 2Zm-50.2 115.3 2.5 4 1.9-1 3.2-1.9 5.1-2.9-2.8-3.8-8.3 5-1.6.6Zm-116.1-210.4 7.1 4.2 2.6-4.5-7.1-4.1-2.6 4.4Zm-194.3-236.6 3.1 6.4 4.9-2.5-3.1-6.3-4.9 2.4Zm-139.7 568.7 29.8-12.8 13 30.5-29.8 12.7-13-30.4Z"/>
    <path stroke="#FFF" stroke-linecap="round" stroke-linejoin="round" d="m1748 914.8 58 119.1m-2.5 274.7s2.1-4 1.8-8.8l-.9-14.5s-.2-8.2 5.7-11.4c5.9-3.2 82.2-42.9 82.2-42.9s32-22.3 42.7-52.3c10.7-30 9.7-61.9 4.2-80.4-5.4-18.5-45.9-106.8-45.9-106.8"/>
    <path stroke="#FFF" stroke-linecap="round" stroke-linejoin="round" d="m1755 1058.6-4.5 4s54.5 91.2 58.1 97.5c3.6 6.3 13.2 8.7 13.2 8.7s50.1 7 60.9 8c10.8 1 14.2 4.4 14.2 4.4l24.8 21.5m-259.3-87.9 88.1-52.2m-88.1 52.2-75.6 47.3m16.9-153.3s-35.8 36.3-50.6 66a507.6 507.6 0 0 0-20.6 45.5"/>
    <path fill="#DEAA79" fill-rule="nonzero" d="M1471.8 1124.8v14l-.4 15.7v6.5l51.2-1.1-.8-35.1z"/>
    <path fill="#B1AFFF" fill-rule="nonzero" d="m-25.3 736.1 703.2-83.9 814.7-60.6 592.6-149.8v-508L-25.3-19.9z"/>
    <path stroke="#FFF" stroke-linecap="round" stroke-linejoin="round" stroke-width="5" d="m1476.4 682.7 149.5 296-22.2 30.1s-8.8 10.9-1.2 22.1c7.6 11.2 156.5 216.9 156.5 216.9s8.7 12.5 9.9 18.6c1.5 8.2 34.8 166 34.8 166"/>
    <g transform="translate(982.6 825)">
      <use xlink:href="#a" fill="#FFF"/>
      <circle cx="70" cy="70" r="67.5" stroke="#000" stroke-width="5"/>
    </g>
    <path fill="#000" d="m1030.6 923.4-27.3-61.2 12.1-3.7 17.8 41.8-9-44.5 12-3.7 11.7 66zm15.4 3.6 28.7-60.2 21.1 7.7-16.7 64.5-11.9-4.3 2.9-10.4-7.6-2.7-4.4 9.8-12.1-4.4Zm21-15 5.7 2 8.8-32.7-.6-.3-13.8 31Z"/>
  </g>
</svg>
