<svg xmlns="http://www.w3.org/2000/svg" viewBox="0 0 900 450">
  <g fill="none" fill-rule="evenodd">
    <path fill="#FFBD59" d="M-85-390H982v847H-85z"/>
    <path fill="red" d="M427.662 376.113a130.946 130.946 0 0 1-6.929-1.376l158.214-158.213a131.9 131.9 0 0 1 1.362 6.942L427.662 376.113Zm7.283 1.036L581.33 230.764c.283 2.536.495 5.093.633 7.67L442.602 377.798c-2.573-.143-5.126-.36-7.657-.648Zm-55.326-19.487a132.321 132.321 0 0 1-4.99-3.315l184.043-184.042a132.58 132.58 0 0 1 3.3 5.004L379.62 357.662Zm5.198 3.12 180.263-180.26a132.092 132.092 0 0 1 2.895 5.41L390.213 363.69a131.73 131.73 0 0 1-5.396-2.908Zm22.946 10.302 167.56-167.56a131.473 131.473 0 0 1 1.951 6.353L414.102 373.05a130.911 130.911 0 0 1-6.34-1.966Zm-6.091-2.228a131.18 131.18 0 0 1-5.839-2.466l174.825-174.824a131.65 131.65 0 0 1 2.451 5.853L401.672 368.856Zm-36.455-21.72L551.49 160.863a132.937 132.937 0 0 1 3.683 4.622L369.825 350.833a132.791 132.791 0 0 1-4.608-3.697Zm-4.43-3.889a133.045 133.045 0 0 1-4.238-4.067l187.014-187.013a133.074 133.074 0 0 1 4.052 4.252L360.787 343.247Zm-21.77-169.392 39.537-39.536a131.695 131.695 0 0 1 18.064-9.76l-67.376 67.375a132.122 132.122 0 0 1 9.775-18.08Zm13.471 161.068a133.039 133.039 0 0 1-3.87-4.434L534.9 144.207a132.95 132.95 0 0 1 4.42 3.884L352.487 334.923Zm151.105 31.753a131.043 131.043 0 0 1-13.41 5.104l85.693-85.692a131.555 131.555 0 0 1-5.12 13.424l-67.163 67.164Zm18.19-9.871a132.949 132.949 0 0 0 39.088-39.088l-39.088 39.088Zm-189.665-51.382c-.937-1.85-1.83-3.725-2.682-5.623l174.86-174.86a131.44 131.44 0 0 1 5.61 2.695L332.118 305.423Zm2.902 5.417 180.288-180.29a132.336 132.336 0 0 1 5.187 3.118L338.123 316.041a132.348 132.348 0 0 1-3.103-5.201Zm-16.915-57.898a134.712 134.712 0 0 1-.195-8.11l131.534-131.534h.588c2.52 0 5.023.07 7.508.21L318.105 252.941Zm.639 7.68L465.206 114.16c2.443.28 4.865.627 7.266 1.038L319.767 267.903a132.477 132.477 0 0 1-1.023-7.281ZM468.64 376.7l112.183-112.184a132.02 132.02 0 0 1-1.855 10.16L478.786 374.859a131.4 131.4 0 0 1-10.145 1.84Zm-9.298.979c-2.852.199-5.728.307-8.626.322l131.436-131.437c-.02 2.903-.132 5.784-.336 8.64L459.343 377.68Zm-134.578-89.831 167.608-167.609c2.05.694 4.075 1.437 6.078 2.227L326.978 293.94a131.511 131.511 0 0 1-2.213-6.091Zm-1.957-6.362a131.74 131.74 0 0 1-1.673-6.632L479.409 116.58a130.98 130.98 0 0 1 6.617 1.688L322.808 281.486Zm22.119 44.374a132.783 132.783 0 0 1-3.496-4.808l184.06-184.06a132.581 132.581 0 0 1 4.795 3.51L344.927 325.86Zm-25.703-98.965 112.311-112.311c3.06-.43 6.152-.754 9.274-.97l-122.567 122.57c.22-3.127.55-6.225.983-9.288Zm1.848-10.167a131.536 131.536 0 0 1 3.072-11.376l85.877-85.878a130.953 130.953 0 0 1 11.362-3.057l-100.31 100.311Z"/>
    <path fill="#7ED957" d="m396 346 193-146-75 223-26.702-.641z"/>
    <path fill="#1C0B47" d="M737 366 589 200l-83 238z"/>
    <path fill="red" d="M66 448 196 77l-301 224 3 130z"/>
    <path fill="#1C0B47" d="M66 448 196 77l339 369-388 80z"/>
    <path fill="#FF00B0" d="m450 786 62-365-737 381z"/>
    <path fill="#7ED957" d="M950 825 484 713l28-292 459-77z"/>
    <path fill="#FF00B0" d="M790 180 511.9 421l206.957-33.198z"/>
    <path fill="#1C0B47" d="m790 180 182 164-253.143 43.802z"/>
    <path fill="#FFBD59" d="m267 846 245-425 165 398z"/>
    <path fill="#00C2CB" d="m-31 359 543 62-543 313z"/>
  </g>
</svg>
