<svg xmlns="http://www.w3.org/2000/svg" viewBox="0 0 628 135" preserveAspectRatio="xMidYMin">
  <path fill-rule="evenodd" d="M31.18 60.69 36.99.56h20.37l5.74 60.13H51.69l-.84-9.73h-7.28l-.7 9.73H31.18Zm13.3-19.32h5.46l-2.66-30.59h-.56l-2.24 30.59Zm20.65 19.32L70.94.56h20.37l5.74 60.13H85.64l-.84-9.73h-7.28l-.7 9.73H65.13Zm13.3-19.32h5.46l-2.66-30.59h-.56l-2.24 30.59ZM100.69.56h18.48c2.94 0 5.215.665 6.825 1.995 1.61 1.33 2.695 3.197 3.255 5.6.56 2.403.84 5.472.84 9.205 0 3.407-.443 6.067-1.33 7.98-.887 1.913-2.427 3.243-4.62 3.99 1.82.373 3.138 1.283 3.955 2.73.817 1.447 1.225 3.407 1.225 5.88l-.14 22.75h-11.76V37.17c0-1.68-.327-2.753-.98-3.22-.653-.467-1.843-.7-3.57-.7v27.44h-12.18V.56Zm15.12 22.26c1.68 0 2.52-1.82 2.52-5.46 0-1.587-.07-2.777-.21-3.57-.14-.793-.397-1.342-.77-1.645-.373-.303-.91-.455-1.61-.455h-2.8v11.13h2.87Zm16.66 37.87L138.28.56h20.37l5.74 60.13h-11.41l-.84-9.73h-7.28l-.7 9.73h-11.69Zm13.3-19.32h5.46l-2.66-30.59h-.56l-2.24 30.59Zm36.19 19.88c-4.947 0-8.622-1.4-11.025-4.2-2.403-2.8-3.605-6.953-3.605-12.46V.56h11.69V44.1c0 1.913.187 3.407.56 4.48.373 1.073 1.167 1.61 2.38 1.61 1.213 0 2.007-.525 2.38-1.575.373-1.05.56-2.555.56-4.515V.56h11.69v44.03c0 5.507-1.202 9.66-3.605 12.46-2.403 2.8-6.078 4.2-11.025 4.2Zm20.58 7.49 2.24-8.05h-4.34V50.47h12.74v9.87l-3.43 8.4h-7.21Zm31.57-8.05V.56h24.08v11.69h-11.97v9.59h11.34v11.55h-11.34v27.3h-12.11Zm27.93 0V.56h12.04v49.91h12.39v10.22h-24.43Zm42.14.56c-4.853 0-8.54-1.482-11.06-4.445-2.52-2.963-3.78-7.128-3.78-12.495V15.68c0-5.18 1.26-9.088 3.78-11.725C295.64 1.318 299.327 0 304.18 0c4.853 0 8.54 1.318 11.06 3.955 2.52 2.637 3.78 6.545 3.78 11.725v28.63c0 5.413-1.26 9.59-3.78 12.53-2.52 2.94-6.207 4.41-11.06 4.41Zm0-11.06c1.073 0 1.797-.467 2.17-1.4.373-.933.56-2.24.56-3.92v-29.4c0-1.307-.175-2.368-.525-3.185-.35-.817-1.062-1.225-2.135-1.225-2.007 0-3.01 1.517-3.01 4.55v29.33c0 1.727.21 3.033.63 3.92.42.887 1.19 1.33 2.31 1.33Zm19.67 10.5V.56h24.08v11.62H336.1v11.69h11.34v11.34H336.1V49h12.6v11.69h-24.85Zm43.12.56c-5.46 0-9.403-1.353-11.83-4.06-2.427-2.707-3.64-7.07-3.64-13.09v-5.88h11.83v7.49c0 2.987.957 4.48 2.87 4.48 1.073 0 1.82-.315 2.24-.945.42-.63.63-1.692.63-3.185 0-1.96-.233-3.582-.7-4.865-.467-1.283-1.062-2.357-1.785-3.22-.723-.863-2.018-2.205-3.885-4.025l-5.18-5.18c-4.013-3.92-6.02-8.26-6.02-13.02 0-5.133 1.178-9.042 3.535-11.725S360.833 0 365.36 0c5.413 0 9.31 1.435 11.69 4.305 2.38 2.87 3.57 7.362 3.57 13.475h-12.25l-.07-4.13c0-.793-.222-1.423-.665-1.89-.443-.467-1.062-.7-1.855-.7-.933 0-1.633.257-2.1.77-.467.513-.7 1.213-.7 2.1 0 1.96 1.12 3.99 3.36 6.09l7 6.72c1.633 1.587 2.987 3.092 4.06 4.515 1.073 1.423 1.937 3.103 2.59 5.04.653 1.937.98 4.235.98 6.895 0 5.927-1.085 10.418-3.255 13.475-2.17 3.057-5.752 4.585-10.745 4.585Zm32.27 0c-5.46 0-9.403-1.353-11.83-4.06-2.427-2.707-3.64-7.07-3.64-13.09v-5.88h11.83v7.49c0 2.987.957 4.48 2.87 4.48 1.073 0 1.82-.315 2.24-.945.42-.63.63-1.692.63-3.185 0-1.96-.233-3.582-.7-4.865-.467-1.283-1.062-2.357-1.785-3.22-.723-.863-2.018-2.205-3.885-4.025l-5.18-5.18c-4.013-3.92-6.02-8.26-6.02-13.02 0-5.133 1.178-9.042 3.535-11.725S393.103 0 397.63 0c5.413 0 9.31 1.435 11.69 4.305 2.38 2.87 3.57 7.362 3.57 13.475h-12.25l-.07-4.13c0-.793-.222-1.423-.665-1.89-.443-.467-1.062-.7-1.855-.7-.933 0-1.633.257-2.1.77-.467.513-.7 1.213-.7 2.1 0 1.96 1.12 3.99 3.36 6.09l7 6.72c1.633 1.587 2.987 3.092 4.06 4.515 1.073 1.423 1.937 3.103 2.59 5.04.653 1.937.98 4.235.98 6.895 0 5.927-1.085 10.418-3.255 13.475-2.17 3.057-5.752 4.585-10.745 4.585Zm17.99-.56V.56h24.08v11.62h-11.83v11.69h11.34v11.34h-11.34V49h12.6v11.69h-24.85ZM446.07.56h18.48c2.94 0 5.215.665 6.825 1.995 1.61 1.33 2.695 3.197 3.255 5.6.56 2.403.84 5.472.84 9.205 0 3.407-.443 6.067-1.33 7.98-.887 1.913-2.427 3.243-4.62 3.99 1.82.373 3.138 1.283 3.955 2.73.817 1.447 1.225 3.407 1.225 5.88l-.14 22.75H462.8V37.17c0-1.68-.327-2.753-.98-3.22-.653-.467-1.843-.7-3.57-.7v27.44h-12.18V.56Zm15.12 22.26c1.68 0 2.52-1.82 2.52-5.46 0-1.587-.07-2.777-.21-3.57-.14-.793-.397-1.342-.77-1.645-.373-.303-.91-.455-1.61-.455h-2.8v11.13h2.87ZM479.46.56h15.89c4.807 0 8.237 1.552 10.29 4.655 2.053 3.103 3.08 7.642 3.08 13.615s-.91 10.477-2.73 13.51c-1.82 3.033-5.087 4.55-9.8 4.55h-4.9v23.8h-11.83V.56Zm12.53 25.48c1.447 0 2.508-.268 3.185-.805s1.12-1.307 1.33-2.31c.21-1.003.315-2.438.315-4.305 0-2.52-.28-4.34-.84-5.46-.56-1.12-1.68-1.68-3.36-1.68h-1.33v14.56h.7Zm20.51 34.65V.56h12.04v49.91h12.39v10.22H512.5Zm26.18 0L544.49.56h20.37l5.74 60.13h-11.41l-.84-9.73h-7.28l-.7 9.73h-11.69Zm13.3-19.32h5.46l-2.66-30.59h-.56l-2.24 30.59Zm27.44 19.32V12.11h-7.14V.56h26.32v11.55h-7.14v48.58h-12.04Zm21 0V49.77l13.72-38.15h-12.39V.56h25.13v10.5l-14.07 38.57h13.44v11.06h-25.83Zm-294.14 74.7c-5.273 0-9.123-1.388-11.55-4.165-2.427-2.777-3.64-7.012-3.64-12.705v-6.3h12.32v6.3c0 1.82.233 3.232.7 4.235.467 1.003 1.4 1.505 2.8 1.505.98 0 1.692-.35 2.135-1.05.443-.7.712-1.528.805-2.485.093-.957.14-2.345.14-4.165v-1.47c0-5.18-1.703-7.77-5.11-7.77-.607 0-1.003.023-1.19.07V96.61c2.147 0 3.757-.478 4.83-1.435 1.073-.957 1.61-2.485 1.61-4.585 0-3.407-.98-5.11-2.94-5.11-1.213 0-1.995.303-2.345.91-.35.607-.583 1.377-.7 2.31-.117.933-.198 1.61-.245 2.03v1.82h-12.46l-.07-2.1c.047-5.507 1.353-9.555 3.92-12.145s6.51-3.885 11.83-3.885c10.22 0 15.33 5.343 15.33 16.03 0 3.127-.42 5.612-1.26 7.455-.84 1.843-2.287 3.138-4.34 3.885 1.68.84 2.928 1.878 3.745 3.115.817 1.237 1.353 2.742 1.61 4.515.257 1.773.385 4.153.385 7.14 0 6.207-1.295 10.897-3.885 14.07s-6.732 4.76-12.425 4.76Zm19.95-.7v-10.22h12.25v10.22h-12.25Zm46.55.56c-2.753 0-5.25-.537-7.49-1.61s-4.002-2.648-5.285-4.725c-1.283-2.077-1.925-4.585-1.925-7.525v-15.05h11.83v14.35c0 1.073.222 1.925.665 2.555.443.63 1.132.945 2.065.945.887 0 1.552-.292 1.995-.875.443-.583.665-1.412.665-2.485V74.56h12.11v45.08c0 3.127-.618 5.868-1.855 8.225-1.237 2.357-2.963 4.177-5.18 5.46-2.217 1.283-4.748 1.925-7.595 1.925Zm33.18 0c-4.947 0-8.622-1.4-11.025-4.2-2.403-2.8-3.605-6.953-3.605-12.46V74.56h11.69v43.54c0 1.913.187 3.407.56 4.48.373 1.073 1.167 1.61 2.38 1.61 1.213 0 2.007-.525 2.38-1.575.373-1.05.56-2.555.56-4.515V74.56h11.69v44.03c0 5.507-1.202 9.66-3.605 12.46-2.403 2.8-6.078 4.2-11.025 4.2Zm19.25-.56V74.56h12.39l5.53 28.77V74.56h11.62v60.13h-11.76l-6.02-30.1v30.1h-11.76Zm34.3 0V74.56h11.62v60.13h-11.62Zm32.27-2.87c0-2.753.432-5.297 1.295-7.63s1.925-4.433 3.185-6.3 2.917-4.06 4.97-6.58c2.1-2.613 3.768-4.83 5.005-6.65 1.237-1.82 2.287-3.908 3.15-6.265.863-2.357 1.295-4.912 1.295-7.665 0-1.633-.233-2.905-.7-3.815-.467-.91-1.307-1.365-2.52-1.365-2.007 0-3.01 1.797-3.01 5.39v7.35h-12.67l-.14-3.71c0-4.573.467-8.33 1.4-11.27.933-2.94 2.567-5.18 4.9-6.72s5.553-2.31 9.66-2.31c5.04 0 8.937 1.412 11.69 4.235 2.753 2.823 4.13 6.825 4.13 12.005 0 3.313-.455 6.312-1.365 8.995-.91 2.683-2.03 5.028-3.36 7.035-1.33 2.007-3.092 4.363-5.285 7.07-1.587 1.913-2.905 3.617-3.955 5.11a43.035 43.035 0 0 0-2.835 4.62H523v11.34h-31.22v-2.87Zm49.77 3.43c-5.087 0-9.007-1.435-11.76-4.305-2.753-2.87-4.13-6.965-4.13-12.285V91.5c0-5.693 1.33-10.033 3.99-13.02s6.627-4.48 11.9-4.48c5.32 0 9.31 1.493 11.97 4.48s3.99 7.327 3.99 13.02v27.16c0 5.367-1.377 9.473-4.13 12.32-2.753 2.847-6.697 4.27-11.83 4.27Zm0-11.06c.887 0 1.61-.408 2.17-1.225.56-.817.84-1.785.84-2.905V90.38c0-1.727-.198-3.045-.595-3.955-.397-.91-1.202-1.365-2.415-1.365s-2.007.455-2.38 1.365c-.373.91-.56 2.228-.56 3.955v29.68c0 1.12.268 2.088.805 2.905.537.817 1.248 1.225 2.135 1.225Zm19.39 7.63c0-2.753.432-5.297 1.295-7.63s1.925-4.433 3.185-6.3 2.917-4.06 4.97-6.58c2.1-2.613 3.768-4.83 5.005-6.65 1.237-1.82 2.287-3.908 3.15-6.265.863-2.357 1.295-4.912 1.295-7.665 0-1.633-.233-2.905-.7-3.815-.467-.91-1.307-1.365-2.52-1.365-2.007 0-3.01 1.797-3.01 5.39v7.35h-12.67l-.14-3.71c0-4.573.467-8.33 1.4-11.27.933-2.94 2.567-5.18 4.9-6.72s5.553-2.31 9.66-2.31c5.04 0 8.937 1.412 11.69 4.235 2.753 2.823 4.13 6.825 4.13 12.005 0 3.313-.455 6.312-1.365 8.995-.91 2.683-2.03 5.028-3.36 7.035-1.33 2.007-3.092 4.363-5.285 7.07-1.587 1.913-2.905 3.617-3.955 5.11a43.035 43.035 0 0 0-2.835 4.62h16.38v11.34h-31.22v-2.87Zm49 3.57c-5.273 0-9.123-1.388-11.55-4.165-2.427-2.777-3.64-7.012-3.64-12.705v-6.3h12.32v6.3c0 1.82.233 3.232.7 4.235.467 1.003 1.4 1.505 2.8 1.505.98 0 1.692-.35 2.135-1.05.443-.7.712-1.528.805-2.485.093-.957.14-2.345.14-4.165v-1.47c0-5.18-1.703-7.77-5.11-7.77-.607 0-1.003.023-1.19.07V96.61c2.147 0 3.757-.478 4.83-1.435 1.073-.957 1.61-2.485 1.61-4.585 0-3.407-.98-5.11-2.94-5.11-1.213 0-1.995.303-2.345.91-.35.607-.583 1.377-.7 2.31-.117.933-.198 1.61-.245 2.03v1.82H595.1l-.07-2.1c.047-5.507 1.353-9.555 3.92-12.145s6.51-3.885 11.83-3.885c10.22 0 15.33 5.343 15.33 16.03 0 3.127-.42 5.612-1.26 7.455-.84 1.843-2.287 3.138-4.34 3.885 1.68.84 2.928 1.878 3.745 3.115.817 1.237 1.353 2.742 1.61 4.515.257 1.773.385 4.153.385 7.14 0 6.207-1.295 10.897-3.885 14.07s-6.732 4.76-12.425 4.76Z"/>
</svg>
