<svg xmlns="http://www.w3.org/2000/svg" id="Ebene_1" x="0" y="0" version="1.1" viewBox="0 0 392.1 219.1" xml:space="preserve">
  <path fill="#fff" d="M38.3 193.2L30.1 127h12.6l4.8 45 4.3-45h12.6l-8.2 66.2H38.3zM67.2 193.2l6.4-66.1H96l6.3 66.1H89.8l-.9-10.7h-8l-.8 10.7H67.2zM81.8 172h6l-2.9-33.6h-.6L81.8 172zM139.2 193.2h-20.3c-3.2 0-5.7-.7-7.5-2.2-1.8-1.5-3-3.5-3.6-6.2-.6-2.6-.9-6-.9-10.1 0-3.7.5-6.7 1.5-8.8 1-2.1 2.7-3.6 5.1-4.4-2-.4-3.5-1.4-4.3-3-.9-1.6-1.3-3.7-1.3-6.5l.2-25H121v26c0 1.8.4 3 1.1 3.5.7.5 2 .8 3.9.8v-30.2h13.4v66.1zm-16.6-24.5c-1.8 0-2.8 2-2.8 6 0 1.7.1 3.1.2 3.9.2.9.4 1.5.8 1.8.4.3 1 .5 1.8.5h3.1v-12.2h-3.1zM147 193.2v-66.1h12.8v66.1H147zM165.6 193.2l6.4-66.1h22.4l6.3 66.1h-12.5l-.9-10.7h-8l-.8 10.7h-12.9zm14.7-21.2h6l-2.9-33.6h-.6l-2.5 33.6zM207 193.2v-66.1h13.1v26.5l6.2-26.5h13.3l-7.4 30.2 8.9 35.9h-13.7l-7.2-32v32H207zM251.4 193.2v-53.4h-7.8v-12.7h28.9v12.7h-7.8v53.4h-13.3zM277.8 193.2v-66.1h12.8v66.1h-12.8zM301.8 188.9c-2.8-3.3-4.2-7.8-4.2-13.7v-31.5c0-5.7 1.4-10 4.2-12.9s6.8-4.3 12.2-4.3c5.3 0 9.4 1.4 12.2 4.3s4.2 7.2 4.2 12.9v31.5c0 6-1.4 10.5-4.2 13.8s-6.8 4.8-12.2 4.8c-5.3 0-9.4-1.6-12.2-4.9zm14.6-8.8c.4-1 .6-2.5.6-4.3v-32.3c0-1.4-.2-2.6-.6-3.5s-1.2-1.3-2.3-1.3c-2.2 0-3.3 1.7-3.3 5v32.2c0 1.9.2 3.3.7 4.3.5 1 1.3 1.5 2.5 1.5s2-.6 2.4-1.6zM337.9 193.2v-66.1h13.6l6.1 31.6v-31.6h12.8v66.1h-12.9l-6.6-33.1v33.1h-13zM183.9 108l-35.5-56.4 11.4-5.4 23.5 38.7-15.2-42.6 11.4-5.4 20.7 63.4-16.3 7.7zM196.3 69.7L241 20.6 259 34l-34.5 56.7-10-7.5 5.7-9.1-6.4-4.8-7 8.1-10.5-7.7zm24.5-8.3l4.8 3.6 17.8-28.7-.5-.4-22.1 25.5z"/>
  <path fill="none" d="M220.4 93.7L279 8.5"/>
</svg>
