<svg xmlns="http://www.w3.org/2000/svg" viewBox="0 0 354 111">
  <g fill="#000" fill-rule="nonzero">
    <path d="M8.1 49.9L2 .6h9.4L15 34.2 18.2.7h9.4L21.5 50H8.1v-.1zm20.4 0L33.3.6H50l4.7 49.3h-9.3l-.7-8h-6l-.6 8h-9.6zm10.9-15.8h4.5L41.7 9h-.5l-1.8 25.1zm41.9 15.8H66.1c-2.4 0-4.3-.5-5.6-1.6-1.3-1.1-2.2-2.6-2.7-4.6-.5-2-.7-4.5-.7-7.5 0-2.8.4-5 1.1-6.5.7-1.6 2-2.7 3.8-3.3-1.5-.3-2.6-1.1-3.2-2.2-.7-1.2-1-2.8-1-4.8L57.9.8h9.6v19.3c0 1.4.3 2.3.8 2.6.5.4 1.5.6 2.9.6V.7h10v49.2h.1zM68.9 31.7c-1.4 0-2.1 1.5-2.1 4.5 0 1.3.1 2.3.2 2.9.1.6.3 1.1.6 1.3.3.2.7.4 1.3.4h2.3v-9.1h-2.3zm16.7 18.2V.7h9.5V50h-9.5v-.1zm12.8 0L103.2.6h16.7l4.7 49.3h-9.3l-.7-8h-6l-.6 8h-9.6zm10.9-15.8h4.5L111.6 9h-.5l-1.8 25.1zm18.8 15.8V.7h9.7v19.7L142.4.7h9.9l-5.5 22.5 6.7 26.7h-10.2L137.9 26v23.9h-9.8zm31.8 0V10.1h-5.8V.6h21.6v9.5h-5.8v39.8h-10zm18.6 0V.7h9.5V50h-9.5v-.1zm16.8-3.2c-2.1-2.4-3.1-5.8-3.1-10.2V13.1c0-4.2 1-7.4 3.1-9.6 2.1-2.2 5.1-3.2 9.1-3.2s7 1.1 9.1 3.2c2.1 2.2 3.1 5.4 3.1 9.6v23.5c0 4.4-1 7.9-3.1 10.3-2.1 2.4-5.1 3.6-9.1 3.6-4.1-.1-7.1-1.3-9.1-3.8zm10.8-6.5c.3-.8.5-1.8.5-3.2V12.9c0-1.1-.1-1.9-.4-2.6-.3-.7-.9-1-1.7-1-1.6 0-2.5 1.2-2.5 3.7v24c0 1.4.2 2.5.5 3.2.3.7 1 1.1 1.9 1.1.8 0 1.4-.4 1.7-1.1zm14.9 9.7V.7h10.1l4.5 23.6V.7h9.5V50h-9.6l-4.9-24.7V50H221v-.1zM6.4 108.9c-1.8-.9-3.3-2.2-4.3-3.9C1 103.3.5 101.2.5 98.8V86.5h9.7v11.8c0 .9.2 1.6.5 2.1s.9.8 1.7.8c.7 0 1.3-.2 1.6-.7.4-.5.5-1.2.5-2V60.6h9.9v36.9c0 2.6-.5 4.8-1.5 6.7-1 1.9-2.4 3.4-4.2 4.5-1.8 1.1-3.9 1.6-6.2 1.6-2.3-.1-4.3-.5-6.1-1.4zm24.8-2.1c-2-2.3-3-5.7-3-10.2V60.5h9.6v35.7c0 1.6.2 2.8.5 3.7.3.9 1 1.3 2 1.3s1.6-.4 1.9-1.3c.3-.9.5-2.1.5-3.7V60.5h9.6v36.1c0 4.5-1 7.9-3 10.2-2 2.3-5 3.4-9 3.4-4.1 0-7.1-1.1-9.1-3.4zm27.6-.3c-1.7-2.5-2.6-6.3-2.6-11.4V73.9c0-4.5 1-8 3-10.3 2-2.3 5-3.5 9.1-3.5 3.2 0 5.8.7 7.6 1.9 1.8 1.3 3 3.2 3.7 5.7.7 2.5 1 5.7 1 9.6H71v-4.4c0-1.2-.2-2.1-.5-2.8-.3-.6-.9-1-1.7-1-1.9 0-2.8 1.2-2.8 3.7v23.9c0 1.5.2 2.6.6 3.4.4.8 1.1 1.1 2 1.1 1 0 1.6-.4 2-1.1.4-.8.6-1.9.6-3.4v-7.1h-2.6v-8.5h12v28.7h-4l-1.7-4.1c-1.8 3.1-4.5 4.6-8.1 4.6-3.6-.1-6.3-1.3-8-3.8zm26.2 3.3V60.5h19.7V70H95v9.6h9.3v9.3H95v11.3h10.3v9.6H85zm24.2 0V60.5h10.1l4.5 23.6V60.5h9.5v49.3h-9.6l-4.9-24.7v24.7h-9.6zm29.1-49.3h13.6c3.5 0 6.2 1 7.9 2.9 1.8 1.9 2.7 4.8 2.7 8.7l.1 23c0 4.9-.8 8.5-2.5 11-1.7 2.4-4.6 3.7-8.5 3.7h-13.2V60.5h-.1zm11.6 40.6c1.8 0 2.7-.9 2.7-2.6V73c0-1.1-.1-1.9-.3-2.5-.2-.6-.5-.9-.9-1.1-.4-.2-1.2-.3-2.1-.3h-1.1V101h1.7v.1zm17.2 8.7V60.5h19.7v9.6H177V78h9.3v9.5H177v22.4h-9.9v-.1zm23.5 0V60.5h19.7V70h-9.7v9.6h9.3v9.3h-9.3v11.3h10.3v9.6h-20.3zm26.2-2.9c-2-2.2-3-5.8-3-10.7v-4.8h9.7v6.1c0 2.4.8 3.7 2.4 3.7.9 0 1.5-.3 1.8-.8.3-.5.5-1.4.5-2.6 0-1.6-.2-2.9-.6-4-.4-1.1-.9-1.9-1.5-2.6-.6-.7-1.7-1.8-3.2-3.3l-4.2-4.2c-3.3-3.2-4.9-6.8-4.9-10.7 0-4.2 1-7.4 2.9-9.6 1.9-2.2 4.7-3.3 8.5-3.3 4.4 0 7.6 1.2 9.6 3.5 1.9 2.4 2.9 6 2.9 11h-10l-.1-3.4c0-.6-.2-1.2-.5-1.5-.4-.4-.9-.6-1.5-.6-.8 0-1.3.2-1.7.6-.4.4-.6 1-.6 1.7 0 1.6.9 3.3 2.8 5l5.7 5.5c1.3 1.3 2.4 2.5 3.3 3.7.9 1.2 1.6 2.5 2.1 4.1.5 1.6.8 3.5.8 5.6 0 4.9-.9 8.5-2.7 11-1.8 2.5-4.7 3.8-8.8 3.8-4.5.1-7.7-1-9.7-3.2zm29.2 2.9V70h-5.8v-9.5h21.6V70H256v39.8h-10zm18.6 0V60.5h9.5v49.3h-9.5zm18.6 0l-6.1-49.3h9.4l3.6 33.5 3.2-33.5h9.4l-6.1 49.3h-13.4zm20.4 0l4.8-49.3H325l4.7 49.3h-9.3l-.7-8h-6l-.6 8h-9.5zM314.5 94h4.5l-2.2-25.1h-.5L314.5 94zm18.8 15.8V60.5h9.9v40.9h10.1v8.4h-20z"/>
  </g>
</svg>
