<svg xmlns="http://www.w3.org/2000/svg" viewBox="0 0 394 111">
  <g fill="#000" fill-rule="nonzero">
    <path d="M.5 49.8L5.3.5H22l4.7 49.3h-9.3l-.7-8h-6l-.6 8H.5zm10.9-15.9h4.5L13.7 8.8h-.5l-1.8 25.1zm17.5 15.9L33.7.5h16.7L55 49.8h-9.3l-.7-8h-6l-.6 8h-9.5zm10.9-15.9h4.5L42 8.9h-.5l-1.7 25zM58.6.5h15.1c2.4 0 4.3.5 5.6 1.6 1.3 1.1 2.2 2.6 2.7 4.6.5 2 .7 4.5.7 7.5 0 2.8-.4 5-1.1 6.5-.7 1.6-2 2.7-3.8 3.3 1.5.3 2.6 1.1 3.2 2.2.7 1.2 1 2.8 1 4.8l-.1 18.6h-9.6V30.5c0-1.4-.3-2.3-.8-2.6-.5-.4-1.5-.6-2.9-.6v22.5h-10V.5zm12.3 18.2c1.4 0 2.1-1.5 2.1-4.5 0-1.3-.1-2.3-.2-2.9-.1-.6-.3-1.1-.6-1.3-.3-.2-.7-.4-1.3-.4h-2.3v9.1h2.3zm14.3 31.1L90 .5h16.7l4.7 49.3H102l-.7-8h-6l-.6 8h-9.5zm10.9-15.9h4.5L98.4 8.8h-.5l-1.8 25.1zm21.1 12.9c-2-2.3-3-5.7-3-10.2V.5h9.6v35.7c0 1.6.2 2.8.5 3.7.3.9 1 1.3 2 1.3s1.6-.4 1.9-1.3c.3-.9.5-2.1.5-3.7V.5h9.6v36.1c0 4.5-1 7.9-3 10.2-2 2.3-5 3.4-9 3.4-4.1 0-7.1-1.1-9.1-3.4zM6.4 71.7c-.7.8-1.6 1.5-2.7 1.9-1.2.5-2.3.7-3.4.7v-7.9c1.7-.3 3.4-.9 5-2 1.7-1.1 2.9-2.5 3.6-4.2h7.9v49.3H6.4V71.7zM27.3 109c-1.8-.7-3.2-1.8-4.3-3.3-1.1-1.5-1.6-3.2-1.6-5.3v-5.3h9.5v1c0 1.6.2 2.9.5 3.9s1 1.4 2 1.4c1.1 0 1.8-.3 2.3-.9.4-.6.7-1.5.7-2.7V88c-.5.9-1.2 1.6-2.1 2.1-1 .5-2.1.8-3.4.8-2.7 0-4.7-.5-6.2-1.6s-2.5-2.7-3.1-4.8c-.6-2.1-.9-4.9-.9-8.3 0-5.2 1-9.3 3-12.1 2-2.8 5.3-4.2 9.9-4.2 3.4 0 6 .6 8 1.7 1.9 1.1 3.3 2.9 4.1 5.2.8 2.3 1.2 5.3 1.2 8.9V89c0 5.1-.3 9.1-.9 12-.6 2.9-1.9 5.2-3.8 6.7s-4.9 2.3-8.8 2.3c-2.4.1-4.3-.3-6.1-1zm9-30.3v-6.1c0-2.4-.8-3.6-2.5-3.6-1 0-1.7.4-2 1.2-.3.8-.4 2.1-.4 4v4c0 2.7.8 4 2.3 4 1.7 0 2.6-1.1 2.6-3.5zm13.9 30.9v-8.4h10v8.4h-10zm10.4-14.3v-6.5h28.9v6.5H60.6zm34 12c0-2.3.4-4.3 1.1-6.2.7-1.9 1.6-3.6 2.6-5.2 1-1.5 2.4-3.3 4.1-5.4 1.7-2.1 3.1-4 4.1-5.4 1-1.5 1.9-3.2 2.6-5.1.7-1.9 1.1-4 1.1-6.3 0-1.3-.2-2.4-.6-3.1-.4-.7-1.1-1.1-2.1-1.1-1.6 0-2.5 1.5-2.5 4.4v6H94.6l-.1-3c0-3.7.4-6.8 1.1-9.2.8-2.4 2.1-4.2 4-5.5 1.9-1.3 4.5-1.9 7.9-1.9 4.1 0 7.3 1.2 9.6 3.5s3.4 5.6 3.4 9.8c0 2.7-.4 5.2-1.1 7.4-.7 2.2-1.7 4.1-2.8 5.8-1.1 1.6-2.5 3.6-4.3 5.8-1.3 1.6-2.4 3-3.2 4.2-.9 1.2-1.6 2.5-2.3 3.8h13.4v9.3H94.6v-2.6zm35.1-35.6c-.7.8-1.6 1.5-2.7 1.9-1.2.5-2.3.7-3.4.7v-7.9c1.7-.3 3.4-.9 5-2 1.7-1.1 2.9-2.5 3.6-4.2h7.9v49.3h-10.4V71.7zm16.6 37.9v-8.4h10v8.4h-10zm26.1-.8c-1.8-.9-3.3-2.2-4.3-3.9-1.1-1.7-1.6-3.8-1.6-6.2V86.4h9.7v11.8c0 .9.2 1.6.5 2.1.4.5.9.8 1.7.8.7 0 1.3-.2 1.6-.7.4-.5.5-1.2.5-2v-38h9.9v36.9c0 2.6-.5 4.8-1.5 6.7-1 1.9-2.4 3.4-4.2 4.5-1.8 1.1-3.9 1.6-6.2 1.6-2.3 0-4.3-.5-6.1-1.3zm24.8-2.2c-2-2.3-3-5.7-3-10.2v-36h9.6V96c0 1.6.2 2.8.5 3.7.3.9 1 1.3 1.9 1.3.9 0 1.6-.4 1.9-1.3.3-.9.5-2.1.5-3.7V60.4h9.6v36.1c0 4.5-1 7.9-3 10.2-2 2.3-5 3.4-9 3.4s-7-1.2-9-3.5zm25.4 3V60.4h10.1l4.5 23.6V60.4h9.5v49.3h-9.6L232.2 85v24.7h-9.6v-.1zm28.7 0V60.4h9.5v49.3h-9.5v-.1zm27.5-2.3c0-2.3.4-4.3 1.1-6.2.7-1.9 1.6-3.6 2.6-5.2 1-1.5 2.4-3.3 4.1-5.4 1.7-2.1 3.1-4 4.1-5.4 1-1.5 1.9-3.2 2.6-5.1.7-1.9 1.1-4 1.1-6.3 0-1.3-.2-2.4-.6-3.1-.4-.7-1.1-1.1-2.1-1.1-1.6 0-2.5 1.5-2.5 4.4v6h-10.4l-.1-3c0-3.7.4-6.8 1.1-9.2.8-2.4 2.1-4.2 4-5.5 1.9-1.3 4.5-1.9 7.9-1.9 4.1 0 7.3 1.2 9.6 3.5s3.4 5.6 3.4 9.8c0 2.7-.4 5.2-1.1 7.4-.7 2.2-1.7 4.1-2.8 5.8-1.1 1.6-2.5 3.6-4.3 5.8-1.3 1.6-2.4 3-3.2 4.2-.9 1.2-1.6 2.5-2.3 3.8h13.4v9.3h-25.6v-2.6zm32.9-.7c-2.3-2.4-3.4-5.7-3.4-10.1V74.3c0-4.7 1.1-8.2 3.3-10.7 2.2-2.4 5.4-3.7 9.7-3.7 4.4 0 7.6 1.2 9.8 3.7 2.2 2.4 3.3 6 3.3 10.7v22.2c0 4.4-1.1 7.8-3.4 10.1s-5.5 3.5-9.7 3.5c-4.1 0-7.4-1.2-9.6-3.5zm11.4-6.6c.5-.7.7-1.5.7-2.4V73.3c0-1.4-.2-2.5-.5-3.2-.3-.7-1-1.1-2-1.1s-1.6.4-2 1.1c-.3.7-.5 1.8-.5 3.2v24.3c0 .9.2 1.7.7 2.4.4.7 1 1 1.8 1 .7 0 1.3-.3 1.8-1zm14.7 7.3c0-2.3.4-4.3 1.1-6.2.7-1.9 1.6-3.6 2.6-5.2 1-1.5 2.4-3.3 4.1-5.4 1.7-2.1 3.1-4 4.1-5.4 1-1.5 1.9-3.2 2.6-5.1.7-1.9 1.1-4 1.1-6.3 0-1.3-.2-2.4-.6-3.1-.4-.7-1.1-1.1-2.1-1.1-1.6 0-2.5 1.5-2.5 4.4v6h-10.4l-.1-3c0-3.7.4-6.8 1.1-9.2.8-2.4 2.1-4.2 4-5.5 1.9-1.3 4.5-1.9 7.9-1.9 4.1 0 7.3 1.2 9.6 3.5s3.4 5.6 3.4 9.8c0 2.7-.4 5.2-1.1 7.4-.7 2.2-1.7 4.1-2.8 5.8-1.1 1.6-2.5 3.6-4.3 5.8-1.3 1.6-2.4 3-3.2 4.2-.9 1.2-1.6 2.5-2.3 3.8h13.4v9.3h-25.6v-2.6zm32.8-.7c-2.3-2.4-3.4-5.7-3.4-10.1V74.3c0-4.7 1.1-8.2 3.3-10.7 2.2-2.4 5.4-3.7 9.7-3.7 4.4 0 7.6 1.2 9.8 3.7 2.2 2.4 3.3 6 3.3 10.7v22.2c0 4.4-1.1 7.8-3.4 10.1s-5.5 3.5-9.7 3.5c-4.1 0-7.3-1.2-9.6-3.5zM382 100c.5-.7.7-1.5.7-2.4V73.3c0-1.4-.2-2.5-.5-3.2-.3-.7-1-1.1-2-1.1s-1.6.4-2 1.1c-.3.7-.5 1.8-.5 3.2v24.3c0 .9.2 1.7.7 2.4.4.7 1 1 1.8 1s1.4-.3 1.8-1z"/>
  </g>
</svg>
