<?xml version="1.0" encoding="UTF-8"?>
<svg width="1545px" height="788px" viewBox="0 0 1545 788" version="1.1" xmlns="http://www.w3.org/2000/svg" xmlns:xlink="http://www.w3.org/1999/xlink">
    <!-- Generator: Sketch 43.2 (39069) - http://www.bohemiancoding.com/sketch -->
    <title>banner-background</title>
    <desc>Created with Sketch.</desc>
    <defs></defs>
    <g id="Page-1" stroke="none" stroke-width="1" fill="none" fill-rule="evenodd">
        <g id="banner-background">
            <rect id="Rectangle-10" fill="#1C0B47" x="0" y="0" width="1545" height="900"></rect>
            <path d="M740.074955,689.283903 C736.675568,688.707255 733.306512,688.041489 729.970274,687.289095 L960.289095,456.970274 C961.041489,460.306512 961.707255,463.675568 962.283903,467.074955 L740.074955,689.283903 Z M750.678334,690.780014 L963.780014,477.678334 C964.196545,481.369762 964.508675,485.09281 964.713384,488.844454 L761.844454,691.713384 C758.09281,691.508675 754.369762,691.196545 750.678334,690.780014 Z M670.054523,662.508421 C667.589447,660.955898 665.162057,659.349005 662.774036,657.689425 L930.689422,389.774032 C932.349005,392.162057 933.955898,394.589447 935.508421,397.054523 L670.054523,662.50842 Z M677.624982,667.037451 L940.037451,404.624982 C941.505644,407.211977 942.915645,409.836326 944.265676,412.496246 L685.496246,671.265676 C682.836326,669.915645 680.211977,668.505644 677.62498,667.037453 Z M711.067817,681.992574 L954.992574,438.067817 C956.018519,441.116598 956.970205,444.199509 957.845481,447.314399 L720.314399,684.845481 C717.199509,683.970205 714.116598,683.018519 711.067817,681.992574 Z M702.198858,678.762047 C699.325542,677.634306 696.48592,676.439478 693.681921,675.17949 L948.17949,420.681921 C949.439478,423.48592 950.634306,426.325542 951.762047,429.198858 L702.198855,678.762046 Z M649.051274,647.213201 L920.213201,376.051274 C922.053882,378.251338 923.846326,380.493142 925.588907,382.77506 L655.775058,652.588906 C653.493141,650.846325 651.251337,649.053881 649.051274,647.213201 Z M642.598283,641.566702 C640.493207,639.640769 638.431077,637.668667 636.413496,635.652001 L908.652001,363.413496 C910.668667,365.431077 912.640769,367.493207 914.566702,369.598283 L642.598283,641.566702 Z M610.679773,395.196956 L668.196956,337.679773 C676.552802,332.282771 685.353407,327.515329 694.531671,323.444547 L596.444547,421.531671 C600.515329,412.353407 605.282771,403.552802 610.679773,395.196956 Z M630.496048,629.469958 C628.566122,627.362439 626.682494,625.211822 624.846774,623.019717 L896.019731,351.846786 C898.211822,353.682494 900.362439,355.566122 902.469958,357.496048 L630.496048,629.469958 Z M850.695223,675.459551 C844.353124,678.282128 837.830202,680.771886 831.14864,682.906644 L955.906644,558.14864 C953.771886,564.830202 951.282128,571.353124 948.459551,577.695223 L850.695221,675.459553 Z M877.158721,661.095542 C899.902878,646.334912 919.334912,626.902878 934.095542,604.158721 L877.158719,661.095544 Z M600.779551,586.589519 C599.411807,583.897911 598.105485,581.16984 596.86243,578.407151 L851.407151,323.86243 C854.16984,325.105485 856.897911,326.411807 859.589519,327.779551 L600.779551,586.589519 Z M605.010926,594.457634 L867.457634,332.010926 C870.017291,333.465205 872.540343,334.976466 875.025064,336.542985 L609.542985,602.025064 C607.976466,599.540343 606.465205,597.017291 605.010926,594.457634 Z M580.296472,510.276682 C580.09969,506.710037 580,503.11751 580,499.501698 C580,499.157908 580.000901,498.814329 580.002701,498.470963 L771.470964,307.002701 C771.81433,307.000901 772.157909,307 772.501698,307 C776.11751,307 779.710037,307.09969 783.276682,307.296472 L580.296472,510.276682 Z M581.236005,521.43664 L794.43664,308.236005 C797.999697,308.64015 801.533258,309.141566 805.034602,309.737532 L582.737532,532.034602 C582.141566,528.533258 581.64015,524.999697 581.236005,521.43664 Z M799.769229,690.087077 L963.087077,526.769229 C962.378859,531.764003 961.478932,536.697093 960.394983,541.560812 L814.560803,687.394992 C809.697093,688.478932 804.764003,689.378859 799.769229,690.087077 Z M786.2358,691.521016 C782.078035,691.814104 777.883821,691.975155 773.657327,692 L965,500.657327 C964.975155,504.883821 964.814104,509.078035 964.521016,513.2358 L786.2358,691.521016 Z M590.042113,561.028488 L834.028488,317.042113 C837.01707,318.049509 839.972822,319.128272 842.893715,320.276376 L593.276376,569.893715 C592.128272,566.972822 591.049509,564.01707 590.042113,561.028488 Z M587.185181,551.785932 C586.288542,548.601464 585.471775,545.383535 584.73718,542.134443 L815.134443,311.73718 C818.383535,312.471775 821.601464,313.288542 824.785932,314.185181 L587.185181,551.785932 Z M619.468282,616.298746 C617.716282,614.006674 616.014609,611.674083 614.364913,609.302625 L882.302625,341.364913 C884.674083,343.014609 887.006674,344.716282 889.298746,346.468282 L619.468282,616.298746 Z M581.895864,472.378822 L745.378822,308.895864 C749.838989,308.266904 754.348259,307.790797 758.901165,307.473011 L580.473011,485.901165 C580.790797,481.348259 581.266904,476.838989 581.895864,472.378822 Z M584.572887,457.60231 C585.819908,451.984248 587.31242,446.458573 589.038587,441.037121 L714.037121,316.038587 C719.458573,314.31242 724.984248,312.819908 730.60231,311.572887 L584.572887,457.60231 Z" id="Combined-Shape" fill="#FF00B0"></path>
            <polygon id="Path-29" fill="#5E17EB" points="601 553.894791 811.584515 448 1031.01038 591.0253 738.515977 721.159854"></polygon>
            <polygon id="Path-28" fill="#EBBD04" points="723.997013 685.312114 1570.50332 298.981991 1778.57898 603.436612 1163.66365 654.641136 893.851553 729.975073 718 724.745778"></polygon>
            <polygon id="Path-27" fill="#7ED957" points="452.205139 342 760.154799 717.174644 312 720.914727"></polygon>
            <polygon id="Rectangle-9" fill="#5E17EB" points="451.800003 342 322.702047 710.880262 756.824585 710.880262 1582.45893 557.658449 1711.57451 804.479843 1414 1286.73713 223 1286.73713 -118.666355 744.605018"></polygon>
            <polygon id="Path-26" fill="#FF00B0" points="527.007948 1300.00526 416.934823 1484.96668 279.992922 1354.09144 -62.6462558 711 754.842555 711"></polygon>
            <polygon id="Path-25" fill="#7ED957" points="929.056279 1300.16531 754.732078 711 527 1300.03405"></polygon>
        </g>
    </g>
</svg>