<?xml version="1.0" encoding="UTF-8"?>
<svg width="341px" height="186px" viewBox="0 0 341 186" version="1.1" xmlns="http://www.w3.org/2000/svg" xmlns:xlink="http://www.w3.org/1999/xlink">
    <!-- Generator: Sketch 43.2 (39069) - http://www.bohemiancoding.com/sketch -->
    <title>footer_logo</title>
    <desc>Created with Sketch.</desc>
    <defs></defs>
    <g id="website" stroke="none" stroke-width="1" fill="none" fill-rule="evenodd">
        <g id="footer_logo" fill="#FFFFFF">
            <path d="M8.3,185.2 L0.1,119 L12.7,119 L17.5,164 L21.8,119 L34.4,119 L26.2,185.2 L8.3,185.2 Z M37.2,185.2 L43.6,119.1 L66,119.1 L72.3,185.2 L59.8,185.2 L58.9,174.5 L50.9,174.5 L50.1,185.2 L37.2,185.2 Z M51.8,164 L57.8,164 L54.9,130.4 L54.3,130.4 L51.8,164 Z M77.1,119 L97.4,119 C100.6,119 103.1,119.7 104.9,121.2 C106.7,122.7 107.9,124.7 108.5,127.4 C109.1,130 109.4,133.4 109.4,137.5 C109.4,141.2 108.9,144.2 107.9,146.3 C106.9,148.4 105.2,149.9 102.8,150.7 C104.8,151.1 106.3,152.1 107.1,153.7 C108,155.3 108.4,157.4 108.4,160.2 L108.2,185.2 L95.3,185.2 L95.3,159.2 C95.3,157.4 94.9,156.2 94.2,155.7 C93.5,155.2 92.2,154.9 90.3,154.9 L90.3,185.1 L76.9,185.1 L76.9,119 L77.1,119 Z M92.9,142.9 C94.7,142.9 95.7,140.9 95.7,136.9 C95.7,135.2 95.6,133.8 95.5,133 C95.3,132.1 95.1,131.5 94.7,131.2 C94.3,130.9 93.7,130.7 92.9,130.7 L89.8,130.7 L89.8,142.9 L92.9,142.9 L92.9,142.9 Z M117,185.2 L117,119.1 L129.8,119.1 L129.8,185.2 L117,185.2 Z M135.6,185.2 L142,119.1 L164.4,119.1 L170.7,185.2 L158.2,185.2 L157.3,174.5 L149.3,174.5 L148.5,185.2 L135.6,185.2 Z M150.3,164 L156.3,164 L153.4,130.4 L152.8,130.4 L150.3,164 Z M177,185.2 L177,119.1 L190.1,119.1 L190.1,145.6 L196.3,119.1 L209.6,119.1 L202.2,149.3 L211.1,185.2 L197.4,185.2 L190.2,153.2 L190.2,185.2 L177,185.2 Z M221.4,185.2 L221.4,131.8 L213.6,131.8 L213.6,119.1 L242.5,119.1 L242.5,131.8 L234.7,131.8 L234.7,185.2 L221.4,185.2 L221.4,185.2 Z M247.8,185.2 L247.8,119.1 L260.6,119.1 L260.6,185.2 L247.8,185.2 Z M271.8,180.9 C269,177.6 267.6,173.1 267.6,167.2 L267.6,135.7 C267.6,130 269,125.7 271.8,122.8 C274.6,119.9 278.6,118.5 284,118.5 C289.3,118.5 293.4,119.9 296.2,122.8 C299,125.7 300.4,130 300.4,135.7 L300.4,167.2 C300.4,173.2 299,177.7 296.2,181 C293.4,184.3 289.4,185.8 284,185.8 C278.7,185.8 274.6,184.2 271.8,180.9 L271.8,180.9 Z M286.4,172.1 C286.8,171.1 287,169.6 287,167.8 L287,135.5 C287,134.1 286.8,132.9 286.4,132 C286,131.1 285.2,130.7 284.1,130.7 C281.9,130.7 280.8,132.4 280.8,135.7 L280.8,167.9 C280.8,169.8 281,171.2 281.5,172.2 C282,173.2 282.8,173.7 284,173.7 C285.2,173.7 286,173.1 286.4,172.1 L286.4,172.1 Z M307.9,185.2 L307.9,119.1 L321.5,119.1 L327.6,150.7 L327.6,119.1 L340.4,119.1 L340.4,185.2 L327.5,185.2 L320.9,152.1 L320.9,185.2 L307.9,185.2 L307.9,185.2 Z" id="Shape" fill-rule="nonzero"></path>
            <g id="logo-mini-alt-negative" transform="translate(121.000000, 10.000000)">
                <g id="logo-mini-alt">
                    <polygon id="V" transform="translate(28.190245, 40.389534) rotate(-17.000000) translate(-28.190245, -40.389534) " points="18.437745 76.0795336 9.63974502 4.6995336 23.251745 4.6995336 28.480745 53.2545336 33.128745 4.6995336 46.740745 4.6995336 37.942745 76.0795336"></polygon>
                    <path d="M56.9706765,89.8461105 L63.8596765,18.5491105 L88.0126765,18.5491105 L94.8186765,89.8461105 L81.2896765,89.8461105 L80.2936765,78.3091105 L71.6616765,78.3091105 L70.8316765,89.8461105 L56.9706765,89.8461105 Z M72.7406765,66.9381105 L79.2146765,66.9381105 L76.0606765,30.6671105 L75.3966765,30.6671105 L72.7406765,66.9381105 Z" id="A" transform="translate(75.894677, 54.197611) rotate(20.000000) translate(-75.894677, -54.197611) "></path>
                </g>
            </g>
        </g>
    </g>
</svg>