<svg xmlns="http://www.w3.org/2000/svg" viewBox="0 0 458 148">
  <path fill="#fff" fill-rule="evenodd" d="M1 65 7 5h20l6 60H22l-1-10h-8v10H1Zm13-19h6l-3-31-3 31Zm21 19 6-60h20l6 60H56l-1-10h-8v10H35Zm13-19h6l-3-31-3 31ZM71 5h18l7 2c1 1 3 3 3 5l1 10-1 8-5 4 4 2 1 6v23H87V41l-1-3h-3v27H71V5Zm15 22c1 0 2-2 2-5v-4l-1-2h-4v11h3Zm16 38 6-60h21l5 60h-11l-1-10h-7l-1 10h-12Zm14-19h5l-3-31-2 31Zm36 20c-5 0-9-2-11-5-3-2-4-7-4-12V5h12v48l3 2 2-2 1-5V5h11v44c0 5-1 10-3 12-3 3-6 5-11 5ZM8 93l-3 2-4 1V86l6-2 4-5h10v60H8V93Zm20 46 3-18a229 229 0 0 1 9-25l3-6H26V79h30v9l-2 6a100 100 0 0 1-5 13 122 122 0 0 0-7 32H28Zm32 0v-10h12v10H60Zm16-17v-8h17v8H76Zm28-29-4 2-4 1V86l7-2 4-5h10v60h-13V93Zm32 47-7-2-6-4-2-6v-7h12v1l1 5 2 2 3-1 1-3v-12l-3 2-4 1c-3 0-6 0-8-2-2-1-3-3-3-6l-2-10c0-6 2-11 4-15 3-3 7-5 12-5l10 2 5 7 1 11v16l-1 15c0 3-2 6-4 8-3 2-6 3-11 3Zm0-34c3 0 4-2 4-5v-7c0-3-1-5-3-5s-2 1-3 2v10c0 3 1 5 2 5Zm20 33v-10h12v10h-12Zm46 1-7-2-5-5c-2-2-2-4-2-7v-15h12v17l2 1 2-1 1-3V79h12v45l-2 8c-1 3-3 4-5 6l-8 2Zm34 0c-5 0-9-2-11-5-3-2-4-7-4-12V79h12v48c1 1 1 2 3 2l2-2 1-5V79h11v44c0 5-1 10-3 12-3 3-6 5-11 5Zm19-1V79h12l6 29V79h11v60h-11l-6-30v30h-12Zm34 0V79h12v60h-12Zm32-3 2-7 3-7 5-6 5-7 3-6 1-8v-4l-3-1c-2 0-3 2-3 5v8h-13v-4l2-11c1-3 2-6 5-7 2-2 5-2 9-2 5 0 9 1 12 4s4 7 4 12a28 28 0 0 1-5 16 95 95 0 0 1-9 12l-3 5h17v11h-32v-3Zm50 4c-5 0-9-2-12-5-2-3-4-7-4-12V96c0-6 2-10 4-13 3-3 7-5 12-5 6 0 10 2 12 5 3 3 4 7 4 13v27c0 5-1 9-4 12s-7 5-12 5Zm0-11 2-2 1-3V91l-3-2-2 2-1 4v29l1 3 2 2Zm20 7 1-7 3-7 5-6 5-7 3-6 2-8-1-4-3-1c-2 0-3 2-3 5v8h-12l-1-4 2-11c1-3 2-6 5-7 2-2 5-2 9-2 5 0 9 1 12 4s4 7 4 12a28 28 0 0 1-4 16 95 95 0 0 1-10 12l-3 5h17v11h-31v-3Zm34 0 1-7 4-7 5-6 5-7 3-6 1-8-1-4-2-1c-2 0-3 2-3 5v8h-13v-4l1-11c1-3 3-6 5-7 3-2 6-2 10-2 5 0 9 1 12 4 2 3 4 7 4 12a28 28 0 0 1-5 16 95 95 0 0 1-9 12l-3 5h16v11h-31v-3Z"/>
</svg>
