<svg xmlns="http://www.w3.org/2000/svg" viewBox="0 0 1122.52 793.701">
  <defs>
    <clipPath id="a" clipPathUnits="userSpaceOnUse">
      <path d="M.002 0H7015.75v4960.63H.002z" clip-rule="evenodd"/>
    </clipPath>
    <clipPath id="b" clipPathUnits="userSpaceOnUse">
      <path d="M.002 0H7015.75v4960.63H.002z" clip-rule="evenodd"/>
    </clipPath>
    <clipPath id="c" clipPathUnits="userSpaceOnUse">
      <path d="M.002 0H7015.75v4960.63H.002z" clip-rule="evenodd"/>
    </clipPath>
    <clipPath id="d" clipPathUnits="userSpaceOnUse">
      <path d="M.002 0H7015.75v4960.63H.002z" clip-rule="evenodd"/>
    </clipPath>
  </defs>
  <path fill="none" d="M0 0v126.992h179.603V0z"/>
  <g clip-path="url(#a)" transform="matrix(.16 0 0 .16 0 0)">
    <g clip-path="url(#b)">
      <text fill="#36274d" font-family="F1" font-size="1" font-weight="400" transform="translate(4272.65 3203.55) scale(295.15201)" style="-inkscape-font-specification:F1"/>
      <text fill="#36274d" font-family="F1" font-size="1" font-weight="400" transform="translate(4382.15 3203.55) scale(295.15201)" style="-inkscape-font-specification:F1"/>
      <text fill="#36274d" font-family="F1" font-size="1" font-weight="400" transform="translate(4264.98 3481.58) scale(295.15201)" style="-inkscape-font-specification:F1"/>
      <text fill="#36274d" font-family="F1" font-size="1" font-weight="400" transform="translate(4271.17 3759.62) scale(295.15201)" style="-inkscape-font-specification:F1"/>
      <text fill="#36274d" font-family="F1" font-size="1" font-weight="400" transform="translate(4532.38 3759.62) scale(295.15201)" style="-inkscape-font-specification:F1"/>
      <text fill="#36274d" font-family="F1" font-size="1" font-weight="400" transform="translate(4763.49 3759.62) scale(295.15201)" style="-inkscape-font-specification:F1"/>
      <text fill="#36274d" font-family="F1" font-size="1" font-weight="400" transform="translate(2259.42 507.923) scale(295.15201)" style="-inkscape-font-specification:F1"/>
      <text fill="#36274d" font-family="F1" font-size="1" font-weight="400" transform="translate(2391.64 507.923) scale(295.15201)" style="-inkscape-font-specification:F1"/>
      <text fill="#36274d" font-family="F1" font-size="1" font-weight="400" transform="translate(2122.76 785.956) scale(295.15201)" style="-inkscape-font-specification:F1"/>
      <text fill="#36274d" font-family="F1" font-size="1" font-weight="400" transform="translate(2291.46 934.982) scale(148.12199)" style="-inkscape-font-specification:F1"/>
      <text fill="#36274d" font-family="F1" font-size="1" font-weight="400" transform="translate(2261.98 1074.51) scale(148.12199)" style="-inkscape-font-specification:F1"/>
      <text fill="#36274d" font-family="F1" font-size="1" font-weight="400" transform="translate(2542.67 1074.51) scale(148.12199)" style="-inkscape-font-specification:F1"/>
      <text fill="#36274d" font-family="F1" font-size="1" font-weight="400" transform="translate(2680.87 1074.51) scale(148.12199)" style="-inkscape-font-specification:F1"/>
      <path fill="#36274d" d="M4415.8.006L3335.142 2219.913l438.008 163.8 171.933-361.45 279.467 104.509-112.817 383.566 448.767 167.825 640.2-2391.716L4434.74.006zm-298.108 1667.166l541.266-1136.125 21.5 8.042-353.166 1206.466z"/>
      <path fill="#e4322b" d="M2719.5.006l510.741 2260.682 104.9-40.775L4415.8.006z"/>
      <path fill="#f7a945" d="M3230.24 2260.68l356.242 272.425 186.666-149.392-438.008-163.808zM4560.5 2678.16l-442.808 43.55-167.983-43.55 162.025-167.825z"/>
      <path fill="#e4322b" d="M3949.71 2678.16l86.283-621.908 188.559 70.516-112.817 383.567zM4200.77 1698.24l217.942-662.933 240.241-504.258 21.5 8.041-353.166 1206.458z"/>
      <path fill="#36274d" d="M2709.81 4951.91l-917.316-2329.716 458.858-118.374 578.933 1596.374-245.983-1682.266 458.866-118.375 324.159 2482.74z"/>
      <path fill="#e4322b" d="M3043.17 2299.56l324.158 2482.733 66.092 172.35 1767.274-504.817-2051.55-2179.933zM2251.35 2503.82l251 40.45 226.917 865.091 101.016 690.833z"/>
      <path fill="#f7a945" d="M1792.49 2622.19l507.158-322.633 202.7 244.716-251-40.458zM2584.3 2417.93l83.208-262.058h330.334l151.3 114.025-105.976 29.658zM2709.8 4951.91h439.341l284.275 2.734-66.091-172.35z"/>
      <text fill="#36274d" font-family="F1" font-size="1" font-weight="400" transform="translate(4385.19 3948.45) scale(158.33299)" style="-inkscape-font-specification:F1"/>
      <text fill="#36274d" font-family="F1" font-size="1" font-weight="400" transform="translate(4638.84 3948.45) scale(158.33299)" style="-inkscape-font-specification:F1"/>
      <text fill="#36274d" font-family="F1" font-size="1" font-weight="400" transform="translate(4294.27 4859.36) scale(97.4049)" style="-inkscape-font-specification:F1"/>
    </g>
  </g>
</svg>