<svg xmlns="http://www.w3.org/2000/svg" xmlns:xlink="http://www.w3.org/1999/xlink" viewBox="0 0 1072 530">
  <defs>
    <path id="a" d="M92.903 207.659l3.822 15.677 25.888-6.817 4.066 13.741 37.339-9.748-7.153-28.979z"/>
    <path id="b" d="M.442 248.69l4.444 15.715 25.503-7.507-4.832-15.723-13.037 3.856-1.271-5.03-6.621 1.771 1.549 5.303z"/>
    <path id="c" d="M26.323 236.387l4.028 10.86 9.064-3.265-3.887-11.024z"/>
    <path id="d" d="M49.709 267.393l-8.199-26.105 10.994-3.034-6.218-17.534 20.509-6.245 6.902 22.449-19.836 6.192 6.679 21.411z"/>
    <path id="e" d="M65.793 251.333l4.205 9.589 14.501-5.702-4.276-9.871z"/>
    <path id="f" d="M100.547 242.677l3.341 9.622 9.778-3.549-.871-2.945 2.698-1.148-2.438-6.916z"/>
    <path id="g" d="M13.161 277.733l2.314 6.397 8.713-3.167-2.298-6.683z"/>
    <path id="h" d="M9.758 298.244l3.826 15.014 15.535-4.049-4.368-15.117z"/>
    <path id="i" d="M27.268 293.021l3.469 10.58 17.43-5.511 1.007 2.803 23.852-7.872-7.757-20.223-22.525 8.162 2.423 6.312z"/>
    <path id="j" d="M15.203 327.573l21.691-6.427 8.14 28.032-21.516 6.677z"/>
    <path id="k" d="M42.68 319.833l6.283 21.961 11.404-3.216-2.677-8.608 3.042-.727-3.962-13.528 4.343-1.118-1.921-6.428-12.026 3.533 1.756 5.838z"/>
    <path id="l" d="M84.796 263.847h29.947v15.574H84.796z"/>
    <path id="m" d="M119.747 270.972h19.158v9.85h-19.158z"/>
    <path id="n" d="M125.85 284.096h13.092v12.753H125.85z"/>
    <path id="o" d="M132.005 243.973h32.187v16.862h-32.187z"/>
    <path id="p" d="M145.208 287.07h27.7v22.537h-27.7z"/>
    <path id="q" d="M155.038 320.037h29.831v32.079h-29.831z"/>
    <path id="r" d="M65.908 354.87l13.742-4.119.411 1.509 6.511-1.532 2.776 9.569-20.573 5.64z"/>
    <path id="s" d="M485.562 23.144l7.263 14.842 29.742-13.105L511.429.503l-27.748 11.788 4.416 9.501z"/>
    <path id="t" d="M175.068 146.028l-4.767-11.991 36.473-13.355 2.824 7.949-11.393 4.025 1.413 4.146z"/>
    <path id="u" d="M178.39 188.874l10.517 62.722 66.11-28.092-8.619-46.434z"/>
    <path id="v" d="M248.124 171.119l23.357-3.435 4.123 22.031-12.076 1.376-.921-4.084-11.069 1.308z"/>
    <path id="w" d="M311.014 174.396l23.063 40.221 60.335-32.362-8.332-14.895z"/>
    <path id="x" d="M200.119 277.958l-2.129-4.967 33.356-20.371 11.467 18.422-16.267 10.368 9.191 16.071-15.619 7.77 1.035 9.146-10.104 4.577-13.608-38.997z"/>
    <path id="y" d="M215.652 344.929l14.447-6.307 2.588 5.228 5.226-2.342 5.426 10.821-20.815 9.015z"/>
    <path id="z" d="M212.851 323.707l22.649-13.983 11.653 18.696-7.671 5.574-1.976-3.34-14.781 8.387z"/>
    <path id="A" d="M237.027 303.236l5.446 10.807 7.931-4.099-1.999-3.899 2.948-1.582 1.984 3.438 12.798-7.213-6.241-10.808z"/>
    <path id="B" d="M248.912 241.336l19.331-11.647 21.607 32.893-21.046 12.547z"/>
    <path id="C" d="M284.704 288.435l20.724-13.152 18.483 31.183-20.106 11.688z"/>
    <path id="D" d="M243.257 336.128l9.309 16.781 7.895-4.275-9.722-17.047z"/>
    <path id="E" d="M311.778 336.06l18.749-13.804 28.668 39.741-18.738 12.981-14.254-18.784z"/>
    <path id="F" d="M314.346 244.618l8.305-5.327 1.193 1.81 4.804-3.098 8.947 13.45-7.054 3.791 2.593 5.593-6.428 3.027z"/>
    <path id="G" d="M330.238 272.306l9.902 20.463 7.531-3.485-2.055-4.199 8.649-4.762-6.442-13.727-5.926 2.819-1.331-2.771z"/>
    <path id="H" d="M393.22 198.753l17.627-11.771 21.019 30.764-16.409 11.224-3.029-4.183-6.741 4.79-4.117-5.918 6.474-5.182z"/>
    <path id="I" d="M404.064 248.719l6.903 13.638 11.006-5.872-7.172-13.351z"/>
    <path id="J" d="M409.316 270.716l8.557 13.445 25.838-18.037-8.898-12.572z"/>
    <path id="K" d="M349.192 304.636l7.248 18.31 47.664-22.097-6.64-16.815z"/>
    <path id="L" d="M370.781 347.05l35.427-18.191 15.761-2.625-2.252-8.272 13.854-1.627 9.254 33.242-59.533 20.406z"/>
    <path id="M" d="M418.464 290.05l3.877 5.383 11.096-3.405-4.873-8.69z"/>
    <path id="N" d="M444.466 323.064l.831 10.93 4.307-.456 2.425 16.165 27.054-3.206-4.069-21.728-4.742.733-1.252-7.039z"/>
    <path id="O" d="M411.925 147.063l4.926 18.475 12.279-3.718-.544-2.424 12.169-3.227.535 2.36 8.416-2.456 1.721 6.852 18.492-5.682-4.356-11.78 18.248-5.367-5.147-17.554-19.176 4.317 3.584 15.668-14.631 4.33-2.578-9.577z"/>
    <path id="P" d="M490.67 123.816l5.164 20.443 26.97-6.407-5.765-21.2z"/>
    <path id="Q" d="M463.643 168.276l-.078 11.062h21.477v-11.062z"/>
    <path id="R" d="M452.699 188.631l3.056 13.969 31.493-8.279-3.218-13.415z"/>
    <path id="S" d="M494.561 176.745l6.056 23.357 34.615-9.912-6.464-22.309z"/>
    <path id="T" d="M537.376 147.275l4.96 22.848 36.67-10.009-5.923-22.803z"/>
    <path id="U" d="M537.266 106.83l18.806-4.888 1.16 3.322 40.723-10.891-6.773 20.242-20.209 6.159-1.469-7.094-5.305 1.343 1.667 6.508-20.845 5.594z"/>
    <path id="V" d="M466.865 229.534l3.646 18.194 33.171-7.876-4.041-14.304-9.196 2.434-.68-3.972z"/>
    <path id="W" d="M478.713 281.184l17.384-3.381-.47-2.569 13.765-2.641 1.654 9.312-9.65 2.151 1.688 10.132-20.503 4.388z"/>
    <path id="X" d="M541.452 216.46l-14.689 7.293-5.284 8.342-2.172 12.143 1.971 9.336 5.919 8.221 12.256-3.972 7.104-10.477 2.22-15.729s-.601-7.006-2.22-10.355c-1.618-3.35-5.105-4.803-5.105-4.803z"/>
    <path id="Y" d="M569.594 247.428l-3.164 5.386 8.154 4.862 3.101-5.962z"/>
    <path id="Z" d="M587.475 224.008l5.343-10.342-13.852-7.699-2.484 5.192 4.255 2.769-3.525 5.68z"/>
    <path id="aa" d="M694.66 113.378l-48.561 53.058-27.366 38.492 27.226 17.683 49.35-70.373 6.608 6.26 21.279-25.331-19.083-19.362z"/>
    <path id="ab" d="M618.72 204.963l-9.164 11.872 28.219 18.191 8.208-12.468z"/>
    <path id="ac" d="M609.698 216.899l-25.983 46.698-20.753 50.665 29.548 9.308 7.831-22.58 27.724-49.605 9.63-16.675z"/>
    <path id="ad" d="M560.578 321.577l30.131 9.592-7.437 20.216-27.349-4.398z"/>
    <path id="ae" d="M484.037 317.695l3.812-1.101-.062-4.038 4.611-.923 2.058 5.144 5.147-1.225-.828-4.123 5.533-.84.745 4.044 4.887-.748-.566-4.134 3.991-.805 4.567 25.044-28.839 6.405z"/>
    <path id="af" d="M527.367 309.219l13.026 1.687-.498 2.165 6.028.737-1.662 9.815-4.286-1.13.01 3.769-13.191-1.169-1.139-6.174z"/>
    <path id="ag" d="M526.22 326.023l1.786 21.114h18.427l2.558-19.018z"/>
    <path id="ah" d="M640.461 45.019l6.754 15.88 11.338-5.074-7.519-15.602z"/>
    <path id="ai" d="M712.63 60.739l7.157 16.19 24.77-11.25-7.584-16.012z"/>
    <path id="aj" d="M720.241 90.542l12.549 18.895 38.427-22.764-16.23-17.333-11.439 6.784z"/>
    <path id="ak" d="M607.337 320.226l.624 35.997 56.047-.486-.929-5.719 22.61-3.317 3.52-6.299-1.018-7.573-5.792-3.975h-4.286l-.877-14.088-18.665-.594z"/>
    <path id="al" d="M633.048 295.239l24.848-44.678-3.927-2.359 7.727-17.452 14.975 3.031 24.537 12.816-32.46 43.978-10.614 19.018z"/>
    <path id="am" d="M674.635 225.012l32.856-50.932 5.364-7.803-2.886-3.475 17.099-18.209 7.654 15.028 4.956 3.218 8.859 16.392L745 196.135l-40.936 48.288z"/>
  </defs>
  <g fill="none" fill-rule="evenodd">
    <path fill="#FFF" d="M-111-85h1304v629H-111z"/>
    <path fill="#B8E986" d="M326.267 544.98l-33.065-97.76s-1.7-37.312 20.784-59.991c22.483-22.68 164.805-64.491 164.805-64.491l185.78-40.397 23.968-50.785s18.886-45.381 48.062-55.095c29.176-9.714 119.215-53.12 119.215-53.12l94.915-36.19 260.513-105.294L-49.493 11.448l.737 555.101 375.023-21.568z"/>
    <path fill="#4990E2" d="M-.719 393.167l59.037-9.382 95.979-31.015 289.251-96.575 164.096-70.68 142.303-57.599L1100.291 0-17.6-21.243z"/>
    <path fill="#B8E986" d="M213.11 267.815c132.687-33.083 224.103-86.122 224.103-122.764 0-7.75 3.54-32.207-10.242-36.661-13.782-4.454-133.098 26.653-232.942 51.547-132.687 33.082-207.54 29.144-207.54 29.144s-21.739 122.243-7.612 125.16c14.126 2.916 135.373-21.777 234.233-46.426z"/>
    <g stroke-width="7">
      <path stroke="#F8E81C" d="M143.88 381.146l208.408-73.132 43.677-1.525 132.68-66.488"/>
      <path stroke="#9B9B9B" d="M146 387.573l208.408-73.132 43.677-1.525 132.68-66.488 122.117-55.748L932.937 74.565l160.552-60.272M274.223 346.322l19.158 59.11"/>
      <path stroke="#F8E81C" d="M138.48 385.635L-.245 423.885"/>
      <path stroke="#9B9B9B" d="M180.672 469.22l-38.447-82.281L96.037 246.42l-28.383-16.498-90.944-6.766M408.501 310.903l10.533 27.012M530.705 249.723l23.97 54.102M958.5 91.5l117.294 227.918M946.961 183.579l1.007 26.937-17.09 36.901-28.683 100.84-15.209 41.817-19.653 28.105-13.145 21.108-6.168 23.894 1.313 42.406M947.844 213.675l16.237 31.055s15.431 10.887 9.302 28.091c-6.13 17.204-18.613 34.917-18.613 34.917l-31.446 62.152-38.233 93.828-9.215 41.225"/>
      <path stroke="#9B9B9B" d="M779.756 504.237l133.176-1.12 18.422-53.45 29.348-52.18 31.628-42.299 64.618-74.187M886.723 465.637l36.353 11.247M854.31 238.598L865.5 277.5M858.516 246.363l90.241-46.134M904.08 206.618l8.495 15.948M804.083 256.095l12.589 30.676 1.233 32.909M634.355 296.321l.942 18.61M498.5 373.5l-49 24M1022.974 508.35l-3.085-28.083-17.186-22s-5.879-15.718 2.128-24.658c8.007-8.94 10.983-16.1 10.983-16.1l58.926-68.25M1050.5 378.5l25.183 35.235"/>
      <path stroke="#9B9B9B" d="M741.352 325.629l43.117 59.777 13.629 39.798 15.786 78.993"/>
    </g>
    <path stroke="#979797" stroke-width="15" d="M1156.663 9.316L890.984 112.342l-131.943 54.375s-35.97 12.646-51.771 42.546c-15.802 29.9-43.35 78.204-43.35 78.204M698.559 226.48L714.5 273.5"/>
    <path stroke="#9B9B9B" stroke-width="7" d="M491.879 324.691l20.689 118.586 26.852 71.008"/>
    <path stroke="#9B9B9B" stroke-width="7" d="M510.223 420.39l80.119-47.293s11.09-5.248 17.433 3.707c6.342 8.954 9.45 14.886 9.45 14.886s4.707 7.283 15.79-.665c11.083-7.949 105.567-63.5 105.567-63.5s5.523-9.43-.783-16.047c-6.306-6.617-23.173-31.612-23.173-31.612"/>
    <path stroke="#979797" stroke-width="15" d="M331.71 541.824s-57.615-114.375-29.091-143.08c28.524-28.705 68.976-41.01 68.976-41.01l112.268-34.111 179.576-37.36 80.122-16.649 78.018-23.788 33.43-12.408 237.07-137.652M90.148 564.636s151.69-174.5 201.73-147.873"/>
    <g opacity=".75">
      <g transform="translate(327 148)">
        <use fill="#D8D8D8" xlink:href="#a"/>
        <path stroke="#979797" d="M93.506 208.023L156.5 192.14l6.915 28.012-36.394 9.5-3.928-13.275-.138-.466-.47.124-25.394 6.686-3.585-14.7z"/>
      </g>
      <g transform="translate(327 148)">
        <use fill="#D8D8D8" xlink:href="#b"/>
        <path stroke="#979797" d="M1.06 249.036l5.253-1.48.486-.136-.142-.485-1.405-4.812 5.637-1.508 1.147 4.538.127.505.5-.148 12.561-3.715 4.538 14.766-24.533 7.222-4.17-14.747z"/>
      </g>
      <g transform="translate(327 148)">
        <use fill="#D8D8D8" xlink:href="#c"/>
        <path stroke="#979797" d="M26.965 236.681l8.26-3.077 3.553 10.076-8.13 2.93-3.683-9.929z"/>
      </g>
      <g transform="translate(327 148)">
        <use fill="#D8D8D8" xlink:href="#d"/>
        <path stroke="#979797" d="M50.043 266.787l-7.901-25.154 10.495-2.897.517-.143-.18-.506-6.042-17.041 19.532-5.947 6.608 21.496-19.36 6.044-.477.149.149.477 6.523 20.912-9.864 2.61z"/>
      </g>
      <g transform="translate(327 148)">
        <use fill="#D8D8D8" xlink:href="#e"/>
        <path stroke="#979797" d="M66.456 251.6L79.96 246l3.875 8.944-13.572 5.337-3.807-8.681z"/>
      </g>
      <g transform="translate(327 148)">
        <use fill="#D8D8D8" xlink:href="#f"/>
        <path stroke="#979797" d="M101.177 242.966l11.58-4.57 2.108 5.985-2.266.964-.41.174.127.427.737 2.495-8.86 3.215-3.016-8.69z"/>
      </g>
      <g transform="translate(327 148)">
        <use fill="#D8D8D8" xlink:href="#g"/>
        <path stroke="#979797" d="M13.796 278.02l7.791-3.082 1.969 5.723-7.781 2.828-1.979-5.47z"/>
      </g>
      <g transform="translate(327 148)">
        <use fill="#D8D8D8" xlink:href="#h"/>
        <path stroke="#979797" d="M10.364 298.595l14.044-3.89 4.088 14.15-14.552 3.792-3.58-14.052z"/>
      </g>
      <g transform="translate(327 148)">
        <use fill="#D8D8D8" xlink:href="#i"/>
        <path stroke="#979797" d="M27.9 293.343l17.42-5.595.503-.162-.19-.494-2.24-5.836 21.585-7.82 7.393 19.274-22.891 7.556-.842-2.345-.163-.453-.459.145-16.958 5.362-3.159-9.632z"/>
      </g>
      <g transform="translate(327 148)">
        <use fill="#D8D8D8" xlink:href="#j"/>
        <path stroke="#979797" d="M15.823 327.91l20.731-6.142 7.862 27.078-20.561 6.381-8.032-27.316z"/>
      </g>
      <g transform="translate(327 148)">
        <use fill="#D8D8D8" xlink:href="#k"/>
        <path stroke="#979797" d="M43.288 320.142l5.806-2.132.442-.163-.135-.45-1.612-5.357 11.067-3.251 1.63 5.453-3.84.989-.501.128.145.496 3.815 13.024-2.531.605-.52.124.159.51 2.524 8.118-10.43 2.941-6.019-21.035z"/>
      </g>
      <g transform="rotate(-21 662.538 -536.533)">
        <use fill="#D8D8D8" xlink:href="#l"/>
        <path stroke="#979797" d="M85.296 264.347h28.947v14.574H85.296z"/>
      </g>
      <g transform="rotate(-21 692.094 -532.27)">
        <use fill="#D8D8D8" xlink:href="#m"/>
        <path stroke="#979797" d="M120.247 271.472h18.158v8.85h-18.158z"/>
      </g>
      <g transform="rotate(-21 695.165 -517.694)">
        <use fill="#D8D8D8" xlink:href="#n"/>
        <path stroke="#979797" d="M126.35 284.596h12.092v11.753H126.35z"/>
      </g>
      <g transform="rotate(-24 659.742 -442.803)">
        <use fill="#D8D8D8" xlink:href="#o"/>
        <path stroke="#979797" d="M132.505 244.473h31.187v15.862h-31.187z"/>
      </g>
      <g transform="rotate(-17 817.703 -721.665)">
        <use fill="#D8D8D8" xlink:href="#p"/>
        <path stroke="#979797" d="M145.708 287.57h26.7v21.537h-26.7z"/>
      </g>
      <g transform="rotate(-17 828.599 -683.928)">
        <use fill="#D8D8D8" xlink:href="#q"/>
        <path stroke="#979797" d="M155.538 320.537h28.831v31.079h-28.831z"/>
      </g>
      <g transform="translate(327 148)">
        <use fill="#D8D8D8" xlink:href="#r"/>
        <path stroke="#979797" d="M66.513 355.21l12.79-3.833.275 1.014.127.466.47-.11 6.05-1.424 2.501 8.626-19.594 5.372-2.62-10.11z"/>
      </g>
      <g transform="translate(327 148)">
        <use fill="#D8D8D8" xlink:href="#s"/>
        <path stroke="#979797" d="M486.223 23.358l2.11-1.125.417-.223-.2-.43-4.198-9.03 26.825-11.396 10.725 23.474-28.84 12.707-6.839-13.977z"/>
      </g>
      <path fill="#8B572A" d="M619 241.623l11.537 26.904 38.759-15.728L656.497 225z"/>
      <g transform="translate(327 148)">
        <use fill="#D8D8D8" xlink:href="#t"/>
        <path stroke="#979797" d="M175.352 145.387l-4.397-11.057 35.517-13.005 2.487 7.002-10.92 3.857-.467.165.16.468 1.256 3.688-23.636 8.882z"/>
      </g>
      <g transform="translate(327 148)">
        <use fill="#D8D8D8" xlink:href="#u"/>
        <path stroke="#979797" d="M178.965 189.282l67.032-11.635 8.455 45.554-65.157 27.686-10.33-61.605z"/>
      </g>
      <g transform="translate(327 148)">
        <use fill="#D8D8D8" xlink:href="#v"/>
        <path stroke="#979797" d="M248.717 171.537l22.36-3.289 3.937 21.031-11.097 1.264-.822-3.646-.099-.44-.447.054-10.61 1.254-3.222-16.228z"/>
      </g>
      <g transform="translate(327 148)">
        <use fill="#D8D8D8" xlink:href="#w"/>
        <path stroke="#979797" d="M311.834 174.82l73.969-6.932 7.924 14.167-59.458 31.892-22.435-39.126z"/>
      </g>
      <g transform="translate(327 148)">
        <use fill="#D8D8D8" xlink:href="#x"/>
        <path stroke="#979797" d="M198.62 273.192l32.563-19.887 10.944 17.582-15.85 10.1-.401.257.236.414 8.928 15.611-15.145 7.534-.313.156.04.348.994 8.785-9.275 4.201-13.308-38.136 2.387-1.8.313-.235-.155-.36-1.958-4.57z"/>
      </g>
      <g transform="translate(327 148)">
        <use fill="#D8D8D8" xlink:href="#y"/>
        <path stroke="#979797" d="M216.303 345.19l13.56-5.919 2.376 4.801.213.431.44-.196 4.789-2.147 4.974 9.92-19.865 8.604-6.487-15.494z"/>
      </g>
      <g transform="translate(327 148)">
        <use fill="#D8D8D8" xlink:href="#z"/>
        <path stroke="#979797" d="M213.548 323.865l21.79-13.454 11.145 17.878-6.85 4.977-1.696-2.867-.25-.422-.427.242-14.37 8.154-9.342-14.508z"/>
      </g>
      <g transform="translate(327 148)">
        <use fill="#D8D8D8" xlink:href="#A"/>
        <path stroke="#979797" d="M237.685 303.43l22.027-12.865 5.737 9.935-11.926 6.723-1.737-3.01-.242-.42-.428.23-2.947 1.582-.432.232.223.436 1.771 3.455-7.038 3.64-5.008-9.937z"/>
      </g>
      <g transform="translate(327 148)">
        <use fill="#D8D8D8" xlink:href="#B"/>
        <path stroke="#979797" d="M249.594 241.509l18.496-11.143 21.056 32.054-20.166 12.022-19.386-32.933z"/>
      </g>
      <g transform="translate(327 148)">
        <use fill="#D8D8D8" xlink:href="#C"/>
        <path stroke="#979797" d="M285.396 288.588l19.865-12.607 17.962 30.306-19.256 11.194-18.57-28.893z"/>
      </g>
      <g transform="translate(327 148)">
        <use fill="#D8D8D8" xlink:href="#D"/>
        <path stroke="#979797" d="M243.927 336.306l6.632-4.025 9.214 16.157-7.01 3.796-8.836-15.928z"/>
      </g>
      <g transform="translate(327 148)">
        <use fill="#D8D8D8" xlink:href="#E"/>
        <path stroke="#979797" d="M312.472 336.17l17.945-13.212 28.074 38.918-17.925 12.418-13.965-18.402-14.129-19.722z"/>
      </g>
      <g transform="translate(327 148)">
        <use fill="#D8D8D8" xlink:href="#F"/>
        <path stroke="#979797" d="M315.037 244.769l7.468-4.79.921 1.397.273.414.416-.269 4.39-2.83 8.37 12.581-6.57 3.532-.416.223.199.428 2.384 5.142-5.582 2.628-11.853-18.456z"/>
      </g>
      <g transform="translate(327 148)">
        <use fill="#D8D8D8" xlink:href="#G"/>
        <path stroke="#979797" d="M330.895 272.516l9.45-5.18 1.1 2.295.217.449.45-.214 5.472-2.602 6.029 12.847-8.238 4.536-.417.23.209.428 1.83 3.74-6.621 3.064-9.481-19.593z"/>
      </g>
      <g transform="translate(327 148)">
        <use fill="#D8D8D8" xlink:href="#H"/>
        <path stroke="#979797" d="M393.938 198.875l16.776-11.202 20.457 29.943-15.595 10.667-2.743-3.79-.291-.4-.404.286-6.329 4.498-3.561-5.12 6.108-4.89.379-.303-.291-.387-14.506-19.302z"/>
      </g>
      <g transform="translate(327 148)">
        <use fill="#D8D8D8" xlink:href="#I"/>
        <path stroke="#979797" d="M404.734 248.934l9.86-5.128 6.702 12.474-10.114 5.396-6.448-12.742z"/>
      </g>
      <g transform="translate(327 148)">
        <use fill="#D8D8D8" xlink:href="#J"/>
        <path stroke="#979797" d="M410 270.858l24.687-16.618 8.325 11.762-24.997 17.45L410 270.859z"/>
      </g>
      <g transform="translate(327 148)">
        <use fill="#D8D8D8" xlink:href="#K"/>
        <path stroke="#979797" d="M349.836 304.905l47.352-20.21 6.278 15.898-46.756 21.677-6.874-17.365z"/>
      </g>
      <g transform="translate(327 148)">
        <use fill="#D8D8D8" xlink:href="#L"/>
        <path stroke="#979797" d="M371.465 347.26l34.902-17.92 15.685-2.613.545-.09-.145-.535-2.1-7.711 12.852-1.509 9.013 32.375-58.688 20.116-12.064-22.113z"/>
      </g>
      <g transform="translate(327 148)">
        <use fill="#D8D8D8" xlink:href="#M"/>
        <path stroke="#979797" d="M419.173 290.179l9.218-6.126 4.307 7.68-10.16 3.117-3.365-4.671z"/>
      </g>
      <g transform="translate(327 148)">
        <use fill="#D8D8D8" xlink:href="#N"/>
        <path stroke="#979797" d="M444.999 323.473l23.617-4.426 1.164 6.543.086.481.483-.074 4.263-.66 3.88 20.727-26.04 3.085-2.353-15.685-.071-.474-.477.05-3.794.403-.758-9.97z"/>
      </g>
      <g transform="translate(327 148)">
        <use fill="#D8D8D8" xlink:href="#O"/>
        <path stroke="#979797" d="M412.535 147.408l32.978-9.507 2.445 9.086.133.495.492-.145 14.631-4.33.45-.134-.104-.458-3.473-15.179 18.23-4.103 4.874 16.624-17.77 5.226-.513.151.186.502 4.173 11.285-17.483 5.371-1.593-6.34-.126-.504-.499.145-7.906 2.307-.417-1.842-.115-.505-.5.132-12.17 3.227-.466.124.106.47.443 1.97-11.34 3.433-4.666-17.501z"/>
      </g>
      <g transform="translate(327 148)">
        <use fill="#D8D8D8" xlink:href="#P"/>
        <path stroke="#979797" d="M491.275 124.17l25.413-6.904 5.498 20.219-25.988 6.174-4.923-19.49z"/>
      </g>
      <g transform="translate(327 148)">
        <use fill="#D8D8D8" xlink:href="#Q"/>
        <path stroke="#979797" d="M464.14 168.776h20.402v10.062H464.07l.07-10.062z"/>
      </g>
      <g transform="translate(327 148)">
        <use fill="#D8D8D8" xlink:href="#R"/>
        <path stroke="#979797" d="M453.291 189l30.37-7.489 2.986 12.45-30.515 8.023-2.84-12.984z"/>
      </g>
      <g transform="translate(327 148)">
        <use fill="#D8D8D8" xlink:href="#S"/>
        <path stroke="#979797" d="M495.17 177.103l33.253-8.616 6.19 21.36-33.64 9.633-5.802-22.377z"/>
      </g>
      <g transform="translate(327 148)">
        <use fill="#D8D8D8" xlink:href="#T"/>
        <path stroke="#979797" d="M537.965 147.63l34.762-9.701 5.671 21.832-35.685 9.74-4.748-21.871z"/>
      </g>
      <g transform="translate(327 148)">
        <use fill="#D8D8D8" xlink:href="#U"/>
        <path stroke="#979797" d="M537.933 107.174l17.82-4.632 1.007 2.887.153.438.449-.12 39.824-10.65-6.397 19.115-19.438 5.924-1.357-6.557-.106-.512-.507.128-5.305 1.344-.486.123.124.485 1.545 6.03-19.932 5.349-7.394-19.352z"/>
      </g>
      <g transform="translate(327 148)">
        <use fill="#D8D8D8" xlink:href="#V"/>
        <path stroke="#979797" d="M467.45 229.908l21.912-5.286.59 3.444.092.539.529-.14 8.72-2.308 3.766 13.329-32.16 7.636-3.449-17.214z"/>
      </g>
      <g transform="translate(327 148)">
        <use fill="#D8D8D8" xlink:href="#W"/>
        <path stroke="#979797" d="M479.312 281.576l16.88-3.283.485-.094-.088-.486-.381-2.081 12.78-2.452 1.482 8.341-9.182 2.047-.463.103.078.467 1.61 9.661-19.552 4.184-3.649-16.407z"/>
      </g>
      <g transform="translate(327 148)">
        <use fill="#D8D8D8" xlink:href="#X"/>
        <path stroke="#979797" d="M541.462 217.013a11.36 11.36 0 012.609 1.785c.854.783 1.55 1.675 2.036 2.681.486 1.007.915 2.443 1.284 4.192.275 1.308.5 2.713.68 4.119a58.62 58.62 0 01.202 1.814l-2.195 15.557-6.943 10.239-11.745 3.807-5.644-7.84-1.93-9.137 2.138-11.95 5.157-8.141 14.351-7.126z"/>
      </g>
      <g transform="translate(327 148)">
        <use fill="#D8D8D8" xlink:href="#Y"/>
        <path stroke="#979797" d="M569.783 248.094l7.23 3.83-2.628 5.051-7.272-4.336 2.67-4.545z"/>
      </g>
      <g transform="translate(327 148)">
        <use fill="#D8D8D8" xlink:href="#Z"/>
        <path stroke="#979797" d="M587.244 223.366l-9.3-3.988 3.218-5.187.258-.415-.41-.267-3.888-2.53 2.066-4.317 12.963 7.206-4.907 9.498z"/>
      </g>
      <g transform="translate(327 148)">
        <use fill="#D8D8D8" xlink:href="#aa"/>
        <path stroke="#979797" d="M694.871 113.888l9.024.407 18.626 18.898-20.645 24.577-6.223-5.895-.42-.399-.333.475-49.073 69.978-26.384-17.136 27.063-38.067 48.365-52.838z"/>
      </g>
      <g transform="translate(327 148)">
        <use fill="#D8D8D8" xlink:href="#ab"/>
        <path stroke="#979797" d="M618.835 205.633l26.453 17.072-7.659 11.632-27.344-17.627 8.55-11.077z"/>
      </g>
      <g transform="translate(327 148)">
        <use fill="#D8D8D8" xlink:href="#ac"/>
        <path stroke="#979797" d="M609.877 217.606l27.146 17.269-9.391 16.26-27.728 49.611-7.707 22.201-28.566-8.999 20.546-50.162 25.7-46.18z"/>
      </g>
      <g transform="translate(327 148)">
        <use fill="#D8D8D8" xlink:href="#ad"/>
        <path stroke="#979797" d="M560.968 322.226l29.09 9.26-7.114 19.34-26.437-4.251 4.46-24.35z"/>
      </g>
      <g transform="translate(327 148)">
        <use fill="#D8D8D8" xlink:href="#ae"/>
        <path stroke="#979797" d="M484.627 318.045l3.36-.97.367-.107-.006-.382-.055-3.622 3.795-.76 1.903 4.759.16.4.42-.1 5.148-1.225.47-.112-.096-.473-.725-3.608 4.536-.689.657 3.567.088.477.48-.073 4.887-.748.486-.074-.067-.488-.502-3.669 3.032-.611 4.389 24.07-27.881 6.192-4.846-21.754z"/>
      </g>
      <g transform="translate(327 148)">
        <use fill="#D8D8D8" xlink:href="#af"/>
        <path stroke="#979797" d="M527.776 309.776l12.006 1.555-.374 1.628-.124.54.55.068 5.508.674-1.483 8.76-3.756-.992-.63-.166.002.65.008 3.223-12.266-1.088-1.054-5.711 1.613-9.141z"/>
      </g>
      <g transform="translate(327 148)">
        <use fill="#D8D8D8" xlink:href="#ag"/>
        <path stroke="#979797" d="M526.768 326.575l21.658 1.995-2.43 18.067h-17.53l-1.698-20.062z"/>
      </g>
      <g transform="translate(327 148)">
        <use fill="#D8D8D8" xlink:href="#ah"/>
        <path stroke="#979797" d="M641.112 45.273l9.683-4.393 7.084 14.699-10.404 4.656-6.363-14.962z"/>
      </g>
      <g transform="translate(327 148)">
        <use fill="#D8D8D8" xlink:href="#ai"/>
        <path stroke="#979797" d="M713.287 60.989l23.445-10.663 7.156 15.108-23.848 10.831-6.753-15.276z"/>
      </g>
      <g transform="translate(327 148)">
        <use fill="#D8D8D8" xlink:href="#aj"/>
        <path stroke="#979797" d="M720.943 90.695l22.868-14.146 11.086-6.574 15.53 16.585-37.484 22.205-12-18.07z"/>
      </g>
      <g transform="translate(327 148)">
        <use fill="#D8D8D8" xlink:href="#ak"/>
        <path stroke="#979797" d="M607.845 320.67l50.785-6.002 18.135.583.85 13.634.028.47h4.601l5.481 3.761.966 7.187-3.318 5.94-22.367 3.28-.502.074.081.5.836 5.145-54.968.477-.608-35.05z"/>
      </g>
      <g transform="translate(327 148)">
        <use fill="#D8D8D8" xlink:href="#al"/>
        <path stroke="#979797" d="M633.725 295.05l24.608-44.246.235-.423-.415-.249-3.548-2.131 7.385-16.681 14.512 2.937 23.957 12.513-32.113 43.508-10.402 18.63-24.22-13.858z"/>
      </g>
      <g transform="translate(327 148)">
        <use fill="#D8D8D8" xlink:href="#am"/>
        <path stroke="#979797" d="M675.324 224.868l32.587-50.517 5.356-7.79.214-.312-.241-.291-2.604-3.136 16.31-17.368 7.33 14.394.061.12.112.073 4.85 3.148 8.71 16.118-3.472 16.602-40.568 47.853-28.645-18.894z"/>
      </g>
    </g>
  </g>
</svg>
