<svg xmlns="http://www.w3.org/2000/svg" viewBox="0 0 2034 1071">
  <g fill="none" fill-rule="evenodd">
    <path fill="#E5B123" d="M0-443h2034.4v1563.1H0z"/>
    <g fill="#41AA51">
      <path d="M618.2 543l-38.4 14.3-45.9 14.3-49.5 13.5-76.2 20.7-132.3 49.6-39-32.2-97 12.4-86.8 11.6L18.2 671l-61-2-15.5 5.6-7.6 11.7 5 10-59-8.6-15.8-2.7v-74l15 2.8 66.5 12.7 75.9 9.8 73.5-3.1 154.3-26.6 222.4-45.3 81.2-21 57.2-17.3zM580.9 435.6l-11 4-109 28.9-97 13.1-13.8 1.2-16.8 1.5-32.7 3-55.2 5-109.4-7.9-147.4 4-105.3 7.1-18.9-.7V387.2l14.9-1.7h.2l25.7-.9.9 83.3 136.5-3.2 217-13.3 159.2-28 15.7-17.2 3.7-10.3 18-14 21.1-11.3 20.7-.8 15.2 3.8 22.9 1.9 13 9.1 7.2 10.4 17.6 7.9v11.6l7 21.1zM592.5 417.9l8.3 9 14.9-5.9 67-20.1 33.6-7.5 32.4-14.9 22.8-4.2 5.6-5.3 29.4-8.5 17.3-12.1 24.4-3.7 64.6-42.3 15.8-12.6-1.1-16.7-14.6-5.6-29.9 24.7-39.3 29.1-28.9 11.2-14.1-10.4 6.7-17.1 23.7-31.2-38.4-2.1-59.7 20.9 3.4 17.2-15.3 23.3 1.6 18.4-13.4 7.3-49.2 24.5-51.9 9.8-10.1 13.9z"/>
    </g>
    <g fill="#1C258D">
      <path d="M360.6 669.5l7.5 30.8 34.2 8.9 9.6-13.2 5.5 3.1 1 3.4 14.8 8 19.1-31.2-3.5-11-7-22.3-33.7 9.6 4.2 12.5 8.4 5.8 1.6 3.1-3.7 5.2-6.3 1.6-8.7-26.9zM306.8 841.5l24 22 46.5-47.6 13.9-4 3.5-11.3-24.8-24zM298.1 794.9l2.7 31.4 11.1-.8 20.9-21.9-10.3-9.8zM413.7 728.9l2.9 9.3 5.3 6.9 11.1 2.2 11.1-.7 9.7-5.1-2.2-6.6-13.1 2.4-5.1-4.9-8.6 2.7-2.3-8.6zM2093-284.1l-62.2 52.1-148.4 124.1-19.6 9.7-18.4 14-53.3 23.6-45.8 16.8-80.5 20.8-82.9 22.8-83.2 13.5-31.5 5.9-11.5 4.8-26.4 6.6-31.9 13.7-28.1 7.7-70.6 18.2-68.1 16.4-77.2 6.9-59.8 3.4-31 1.1-67.1-.4-65.3-1.6-110.4-3.1-50.2 10.2-46.9 12.9-52.9 2.3L627 120l-20.1-14-28.8 1.5-10.7 6.9-23.5 4.2-22.2 5.7 2.6 16.4-30.7 18.5-16.9 2.1-9.8-1.9-19.9-3.6-66.8 14.1-111.5 17.7L140 208.4l-29.8-.2-21.3-6.3-5.9-1.7-36.2 4-119.4 14-63.1 5.4v154.9l80.7-6.8 98.4-8.6 94.2-7.5 106.1-9 107.1-5.6 100.4-9.8 20.6-2.1 3.5.3 25.5-8.1 75.4 2.6 21.2.9 40-1.8-.4-8.5 62.7-15.9 66.7-24.5 14.5-5.5 41.2-8.8 79.7-13.8 22.4-1.4 7.9 10.3-5.8 5.5 6.6 14.1 3.2 15-11.6 13-12.4 9-28.7 15.6L860 341l-10.1 8.7-17.7 1.1-10.4 5-15.1 9.5-18.5 3.1-16.9 10.2-14.6 1.5-17.8 9.8-10.6 1.5-11.7 5.9-19.9 2.6-18.2 9.2-55.7 13.8-19.6 9.4-22.2 3.1-11 4-109 28.9-97 13.1-13.8 1.2-16.8 1.5-32.7 3-55.2 5-51.8 12.2-36.4 3.6-29.1 4.4-25.3 2.8-42.4-1.6-77.6-5.5-30.1-3.7-69.6-8.7-18.9-.7v116l15 2.9 66.5 12.7 75.8 9.8 73.5-3 154.3-26.6 222.5-45.3 81.2-21 57.2-17.3 70-21.1 153.5-44.5 71.8-30.9 103.2-46.6 188.4-76.9 71.7-28.4 69.3-25.8 84.6-35.5 26.2-8.9 23.7-8.1 49-12.5 67.7-23.9 124.8-27.9 2.9 3 71.6-13.5 161.2-37.8 128.4-21.2 111.8-29.5 49.1-10.8v-183.4l-7.4 2-36.4 14-19.4 5.9-10.4-4.2-6.5-7.1-2-14.4.9-13.5 14.1-23.7 57.3-63.4 9.8-10.9v-176.3l-22.7 36L2093-284.1zm-1448.1 532l-13.2 4.4-39.1 4.5-.7 11.3-5.2-1.6-10.9.4-12.7 4.7-39.8 4.1-40.5 4-11.2-1.3-6.7-7-3.9-9.7.7-11.2 9.1-10.3 11.2-8.5 14.6-2.6 24.9 3.7-.3 4.1 65.9-4 38.5-7.8 15-.8 16.4 11.9-12.1 11.7zM1989.7 198.6l6.2 12.6 14.3-7.1 15.6-7.7-6.2-12.6-16.3 8.1zM1555.4 814.3l.2 1.3.7 1.2 1 .9 1.2.6 1.4.2 1.4-.3 1.3-.8.9-1.1.5-1.4v-1.5l-.5-1.4-.9-1.2-1.3-.7-1.5-.3-1.5.2-1.2.7-.9 1-.6 1.2zM372.7 645l1.4 4.9 18-5.1-.8-2.6-.6-2.3z"/>
      <path d="M407.6 158.1h257v140h-257z"/>
    </g>
    <g stroke="#FFF" stroke-linecap="round" stroke-linejoin="round">
      <path d="M574 414.3c14 43.1 27.6 86.5 44.3 128.7M618.2 543c4.8 14.5 8.4 30.5 15.1 44.1 7.8 15.7 17.8 31.8 28.3 45.8M1350.6 269.3c8.2 1.9 16.4 3.7 24.6 5.3M574 414.3c0-3.9 1.1-9.4-1.2-12.1-3.4-4-12.1-3.9-16.2-7.2-3.2-2.6-4.3-7.8-7.5-10.5-3.6-3-9.3-4.8-13.4-7-4.5-2.3-11.2-4.4-15-7.7-3.2-2.9-5-8.4-7.4-12-5.1-7.6-13-13-17.9-20.8M661.7 633c12.6 21 24.7 42.4 37.7 63.2 10.1 16.3 28.1 29.4 41.7 42.8 30.9 30.5 60.4 62.8 92.2 92.4 9.1 8.5 17.7 18.2 28.3 24.7 7.1 4.3 9.9 7.7 18.2 4.8 5.2-1.8 9.6-5.9 14.1-9.1M1388.8 25.7c-14.5 1.2-29 2-43.5 2.9M1762.7 404.9l-26.1 14M2009.1 812.9c7.5 15 15 29.9 22.6 44.9 4.2 8.3 8.3 16.5 12.5 24.8 3.4 6.9 2.8 6.2 10.9 5.3 15.2-1.7 25.9-8.4 39.6-15.4 15.1-7.7 30.2-15.5 45.4-23.2"/>
      <path d="M2047.2 888.7c-3.6 8.3-6.8 22.9-13 29.3-6 6.1-20.2 9.8-27.7 13.5-23.5 11.4-47.1 22.9-70.6 34.3M1474.9 202l33.8-10.9M1707.1 435.5l-7.1 8.4M1698.4 372.9l28.2-20.1M618.2 543c61.2-19 121.8-39.4 182.5-60.1 13.9-4.7 27.6-11.5 41.8-15 15.5-3.9 31.9-2.2 47.5-5.2 12.7-2.5 27.5-13.2 39.1-19 13.6-6.9 27.3-13.6 41.1-20 32-14.9 63-30.9 95.7-44.1"/>
      <path d="M760.1 496.4c2.9 11.8 5.8 23.6 8.8 35.4.9 3.5 1.2 9.2 3.1 12.4 2.4 4 8.7 7.6 12.2 10.7M1944.5 522.9c23.5-11.7 61.9-23.5 86.6-32.1M1971.1 581.3c2.9-1.9 10.7-7.1 14-7.8 3-.7 5.5 1.3 8.6 2.8 7.5 3.7 14.1 5.9 22.2 8.2 8.7 2.5 13.4 4.7 22 2.3 8.6-2.4 13.8-4.8 21.3-9.7M1955.5 517.8l22.3 59.2M556.3 394.9c50.4-5 99.8-18.8 145.9-39.8 10.4-4.7 20.8-10.5 32.4-11.5 13.2-1.1 28.6 2.4 41.4-.5 10.9-2.4 22.6-11.6 32.4-17.1 11.2-6.2 22-13.5 33.5-19.1 12-5.9 24.9-10 35.3-18.7 11.8-9.8 22.3-20.2 34.5-29.6-29.5-2-58 5.7-86.7 11.9-12.1 2.6-25.6 3.5-37.4 6.8-14.5 4-29.4 11.5-43.1 17.7-26 11.7-51.1 25.3-77 37.2-10.2 4.7-21 11.8-31.9 13.8-15.7 2.9-30.4 2.4-46.2 2-13.9-.4-28.3.8-41.9-1.6-17.1-2.9-32.3-5.2-49.6-6M586.3 391.1l4.1-13.4M590.9 361.7l-3.1-13.9"/>
      <path d="M590.4 377.7c10.5-2.5 7.4-18.4-3.1-15.9-9.8 2.4-6.6 17 3.1 15.9M841.9 306.9c-2.6-5.7-7.4-5.5-12.5-7.5-5.5-2.1-9.7-6.1-14.7-9.1-8.4-5.2-18-8.8-26.9-13.1M663.2 371.1l-8.4-33.2M720.3 346.8c-6-10.3-11.4-21-19.1-30.2M263.4 959.9L255 834c-2.1-31.6-6.2-63.2-7.9-94.9l-2.4-43.4c-.5-9.1 4-16 7.7-24.3M1568.8 351.2c4.9-2.1 13.7-7.2 18.8-2.9 3.3 2.8 5.4 11.9 7.1 15.7 5.2 11.5 10.4 22.9 15.6 34.4 2 4.4 3.6 10.3 7.2 13.4 3 2.6 16.2 10.3 20.1 10.1 3.6-.2 9.9-8.2 12.8-10.7 3.8-3.4 7.6-7 11.5-10.2 11.9-9.7 24.4-18.9 36.6-28.3M1672.1 148c-4.8 9.8-3.8 10.2-14.6 10.1-11.3-.1-9.6-.2-10.9 11M639.5 345.4l-1.1-10.8M435.3 826.4c2.4-4.9 3.9-9.9 8-13.2 6.2-5.1 14.7-8.7 21.6-12.8 8.6-5.1 20.2-9.2 26.9-16.4 4.4-4.7 7.3-11.2 11-16.5 5.5-7.9 6.4-8.6 3.5-17.9-4-12.4-11.3-24.1-17.1-35.8-10.5-20.9-14.9-46.7-21.1-69.2-2-7.4-1.7-7.6-8.7-10.6-4.2-1.8-10.4-5.9-14.9-5.7-6 .2-14.1 5.1-19.7 7.1-7.4 2.7-14.9 5.3-22.3 8-20.1 7.5-41.9 10.9-61.4 19.5-21 9.2-56 17-55.2 45.7.3 13.5.7 27.1 1.2 40.6.2 6 1.3 12.6.4 18.6-.8 6.2-4.3 12.2-5 18.4-1.7 13.9.5 29.3.8 43.3.2 9.5 5.8 21.8 11.4 29.4 5.1 6.9 19.8 21.6 29 23.5 9.5 1.9 26-5.8 35-8.8 11.1-3.7 21.6-7.8 32.3-12.4 8-3.5 16.1-7 24.1-10.5 3.5-1.5 8.3-2.7 10.9-5.5 4.1-4.6 6.5-13.2 9.3-18.8M1388.9 664.2c-5.2-19.7-1.4-50.1 8.7-67.6 11.4-19.8 26.1-37.2 36.1-58 5-10.4 7.5-20.6 9.2-32.1 1.8-11.9 1.4-23.8 6.2-34.9 5.1-11.7 9.6-23.7 14.2-35.7 3.6-9.1 5.2-18.9 8.9-27.9 2.4-5.9 5.8-11.5 7.9-17.5 2.8-7.9 5.4-12.5.3-18.9-1.3-1.7-5.1-8.5-7.1-9-1.7-.4-3.9 1.7-5.7 2.9-5.8 3.8-10.9 7.7-16.2 12.2M1986.3 572.7c-5.9-20.4-11.4-39.6-20.3-58.9M1066 379.5c68.1-30.4 136.4-60.7 204.6-90.8 15.7-6.9 31.5-13.9 47.2-20.8M1819 341.6l-56.4 24 18 31-17.9 8.3M1837.9 350.6c-8-2.2-13.4-2.7-18.9-9M1216.1 449.3c31.6-8.6 63.1-17.6 94.9-25.8 30.1-7.7 58.8-20 89-27.1 18.2-4.3 34.1-11.2 51.3-18.7M656.9 626.5c36.6-28.3 72.9-62.4 115-82.4M1472.8 362l12.2-15.9 11.6-9.1c45.4-28.3 93.2-52.6 138.1-81.7 13-8.4 25.4-14.8 39.5-21.1"/>
      <path d="M441.1 814.5c-15-1.7-27-2.6-39.1-12.4-7.3-5.9-13.8-13.1-20.7-19.5-3.4-3.2-8.5-10.4-12.3-9.3-2.5.7-6.3 6.3-8.1 8.1-4.1 4-8.1 8.1-12.2 12.1-3.8 3.8-7.7 7.6-11.5 11.5-11.4 11.4-22.9 22.8-34.3 34.2 3.9 3.7 7.7 7.4 11.6 11.1 5 4.8 11 13.1 17.1 16.4 4.4 2.3.8 2.4 5.1-.3 5.3-3.4 10-10.3 14.3-14.8 9.4-9.8 18.8-22.7 29.7-30.8 3.8-2.8 9.1-2.6 13.1-5 4.1-2.5 6.7-8 9.5-12.1"/>
      <path d="M303 839.1c.7-4-2.2-6.3-3.2-9.8-1.1-4-1-8.9-1.4-13l-3.3-30.4c7.5.6 18.3-.8 25.2 2 6.1 2.4 12.9 11.7 17.9 16.2M282.3 786.2c-10.3-.7-20.2-1-30.6-.7M508.9 758.9c4.6-.5 14-3.2 17.5-1 4.3 2.8 7.9 15.3 10.4 20.1M485.7 707c-.4 4.4.2 9.1-2.7 11.8-3.2 3-11.2 4.5-15.4 6.1-9.4 3.6-18.7 6.3-28.4 8.9M473.5 664.5c-8.8.5-16.5.3-24.6 3.7"/>
      <path d="M357.1 668.6c.8 4.4 1.7 8.8 2.5 13.2 1 5.4 1 14.4 3.7 19.3 3.4 6.2 16.3 7 23.5 9.1 2.8.8 11.2 4.8 14.1 4 3.6-1 5.2-8 8.5-10.1 3.9-2.6 4-.7 9 2.8 2.3 1.6 11.4 10.2 14.2 9.9 1.5-.2 4-5.2 5-6.5 4.3-6 8.6-11.9 12.9-17.9 6.8-9.4 7.2-13.1 4.9-25.3-.8-4.3-4.4-23.5-7.9-25.1-1.7-.8-8.8 2.4-10.5 2.9-7 1.9-14.1 3.9-21.1 5.8-19.8 5.2-39.2 11.7-58.8 17.9M404.3 653.6l-4.2-9.3M1519.2 187.4c28.5-9 56.8-18.5 85.8-26 26.2-6.7 52.5-11.4 79.4-15.1 67.5-9.3 134.4-19.6 201.5-31.6 62.8-11.2 125.2-25.8 187.6-39 54.6-11.5 108.1-25.8 162-40.4 27.1-7.4 54.4-14.4 81.3-22.7 29.6-9.1 59.9-14.1 89.5-22.9l21.4-6.3M1317.9 267.9c27.1-11.2 54.5-22.1 81.5-33.6 25.2-10.7 49.7-23 75.5-32.2M1042 389.2c7.5 23.7 13.1 49.1 24.3 71.3M1082.1 1052.4c-11.3-35.2-22.7-70.4-34-105.6-1.6-4.9-2.4-9.5-3.3-14.6-1.8-10.2-5.5-13.6-11.2-22.4-7.6-11.8-15.8-26-20.1-39.3-6.4-19.5-10.7-40-16-59.8M1761.3 328.5l23.7-6.9M1785 321.6c.3-4-.8-14.3 1.2-17.5 2.7-4.4 13-8.3 17.3-11.2 9-6 17.6-12.8 27.2-17.9 7.8-4.1 15.7-8 23.6-12 6.6-3.4 9.7-2.4 7.2-9.5-5-14.2 7.3-29.2 14.9-41.2M1726.6 352.8l34.7-24.3M1736.6 418.9c-10.5 5.1-20.1 9.7-29.5 16.6M917.8 494.6L904.6 456M2065 731.8c1.8-6.3 5.7-14.1 5.3-20.4-.5-7.9-4.9-19.8-8.1-27-2.5-5.5-8-10.1-9.7-15.8-2.4-8.1-.2-17.6-2-25.8-3.5-16.4-12-32.9-17.7-48.7-4.4-12-7.8-24.4-11.6-36.6-5.8-18.9-11.7-37.8-17.5-56.7M1508.7 191.1l10.5-3.7M1700 443.9l-8.5 16.7M1171.6 332.4c2.8 10.8 5.6 21.7 8.5 32.5 2 7.5 3.9 15 5.9 22.6.9 3.6 1.3 10.8 3.6 13.7 2.2 2.8 8.4 4.2 11.8 5.8 6.1 2.7 7.8 2.4 9.3 8.3 2.7 10.8 3.4 23.1 5.4 34.1M1253.1 451.5c-3.9-10.2-6-19.9-8.2-30.6"/>
      <path stroke-width="5" d="M1798 852.1s-169.4 30.5-208.2 43.1"/>
    </g>
    <g stroke="#FFF" stroke-linecap="round" stroke-linejoin="round">
      <path d="M1843.8 149.2c7.5 22 16.6 43.4 25.2 65"/>
      <path stroke-width="5" d="M1797.8 847.5c2.2-11.8 4.6-14 13.3-22"/>
      <path d="M1488.8 904.3c-2.3-4.6-4.2-10.1-7.4-14.1-4.7-6-11.7-11-17.3-16.1-8.9-8.4-18.7-15.7-28.3-23.2-9.3-7.3-20.8-14.6-26.9-25.1-6.5-11-4.7-22.9-3.2-34.9M1355.4 669.1c-19.7 2.3-37.8 4.9-56.9 10.3-8.8 2.5-18.2 4.4-26.9 7.5-9.7 3.5-18.9 9.1-28.1 13.7-16.2 8.1-28.1 20.6-41.5 32.8-12.5 11.3-26.1 21.4-39.4 31.9-18.3 14.4-36.6 28.8-55 43.3"/>
      <path d="M1107.6 808.5c12.3 19.6 25 37.8 32.9 59.5 7.6 21.1 16.9 41.1 25.1 61.9 9 22.9 19.6 45.7 26.4 69.4 3.4 11.8 5.9 24.3 10.4 35.6 3.5 8.7 8.4 17.1 12.7 25.5 8.4 16.1 16.7 32.3 25.1 48.4 4.4 8.5 9 22.1 17.2 27.3M893.8 851.7c5.1-3.6 2-7.9 7.4-10.4 7-3.2 15.3-4.9 22.7-7.2 20.5-6.5 40.9-13 61.4-19.5 12-3.8 22.7-5.5 35.4-7 13-1.6 25.7 2.9 38.2 6.4 8.7 2.4 17.1 5.7 26.4 3.7 7.8-1.7 15.4-7 21.7-11.6M777.4 574.9c-7.7-1.4-16.1-3.8-23.9-3.6-10.6.3-15.9 2.1-24.4 7.7-15.5 10.3-29.2 21.7-43.5 33.8-9.8 8.3-20.3 15.9-28.6 25.6-12.8 14.9-25.6 29.8-38.5 44.6-47.8 55.5-95.7 110.1-145.9 163.5-27.1 28.8-54.1 57.7-81.2 86.4-4.9 5.2-9.6 11.5-15.1 15.9-4.2 3.4-7.4 2.9-13.2 3.3-24 1.8-48 3.7-72 5.5-31.4 2.4-62.9 5.9-94.4 7.6-36.9 2-73.6 2.6-110.5 5.3-11.7.8-23.4 1.7-35.2 2.5-6.8.5-9.3.5-10.3 8.5-1.1 8.6-.9 21.8 6.2 27.9 2.8 2.4 1.3 2.1 4.1 2.4 3.3.4 8.9-2.3 12.1-3.2 22-5.7 44.3-11 66.2-17.3 16-4.6 31.5-11.9 47.1-17.9 7.1-2.8 14.2-5.5 21.3-8.3M1107 806.1c-39.4-82.7-78.7-167.5-98.1-257.5-2.5-11.8-5.2-23.5-7.9-35.3-2.7-11.8-3.7-25.5-8.2-36.7M1497.8 745.6c9.6-.9 19.6 1.9 25.7 7.2 2.8 2.4 9.2-.5 13.5 2.2 3.1 2 5.5 6.9 7.8 9.8M1455.5 667.8c.4 8 .7 16 1.6 24 .9 8.2 4.9 15.4 8.1 23 3 7.2 5.2 14.2 10.3 20.1 2.2 2.5 6 9.1 9.2 10.5 3.2 1.4 9.4.2 13 .3M1617.7 447.6c-64.4 33.4-106.4 117.4-138.3 173.5-8.6 15.2-16 31.1-23.8 46.7M1355.4 669.1c-5.6-5.2-11-9.8-13.2-17.4-2.2-7.7-1.6-16.6-3.3-24.5-3.3-15.8-5.5-32-9.4-47.6-2.1-8.3-3.9-16.9-6.6-25.1-2.4-7.4-7.9-12.9-12.7-19.1-9-11.7-18-23.2-26.3-35.4a939.48 939.48 0 01-30.7-48.4M1107 806.1c.5.7.8 1.5.6 2.3M1604.5 256.9c4.2 6.4 8.7 16.5 17.6 17.3 3.3.3 8.7-2.1 11.8-2.9l19.6-4.8c8.1-2 17.4-5.4 25.7-6.3 9.8-1 20.6.8 30.4 1.3 17.9.8 37.5-2.4 55.1-5.3 16-2.6 32.1-7.2 47.8-11.4 12.4-3.3 26.9-5.3 38.6-10.5 7.7-3.4 12.7-13.3 17.7-20.2M877.5 849.3c6.6-2.2 17.2-5.5 23.7-7.9"/>
      <path stroke-width="5" d="M1904 772.3c9.3-5.9 18.6-11.8 27.8-17.8 7.6-4.9 16.9-9.2 23.3-15.5 6.3-6.1 12.6-13.6 14.8-22.1l10.5-40.1c5.1-19.6 3.1-40.9 2.7-61.1-.2-8-3.9-14.6-6.9-22-3.9-9.8-8.1-19.5-11.8-29.3-8.5-22.2-22.9-50.7-34.8-69.8"/>
      <path d="M1547.6 768.5c10.8 14 22.6 22.8 38.4 30.2 8 3.8 14.6 8.6 23.4 7.6 8.5-1 16.8-1.7 25.4-2.1 16.6-.7 34.1.4 50.5-2 15.3-2.3 30.2-8.1 45.3-11.3 12.7-2.7 25.6-5.2 38.3-8 4.8-1.1 10.9-2.3 13.7-4.8"/>
      <path stroke-width="5" d="M1811 825.4c30.8-18 61.9-35.6 93-53.1"/>
      <path d="M1405.8 790.8c.9-11.7 3.3-23.7.7-35.3-2.1-9.2-6.3-18.2-10.3-26.7-5.2-11-9.4-24.5-16.4-34.5-6.4-9.2-16.6-17.1-24.4-25.2M403.4 352.6c-4.6 3.5-9.5 8.7-14.8 10.7-7.5 2.8-17.5 2.7-25.4 4-13.7 2.1-27.1 5-40.6 8-6.7 1.4-13.9 2.3-20.4 4.4-6.1 2-11.5 6-17.5 8.3-12.6 4.7-28.9 5.8-42.3 7.6-58.1 7.5-117.4 9.5-175.8 14.2l-109.3 8.7c-8.1.7-17.5.1-25.5 2-8.7 2.1-16.8 11.8-10.1 19.8 6.9 8.3 27.6 3.8 36.7 3.3 7-.4 14-1.1 20.9-1.7l105.9-8.4 121.2-9.6c13.2-1 26.3-2.1 39.5-3.1 2.8-.2 7.9.4 10.5-.8 3.5-1.6 1 1.3 2.5-2.9 2.2-6.1-.7-17.4-.9-24M495.3 337c-3 9.6-5.5 15.9-11.3 24-6.7 9.4-11.5 12-21.8 17.6-8 4.3-14.3 10.4-21.8 15.5-7.1 4.8-15.9 7.3-23.9 10.6M483.5 158.6l-1.5-19.4"/>
      <path d="M-146.2 387.5c6-.5 12-.9 18-1.4 52.3-4.1 104.9-6.7 157.3-10.6 68.3-5 136.6-11.5 205-15 29.2-1.5 58.6-.8 87.8-2.1 27.1-1.2 56.1-1.4 82.8-6.2 17.9-3.2 35.7-8.7 53.3-13 5.5-1.3 11.6-3.8 17.2-4.2 6.4-.5 13.7 1.3 20.1 2M1355.4 669.1l31 1.3M1900.2 328c-20.7 7.8-41.4 15.5-62.3 22.6 15.2 26 33.3 49.9 47.1 76.7 13.1 25.3 24.4 45.3 37.3 70.6M1153 902.3c36.6-15.3 73.2-30.5 109.8-45.8 14-5.8 30.8-10.4 43.8-18 7.9-4.6 14.4-12 21.9-17.3 7.1-5 15.4-9.5 23.2-13.3 9.2-4.4 20.2-5 30.1-7.2 9.1-2 15.9-5.5 24-10.1M1434.9 669.2l20.6-1.4M1678.6 873.9c-11.5 15.5-24.5 30-36.6 45-12.1 15-21.2 29.9-30.9 46.6M831.2 732.4c50-16.7 101-30.2 151.7-44.9M1269.6 479c-41.3 26.7-85.8 48.7-126.1 76.8M1868.9 214.3c50.2-12.9 99.1-35.9 145.4-59 8.2-4.1 18.9-7.5 26.2-13.1 4.6-3.6 6.7-10.2 9.3-15.6M1886.9 430.9l41.7-21.5M1621.8 274.3c-4.5 5.7-8.1 8.5-6.1 16 1.3 4.9 4.5 9.9 6.6 14.4 6.3 13.8 12.6 27.5 18.9 41.3M1225 507.2l26.7 51.8M1303.8 527c-7.5 4.1-15.1 8.2-22.6 12.3-3.9 2.1-14.2 9.9-17.5 8-2.1-1.2-4.6-8.4-5.7-10.4-2.9-5.3-5.7-10.5-8.6-15.8-3.9-7.2-7.8-14.4-11.8-21.6M1269.6 479c21.4-13.3 49.7-12.2 74.1-13.9M1380.4 382.3c2.5 7.4 5.2 14.8 7.6 22.2 3 9.3 9.6 21.5 10 31.3.3 8.1-5.4 18.8-12.3 23.1-7 4.4-18.6 5.3-26.7 7.6M1328.5 575.6c10.5-2.8 23.1-4.2 32.6-9.2 12.9-6.8 14.7-15.6 19.7-28.6M1333.7 818.1l17.1 27.8M1284.3 683.4l25.4 48.7"/>
      <path d="M1348.9 713.8c8.4 16.9 16.9 33.8 25.3 50.6 2.2 4.4 4.1 10.5 7.7 13.7 6.2 5.5 16.7 8.8 24 12.7M1067.2 722.7c7.3-3.8 13-8.9 21-4.7 7.4 3.8 14.2 11.4 20.7 16.6M1457.6 696.6c1.8 10.8 1.9 24 5.9 34.1 4 10.3 13.3 20.9 19.5 30.2M1749.3 766.6c-7.1 2.4-19 4-24.8 8.5-3.5 2.8-2.2-.2-2.3 5.2-.1 3.9 1.2 8.2 1.7 12.1M1640.3 881.6c-3.1-13.6-6.2-27.2-9.4-40.8l16.4-2.4M1386.4 670.4l35.7-1.2M1202 733.4c-6.8-7.3-11.8-12.3-4.6-21.1M534.6 780.7L553 803l84.5-123.2M637.5 679.8c4.8-2.7 11.6-8.8 17-9.7 3-.5 14.2 2.6 16.6 5 4.1 3.8 8.1 15 5.9 19.7-2.8 5.9-10 11.9-14.2 16.9L637.3 742 501.9 902.9c-11.9 14.1-23.8 28.3-35.7 42.4"/>
      <path d="M466.3 945.3c-7.2-3.2-26-6.5-22.2-17.7.8-2.4 4.7-5.4 6.4-7.3 4.2-4.8 8.4-9.6 12.5-14.4 23.7-27.2 47.5-54.4 71.2-81.5l18.8-21.5M1443.6 856.9c8.4-5.8 16.8-11.5 25.4-17.1 4.9-3.2 9.8-6.3 14.7-9.5 2.9-1.9 9.1-7.6 12.2-7.9 6.6-.5 21 14.1 26.6 18.2 8 5.9 16.1 11.8 24 17.7M2140.5 121c-.5-6.2-3.1-15.7-10.1-18.2-3.9-1.4-11.8.6-15.9.8-20.8 1.1-41.7 2.1-62.5 3.2-12.6.6-25.1 1.5-37.7 2.3-5.2.3-19.5-1.4-23.8 1.5-3.7 2.5-5.4 15.3-6.4 19.6M1575.8 272.8c-3.8-5.6-6.9-10.4-9.7-16.7-1.4-3.1-6.8-11.3-5.7-13.9.7-1.6 8.8-4 10.3-4.6 7.4-3.3 14.8-6.7 22.2-10 27.4-12.4 54.8-24.8 82.1-37.1M1277.4 378.7c28.9-11.1 58.7-20.8 86.3-34.9 29.7-15.2 59.3-30.3 88.2-46.8 11.5-6.6 23.1-13.1 34.6-19.7 5.6-3.2 12.3-5.9 16.9-10.5"/>
      <path d="M1512.1 284.4c-21.9 12.6-43.9 25.2-65.8 37.8-19.4 11.1-38.5 23.8-58.6 33.6-26.2 12.7-54.2 22.7-81.1 33.9-5.6 2.4-17.2 8.1-23 4-2.9-2-5.1-12.9-6.3-16.4-1.9-5.6-4.7-12.5-4.3-18.2.5-6.6 1.9-9.9 6.7-12.8 6.8-4 15.4-6.2 22.6-9.1 13.5-5.4 27-10.9 40.5-16.3-2.5-5.6-5-11.1-7.5-16.7M1421.3 276.6c18-8.6 36.2-19.6 55-26.1 3-1 12-4.3 14.9-3.5 2.6.8 5.4 7.3 7 10 5.5 9.1 10.2 17.4 13.9 27.4M1890.6 208.1c-4-11.5-7.1-22.7-11-34.3"/>
      <path d="M1351.9 349.3c-1.1-5.4-1.8-17.9-9.5-19.3-4.8-.9-17.6 7.4-21.9 9.2-16 6.7-31.7 13-46.9 21.5M1882.4 182.1c20.5-7.9 39.7-14.5 61.3-18.8 8.7-1.7 17.7-2.3 26.6-3.4 6.3-.7 13.6-2.7 19.9-2.3 5.6.3 4.4-.1 8 5.7M1495.2 251.9c-17.9 9.3-35.9 18.6-53.8 27.9-5.8 3-14.7 5.7-19.5 10.1-1.6 1.5-6.1 8-6 10.1.2 2.9 6.8 9 8.7 11.4M1005 530.5c-12.6 5.7-25.5 11-37.9 17-3.3 1.6-13.2 4.7-14.6 7.7-1.3 2.8 3.9 12.7 5.1 16.1M1421.3 276.6c-13.5 8.4-26.2-2.6-36.1-11.9M819.9 611.3l58.9-26.3M1143.5 555.8c-1.8 6.7-3.8 13.4-5.4 20.2-1.5 6.5 1 9.2 4.2 15.3M1324.5 294.6l10.9 9.7M1345.1 282.2l-9.7 22.1M1756.3 430.8l33.6-17.3-9.3-16.9M1143.5 555.8c-8.5-1.1-8.4-3.7-12.8-11.2-2.7-4.5-5.8-13.1-10.1-16-8.8-6.1-22.5 9.7-30 13.9-24.2 13.7-50.1 24.8-75 37.2"/>
      <path stroke-width="5" d="M1639.9 491.7l38.7-24.3s15.8-9.5 23.1 3.6c7.3 13.1 59.5 95.4 59.5 95.4s6.9 8.5 15.3 3.7 154.1-85.8 263.8-115.6"/>
      <path d="M1789.9 413.5l67.3 115.1"/>
    </g>
    <g stroke="#FFF" stroke-linecap="round" stroke-linejoin="round" stroke-width="5">
      <path d="M1597.1 260.5c-38.9 22.4-77.4 45.5-116.6 67.5-17.5 9.9-35.4 19.2-53.1 28.8-19.4 10.5-38.7 22.4-58.9 31.3-22 9.6-46 17.2-69.5 22.2M1693 207.8l-29.1 15.3M973.6 1183.5c-2.9-21.5-6-42.3-11.1-63.4-4.9-20.4-11.1-40.2-17.2-60.3-12.7-41.5-24.4-83.4-37.5-124.8-24-75.6-55.1-148.8-84.5-222.4-8.7-21.7-17.4-43.3-26-65-5.7-14.7-11.5-29.4-17.2-44-3.6-9.1-2.4-18.9-2.6-28.6M1236.2 422.8l-14.5 3.1M1843.8 149.2c-10.1.1-21.4-1.4-31.3.4-9.3 1.6-19.2 6.3-28.1 9.5-20.9 7.6-41.2 16.1-61.4 25.3M1663.9 223.1c-22.1 12.6-44 26.1-66.8 37.4M1723 184.4c-8.9 9.2-19.9 15.4-30 23.4M1299 410.3l-30 6.1M1185.2 433l-14.2 2.7M1269 416.4c-11 2-21.9 4.1-32.8 6.4M1171 435.7c-7.8 1.6-15.6 3.2-23.3 4.8M1221.7 425.9c-12.2 2.4-24.3 4.7-36.5 7M1147.7 440.5c-43.3 15-89.6 21.8-134.4 31.6M1935.5 133.8c-30.8 4.1-61.2 9.7-91.8 15.4M2369.8 99.1c-54.2 5.4-108.2 12.6-162.5 16.8-56.9 4.4-113.8 8.2-170.8 11.4-33.7 1.9-67.3 4-100.9 6.5M777.4 574.9c2.3-7 3.8-15.6 8.1-21.5 4.4-6.1 12-14.1 18.5-17.9 14.3-8.3 32.4-13.3 47.9-18.7 35.2-12.3 70.5-24.4 106.7-33.4 18-4.5 36.5-7.3 54.6-11.4"/>
      <path d="M1222.7 387.1c-2.1 7-4 12.4-3.4 19.7.5 6.4 1.6 12.8 2.4 19.2M1693 207.8c.7-9 3.5-26.2-5.8-31.1"/>
      <path d="M1248.2 420.2c-5.3-4.9-12.3-9.8-16.6-15.6-3.8-5.1-6.1-11.9-9-17.6"/>
      <path d="M1237.9 348.4c-3.1 5-7.1 10.1-9.2 15.6-2.8 7.3-4.1 15.5-6.1 23M1222.7 387.1c-4.6 3-10.6 5.6-14.6 9.3-3.1 2.9-4.4 6.8-6.5 10.6-5 8.9-10.9 17.4-16.4 26M1324.5 294.6c-16.1 8.4-32.3 16.7-48.4 25.2-14 7.5-26.3 18.2-38.2 28.6M1324.5 294.6c39.1-23.4 81.9-36.9 123.7-54.7l79.5-27.7c39.3-15 78.4-32 119-43.2M1723 184.4c-10.7-3-20.6-3.9-31.6-4.8M1693 207.8c6.6-.5 14.5.1 20.8-1.6 5.1-1.4 10.3-4.8 15-7 11.7-5.6 23.3-11.8 35.5-16.3 27.4-10.1 54.3-18.9 79.5-33.6M1687.1 176.7c-6.1-3.4-11.6-7.2-18.4-8.6-8-1.7-14.2-.4-22.1 1"/>
    </g>
    <path fill="#AD811E" d="M1934.5 896.5l1.7 3.9 4.8 10.8 4.4 9.8 12.9 29.1 19-7.6 2.8 8 31.6-12.2 6.8 20.7 37.4-14.3 8-3.1 4.6 11 25.2-10.5 44.1-18.4-18.2-44.2-8.4-20.4-6.8 2.5-6.7-14.1 5.7-2.8-6.4-13.1-16.8-6.7-7.9 3.7-20.2 9.8-22.4 10.7-44.1 21.2 2.5 5.1-21.8 9.9-2.3-3.8-3.8 1.9-6.2 3.2-5.5 2.7-7 3.6zM1017.1 957.6l13.4-4.2 4 12.7-13.4 4.2-4-12.7zm-14-48.9l13.4-4.2 4 12.7-13.4 4.2-4-12.7zm-25.4 60.2l29-9.1 4.2 13.3-29 9.1-4.2-13.3zM963.9 921l29-9.1 4.2 13.3-29 9.1-4.2-13.3zm-8.8 57.2l13.4-4.2 4 12.7-13.4 4.2-4-12.7zm-15.8-49.5l13.4-4.2 4 12.7-13.4 4.2-4-12.7zm-11.7-32.9l41.9 133 19.2-6 42.4-13.4 18-5.7-20.1-63.9 12.1-3.8-4.9-15.6-12.8 4-16.8-53.5-79 24.9zM1775.9 364.1l59.9 112.5 41.4-22.1-11.4-21.4-.6.4-45.7-85.7-27.1 14.4-2.9-5.3zM1995.3 284.5l9.9 46 11-2.9 2.8 5.7 4.1 5.4 5.6 4.6 6.4 3.3 6.3 1.7 8.7.2 2.5-.3-2.1-20-5.7-.2-3.3-1.1-1.6-1-2.4-2-2.1-2.9-1.5-3.6-.4-4.8.7-3.3 1.1-2.6 1.9-2.7 3-2.5 4.1-1.8 4.8-.5 4 .9 2.4 1.1 3.6 3 2.1 3.2 1.2 3.7.2 4.4-.7 3.2-1.2 2.6 16.5 7.1 3.4 9.1 18.6-6.3-14.5-59.5-.2-13.7-6 1.4-1.4-5.1-50 17.7-18 6.3-9.2-.2 1.5 4.3zM1953 191.6l36.9 74.6 23.4-10.9-3.9-8 8.3-3.7 3.2.5 4.4-.3 5.5-1.9 3.8-2.9 3.5-4.8 10.2-5 3.6 8.6 23.4-11.5-23.8-50.3-6.3-13.5-6.8-14.2-22.9 11.9 7.1 14.5 16.6 34-6.5 2-8.5 2-6.8 3.2-2.3 1-8.2 5.9-9 4.4-15.6-32.5-6.2-12.9zM1012.6 492.9l11.6 67.1 72-30.4-5.3-35.7-1.7-11.5zM1866.8 807.2l15.7 27.7 22.8-13.8 2.1 3.1 29.7-17.2 3.5 5.9 24.8-12.1-8.5-12.9 16.4-9-15.1-24.4-25.4 14-5.4-1.9-17.4 15.5-4.7-2.1-17.1 14.7-4.7-2.2zM1704.6 230.3l4.9 17.7 25.4-7 1.6 5.7 60.7-16.7-.8-2.8 46.6-12.9-7.2-26.3-36.8 10.1-1-3.5-46.7 12.9 1.8 6.2-33 9.1.8 3zM97.5 436.8l1.8 21.3 172.4-14.6-1.8-21.3zM112.8 381.8l1.7 20.6 164.7-13.9-1.7-20.6zM1167.4 908.3l24.2 65.2 20.4-7.6 35.8-13.3-7.7-20.7-35.1 13-4.3 1.6-9.1-24.3 4.7-1.8 38.4-14.2-7.5-20.2-37.1 13.8zM1545.4 528.9l32.7 24.5 38.4-48.8-1.6-1.7-28.8-30.4-16.4 20.3-1.3-.5-8.9 11.7 1.9 1zM1560.2 300.3l13.4 29.1 12.3-5.7 21.5 45.9 23.9-11.2-28.6-61.1-6.3 2.9-4.3-9.1-10.4 4.9-2.8-6.1zM1160.3 475.5l24.8 44.5 62-35.2-8.9-15.5zM1719.4 668.7l34.2 49 30.8-20.1-7.6-13.6-23.1-39.9-19.2 11.8zM1472.2 770.1l24.8 40.2 3.3-2 18.7-12 26-16.5 5.1-3.2-4.4-7.1-2.5-4-4.9-7.8-21.5 13.5-14.6-23.3-13 8.1-6.3 4.9-7 5.5zM1220.9 664.2l14 29.3 36.4-18 28.8-7.9-8.7-32.4-33.8 10.5zM350.38 381.47l61.5-22.26 12.38 34.23-61.5 22.25zM1743.6 272l10.9 35 4 13.5 2.8 8 8.8 29.1 23.8-7.4-7.1-22.6-1.8-6-2.1-6.7-11.5-37.2-3.6-11.8-.4-1.2zM272.24 392.6l48.62-6.14 5.12 40.58-48.62 6.14zM1639.4 279.8l7.5 34.9 11.9 23.3 28.2-14.4-9.5-18.7-6.8-31.8zM1324.7 770.5l10.6 19.2 9.4 17.1 11.9-6.5-2.1-3.9 2.5-1.4 4.7 8.6 21.4-11.7-22.6-41zM1781 258.3l.9 3.2 3.6 11.9 3.1 10.7 48.8-14.4-1.8-6.2 16.2-4.8-5.8-19.6zM1736.9 507.9l16.8 28.3 7.4-3.3 36.4-20.3-14-28.3zM1036.8 583.2l9.9 18.9-6.6 2.4 8.7 28.1 11.3-6.7-2.5-8.7 17.6-10.5-9.1-15.3 16.2-11.1-10.9-18.4zM1657.8 414.8l23.5 37.9 7.8-5.4 2 3 8.9-6.4 4.5 3.9 5.8-3.8-3.2-8.5-7.6-17.6-9.2-20zM1676.4 695.4l3 4.7 3 4.8 4 6.3 16.3 24.4 27.5-18.4-28.5-39.4z"/>
    <path fill="#AD811E" d="M1973.5 842.3l1.4 3.2 10.7 24.8 44.1-21.2-13.6-29.5zM1658.3 917.2l18.8 15.6 9.6-9.1 24.8-23.2 7.8-7.2-12-11.5-6.6-6.3zM1643 655.9l15.4 22.1 6.8 9.8 29.6-19.9-21.3-32.7zM1636.5 382.7l3.4 5.6 7.7 12.7 15.5-8.5 12.7-8.2 12.5-14.5-15.6-22.2-16 10-11.7 6.7 6.5 10.6-11.7 6.1zM1198.2 617.1l10.7 21.4 26-12.9 26.4-13.1-10.6-21.4zM499.4 698.4l7 22.7 57.6-19.8-7.3-21.2zM1874.9 643.2l6.1 20.1 1.2 13.6.8 8.1 24.6 1.2 3.3-25.6-9.5-27.3zM1979.9 713.7l43.9 11.8 7.7-28.8-43.8-11.8zM1761.1 532.9l18.5 27.7 32.6-20.4-14.7-27.6zM1096.6 755.8l17.1 31.3 31.7-17.2-17.1-31.4zM1125 385.6l14.2 28.1 36.3-18.3-14.1-28.1zM1768.3 868.9l4.7 25 1.9 8.7-4.9 4.3 15.2 15.8 10.9-10.6 4.9-4.5-9.3-43.4-4.9 1zM984.9 640.6l10.2 32.3 35.4-11.1-10.2-32.3zM1801.8 496.8l20.1 38.9 25.6-14.1-19.9-37.7zM1529.9 728.2l11.7 18.2 7.3 10 1.1-.6 21.6-10.7 4.6-2.3-3.7-4.7-1.4-1.8 4.8-2.4-1.6-3.2-7-13.6-4.3-8.4zM1078.58 839.64l27.93-13.45 17.4 36.13-27.94 13.45zM1815.2 318.6l9.6 25.2 18.9-4 20.9-10.1-2.1-6.8-5.3-17-.4-1.2-12.7 3.2-15.4 5.6zM1824.1 659.1l11.1 15 15.2-6.5 1.2 8.6 17.5-.7h5.4l-1.6-16.2-4.5-13.7-3.3-10zM1847.1 497.7l11.9 22.4 34.2-18.2 4.5-2.4 2.7-1.4-11.9-22.4zM1159.3 651.3l31.9 39.8 18.2-14.5-15.8-19.7-16.1-20.2zM1647.8 733.1l.7 1.5 9.5 18.2 42-16.1 2.7-1.1-16.3-24.4-2.2 1.3-20.1 11.6-7.6 4.4zM1723 382.2l11.5 32.5 26.4-10.9 3.7-1.8-13.3-33.3-1.3-3.7-10.4 3.8 3.3 3.9z"/>
    <path fill="#AD811E" d="M1857.2 305.9l5.3 17 11.3-3 2.3 8.6 19.6-5.2-4-15.2 6.5-1.8-1.8-6.6-1.6-5.9-6.1 1.6-3.2-12.2-19.6 5.2 3.8 14.2zM1514.6 700.5l15.3 27.7 33.1-19.5-14.1-24zM1200.4 748.2l21.1 37.8 22.6-12.6-21.1-37.9zM1835.8 476.6l11.3 21.1 41.4-22-11.3-21.2zM1914.7 433l12.2 28.2 2.8 6.3 5.1-2.2 2.6 6 29-12.6-15.6-35.9-9 3.8 11.5 26.7-15.1 6.5-9.7-22.3 11.3-4.9-3.8-8.8zM1090.5 549.1L1113 585l21-13.2-9.2-14.7 1.9-1.2-7.9-12.8-2.1 1.4-5.3-8.5zM1599.8 840.3l7.5 26.6-3.9 1.9 4.2 14.4 27.9-7.1-4.7-16.6-3 .9-7.3-26zM1907.4 824.2l7.5 12.5 4.3-2.1 7.8 16.1 26.4-12.3-1.8-3.6-11-21.9-3.5-5.9zM665.9 335.7l8.5 25.3 28.2-10.6 10.7-13.8-15.8-12.9-7.9 1.8zM1731.1 449.5l17.2 31.7 26.4-13.7-18-28-2.1-3.2-11.7 6.8-9.7 5.6zM1382.5 552.1l2.5 11 4 6.7 8.6-2.9 6.4-4.9 6.5-7 2.7-9.1-.6-10-3.7-8.6-3.3-6.1-6.9 3.5-6 2.9-5.3 7.3-3.8 7.8zM1356.03 478.1l36.68-9.54 6.72 25.84-36.68 9.54zM886.6 767.7l11.7 39.3 23.5-7-11.7-39.3zM1988.1 434.2l5.7 20.4 12.8 1.8 24.5-8.3-.5-1.8-7.8-24.4z"/>
    <path fill="#AD811E" d="M1728 492.4l8.9 15.5 46.6-23.6-8.8-16.8-26.4 13.7zM1614.8 674.5l.4.6 11.4 17.1 5.7 8.5 10.8-6-3.2-5.8 18.5-10.9-15.4-22.1zM1039.7 762.3l1.3.6 9.8 21.1 5.2 12.9 22.1-10.5-14.6-36.3zM1946.6 373.1l1.4 4.8 4.2 15.3 36.5-10-5.2-18.9-12.2 3.3-2.9-10.6-18.4 5.1 2.6 9.3zM1586.1 472.5l28.8 30.4 14.2-16.1-20.7-29.8-16.8 10.8zM1940.6 812.9l11 21.9 35.6-18.9-11.4-19.8-10.4 4.7zM1427.3 885.7l19.7 25.9 24-12.3-26.1-31.4zM1344.88 302.42l29.9-15.55 12.87 24.75-29.9 15.55zM1506.6 619.3l28.4 3 8 .8 8.8-19.4-31.9-13-4.6 7.8-1.6 1.9-4.8 14.2zM1281.8 787l20 40 18.5-9.2-20-40-11.7 5.8zM1130.86 601.16l20.75-13.42 20.3 31.4-20.74 13.42zM1947.6 861.1l12.6 22.3 3.8-1.9 2.3 3.8 21.8-9.9-2.5-5.1-10.7-24.8zM1248.7 502.7l23.9 35.5 17.5-11.8-23.9-35.5zM250.9 714.9l2.6 63.5 16.1-.7-1.3-30.8 10.2-.5-.3-7.1-18.3.8-1-25.5zM1697.4 371.3l1 1.6 11.6 15.6 13-6.3 19.9-9.5-3.3-3.9-13-16-1.4-1.6-16.6 10.1zM1348.5 815.9l19 31.6 21.5-12.9-15-24.9-3.9 2.4-2-3.3-2.1 1.3-2.1-3.4zM1693.8 626.4l15 25.1 10.6 17.2 15.1-12.8-5.3-6.4-3.7-4.7-17.6-28.4zM1689.8 286.2l13.8 28.3 22.4-8.4-3.5-11.3-10.5 1.2-.2-3.4 18-7.3-1.9-10.5zM1081.56 653.23l33.02-19.6 11.38 19.18-33.02 19.6zM1887.1 712.5l15.7 24.6 3.7-1.8 19.2-21.7-19.7-19.5zM1984.13 606.1l25.46-5.3 6.62 31.82-25.45 5.3zM1609.6 612.7l3.9 6.3 4.5 6.1 1.7 2.8 5.3-3.4 1.4 2 28-18.4-14-17.9zM1555.1 430.8l16.2 13 1.8 1.5.9.7 3.5 6.4 16.9-20.9-2.3-7.2-17.5-13.6zM1643.1 427.2l24.6 37.1 11.3-9.5 2.3-2.1-23.5-37.9-1.7 1.3zM1029.14 827.43l17.52-3.15 8.13 45.17-17.51 3.15z"/>
    <path fill="#AD811E" d="M1711.9 460.9l16.1 31.5 20.3-11.2-17.2-31.7zM1735.7 600.5l16.9 27.3 9.5-3.1 17.4-12.1-9-14-9.4 8.9-8.6-15.9zM1405.9 447.1l5.7 21.9 34.1-8.9-5.7-21.9zM1325.3 535.1l5.2 22.1 35.9-8.4-3.9-16.7-12.9 3-1.3-5.4zM1897.8 604.8l.6 1.5 7 13.7 38.3-13.7-3.8-13.6-3.5-3.7-27.2 10.8zM1626.4 626.5l12.3 17.7 29.4-17-13.7-19.1zM1271 445.9l4.7 19 37.2-9.2-2.4-9.5-2.3-9.6zM1820 289.7l8.7 23.8 15.4-5.6-4.3-11.8 24.5-8.9-4.4-12.1zM1788 458.9l13.6 27.8 22-9.4-15.7-29.2zM1323.9 881.3l5.3 11.5-.5 5.3-3.6 2.3 9.1 15.8 20.8-9.2-13.8-29.6-1.8-2.8zM1807.1 854.3l12.8 38 19.4-6.7-4.8-16.1-16.9-20.3zM1639.7 553.9l16.2 23.3 21.2-15.8-18.1-23.2zM1813.8 693l18.7 31.2 17.3-10.7-8.6-18.1-1.9-4-3.9 2.2-5.3-9.7zM1912.2 633.3l2.6 5.3 3.1 13.2 30.7-3.4.4-14.6.1-3.8-.6-4.5-.2-1.4zM1638.8 852.3l.6 4.4 2.2 16.1 33.1-5.2 2.3-.4-2-19.7-2.7.3-7.4 1zM1973.7 792.1l2.1 4 11.4 19.8 1.2 1.9 23.6-13.7-15.6-20-1.6.8-1.9-3z"/>
    <path fill="#AD811E" d="M1768.5 431.6l19.5 27.3 19.9-10.8-18.4-25.4zM1751.5 836.3l1.6 17.5 34.8-4.1-4.9-28.2-12 2.7 7.3 8.7zM1525.4 572.1l32.9 17.5 9.3-16.5-32-17.1zM975.3 606.2l7.4 21.8 28.5-9.6-7.4-21.8zM1707.3 881.8l12 11.5-7.8 7.2 10.6 9.5 8.4-8.2 7.1-2.4 2.6-1.1-7.4-21.8-1.6-4.7-17.7 5.9zM1353.5 422l6.5 23.4 26.9-7.4-6.4-23.4zM1251.3 785.7l16.8 35.8 15.3-7.1-16.8-35.9zM1669.1 489.5l16.5 21.8 18.6-12.4-16.4-25z"/>
    <path fill="#AD811E" d="M1535.6 556l32 17.1 8.5-14.1-31-19.9-9.3 14zM2003.1 748.3l1.6 5.8 4.7 3.9 2.6 4 1.8 5.8 2.4 4.4 4.2 2.6h4.5l3.6-2.1v-6.3l2.1-4.7 3.2-1.5 2.8-3.5.7-2.3-.1-3.3-2.9-2h-10.5l-3.9-2.3-2.4-3.7-4.2-2.4-4.4-.5-4.5 3.4zM1722.1 607.9l14.9 29.4 2.4 4 3.8-.3 12.8-7.2-3.4-6-16.9-27.3zM1373.1 868.9l11.7 22 14.4-5.6 8.9-5.3-10.4-21.8-15.3 6.5zM1180.2 334.8l9.9 21.4 14.8-6.9-4.6-9.9 19.5-9.1-5.3-11.4zM1517 589.1l2.9 1.6 31.9 13 6.5-14.1-32.9-17.5zM1905.4 620l6.8 13.3 36.1-9.2-.6-3.9-4-13.9zM1605.3 384.3l11.8 18.5 22.8-14.5-3.4-5.6 3.3-1.7-10.1-12.7zM1244.84 715.07l20.91-9.58 11.67 25.46-20.91 9.58zM1854.3 902.5l9.4 20.8 1.7 4.1 18.9-6.9-2.8-11.1-9.1-13.7-5-6.6zM1773.7 656l13.1 20.1 4.7-3.6 19.5-10.2-14-19.4zM1659 538.2l18.1 23.2 1.8 2.4 15.2-13-18.4-24.4zM1699.6 837.7l.7 6.8 1.2 18.5 26.2-4.9-2.9-18.5-.8-5.6zM1630.7 438.8l26.2 31.6 10.8-6.1-24.6-37.1zM1734.5 414.7l7.2 15.8 35.6-14.4-6.1-12-8.9 3.7-1.4-4zM1404.9 725.7l7.3 26.1 18.7-6.5 3.5-3-3.9-13.4-2.5-8.3-.4-1.3-20.9 5.9zM964 557.7l7 18.3 29.8-11.5-7-18.2zM1712.26 319.61l42.35-12.65 4.03 13.51-42.35 12.65zM1906.1 876.8l12 31.1 18.1-7.5-1.7-3.9-11.9-26.4zM1583 575.6l9.5 13.4 30-21.1-9.3-14.2zM1651.8 502.7l14 19.6 2.3 3 8.8-6.4 8.7-7.6-16.5-21.8zM944.27 705.76l32.64-9.15 4.88 17.43-32.64 9.14zM1800.1 619.3l6.5 11.3 41.7-23.9-5.9-10.9-18.1 10.1zM1747.6 790.7l3.5 14.9 13.7-4 6.2 22.6 12-2.7-3.6-9.6-8.3-21.7-1.7-4.8zM1263.56 582.06l28.32-20.23 10.11 14.16-28.31 20.23zM1799.5 701.9l18.2 30.2 14.8-7.9-18.7-31.2zM1572.1 773.9l6.7 4.2 14.7 8.7 6.5 2.2 10-12-6.5-7.1 4.1-3.4-8.7-7.5zM1114.8 691.3l5.3 8.8 6.3 10.3 22.8-13.8-11.7-19.1zM912.37 579.08l29.47-11.69 6.9 17.39-29.47 11.69zM1308.18 647.43l27.75-5 3.73 20.66-27.75 5zM1051 637.3l11.4 17.6 23.3-15.2-11.4-17.5zM1817.5 648.7l6.6 10.4 41-23.5-6.5-10.3zM867.3 529.9l8.9 25.9L890 551l-1.7-4.9 7.7-2.7-7.1-20.9zM1018.4 773.5l9.9 21.1 22.5-10.6-9.8-21.1zM1910.7 690.5l21.2 17 11.5-24.6-28.3-6.9z"/>
    <path fill="#AD811E" d="M1915.1 676l28.3 6.9 3.6-21.5-28.8-3.1-.7 5.7zM951.2 504.8l5.1 15.1.7 3.6 27.5-6.6-1.6-18.4zM1344.1 634.8l1.3 6.9 6.4-1.3 1.9 9.5 5.7-1.1-1.9-9.9 5-1 2.3 11.9 7.8-1.5-2-10.5 5.7-1.1 2.2 11.3 6.1-1.2-4.5-23.3-6.3 1.2.9 4.8-5.6 1.1-1-5-5.8 1.1.9 4.9-6.3 1.2-.9-4.8-6.6 1.3.9 4.3zM1889.2 525.7l11.1 25.9 6.6-2.7 11.8-4.9-11.2-26-4.7 2zM1842 880l.9 3.8 6.8 21 4.6-2.3 13.1-13.4 6.1-6.3-5.9-6.7-3.8 3.5-7.4-8.4zM816.5 553.7l4.6 14.2 15.4-4.9 1 3.2 12.2-3.9-6.3-19.9-14.1 4.5-.8-2.7-8 2.6 1.6 5.2zM1577.5 452.4l6.8 8.5 2.6-2.1 4.7 9 16.8-10.8-14-25.5zM1593.9 692.3l10.1 16.1 22.6-16.2-11.4-17.1-4.3 2.4z"/>
    <path fill="#AD811E" d="M1819.9 892.3l5.9 21.9 23.9-9.4-6.8-21-3.6 1.8zM1592.5 589l8.3 13 30.3-22.9-8.6-11.2zM1690.5 568l3.8 5.3-3 2.3 17.5 23.1 13.1-6.3-20.4-31.4zM1400.3 406.7l5.4 21.6 23.8-6-2.3-9.1-2.5-9.7-.7-2.8zM1806.1 761.4l5.5 12.3 3.7 9.9 10-6.4 10.5-6.1-8.3-20.5zM1655.9 577.2l10.6 16.2 15.2-10.7 7.5-5.6-10.3-13.3-1.8-2.4zM1484.9 522.4l24.8 18.3 9.6-13.4-24.4-19.8zM1600.8 602l3 4 1.4-.4 4.4 7.1 30.8-22.5-9.3-11.1zM1861.5 538.1l14.3 31.6 14.1-6.7-1.5-3.1-13.5-28.2zM1903 583l6.2 16.8 27.2-10.8-6.8-16.8zM1132.6 830l8.3 12.3 29.1-19.5-8.3-12.4zM920.34 515.4l30.96-10.54 5.12 15.05-30.96 10.54zM1391 640.2l.9 8.6 8 1.3-2.1 13.3h19.5l6.2-19.5zM1359.2 725l10.8 21.7 19.1-9.4-10.8-21.8zM1565.4 614.3l7.9 12.9 8.8-6 20.5-13.6-7.8-12.2-25.8 16.8zM841.8 642.9l9.2 27.2 16.9-5.8-9.2-27.1zM1812 639.4l5.5 9.3 41.1-23.4-5.3-9.5zM1434.7 396.2l1.1 4.5 2.5 9.7.2 1 31.5-8-3.8-15.2zM1341.2 877.4L1355 907l16-8.7-13-24.6-10.2 5.4-1.8-3.6zM1817.6 849.2l16.9 20.3 16.5-10.8-3.7-4.8-16.6-15.3zM1572.5 738.1l3.7 4.7 2.8 3.9 10.2-4.9 3.6 6.8 6.7-3.3 3.8-2 9.5-4.7-10.9-14.6zM866.8 594l8 19.6 22.2-9-8.1-19.7zM1732.8 876.5l7.4 21.8 20.8-6.4-6.6-20.2-.7-1.9zM1762 641.7l11.7 14.3 23.3-13.1-9.5-15.4zM1710 388.5l6.7 21 3.8 10.7 14-5.5-11.5-32.5zM1494.9 507.5l24.4 19.8 8.1-14.7-25.6-19.1zM1090.1 688.3l13.3 22 16.7-10.2-5.3-8.8-8-13.1zM1707.9 616.4l17.6 28.4 11.5-7.5-14.9-29.4zM1002.8 730.8l7.4 15.8 6.6-3.5 19.6-8.6-7.5-15.9zM1777.4 584.3l8.2 11.9 19.8-12.5-9.6-18.1-18.4 11z"/>
    <path fill="#AD811E" d="M1806.6 630.6l5.4 8.8 41.3-23.6-5-9.1zM1612.6 720.9l7.3 12.5 11.8-7.6 14.7-12.7 2.8-1.6-6.1-10.2-7.6 4.7zM1569.6 878.6l2.6 12 35.4-7.4-4.2-14.4zM1560.4 769.8l9.9 4.1h1.8l26.8-14.9 6.9-3.7-6.3-10-6.7 3.3-12.7 7.4zM1699.8 346.9l8.8 14.4 16.6-10.1 7.8-4.7-8.8-14.4-7.7 4.7-13.9 8.4zM1897.1 846.3l7.6 14.3 3.8 1.2 19.6-9-1.1-2.1-7.8-16.1-4.3 2.1zM433.8 364.3l5.1 15.8 27.5-8.9-5.1-15.8zM1701.5 561l20.4 31.4 5.8-3.3 5.6-3.3-20.6-30.8zM1564.8 600.5l4.2 11.7 25.8-16.8-6.9-7.9-7-9.7zM1752.6 627.8l3.4 6 6 7.9 25.5-14.2-8-14.9-17.4 12.1zM1430.4 631.1l26.4 9.5 6.5-16-26.9-9.1zM1724.8 839.6l2.9 18.5 5.9-1.1 19.5-3.2-3.9-18.8z"/>
    <path fill="#AD811E" d="M1882.5 834.9l8.6 14.6 6-3.2 17.8-9.6-7.5-12.5-2.1-3.1zM1501.8 493.5l25.6 19.1 8-12.4-25.3-19.2zM1764.5 721.5l18.6 28.6 12.2-5.5-18.7-29.9zM1666.5 593.4l15.6 19.8 15.2-7.7-15.6-22.8zM1608.5 630.5l.9 1.4 13.5 22.2 15.8-9.9-12.3-17.7-1.4-2-5.3 3.4-1.7-2.8zM1007.4 684.2l2.9 8.8 4.8-1.5 2.8 8.8 23-7.4-5-15.7-13 4.2-.6-1.9zM1874.5 721.2l12.6 24.1 8.4-4.6 7.3-3.6-15.7-24.6zM1789.2 707.4l16 31.8 12.5-7.1-18.2-30.2zM1874.9 531.7l13.5 28.2 13-5.8-1.1-2.5-11.1-25.9zM1841.2 695.4l8.6 18.1 15.6-9.2 2.9-12 1-4.4-16.4-.1-4.2 2.8zM1145.52 723.22l19.5-14.33 11.2 15.23-19.5 14.33zM1692.2 534.9l9 13.6 22.9-15.7-9.8-13.9zM1320.1 685.9l10 19.4 18.5-8.7-9.2-19.8z"/>
    <path fill="#AD811E" d="M1776.6 714.7l18.7 29.9 9.9-5.4-16-31.8zM1169.2 778.9l5.1 9 2.2-1.2 7.9 14.1 15.1-8.5-11.4-20.4-8.7 4.8-1.5-2.6zM1896.7 568.9l1.8 3.9 4.5 10.2 26.6-10.8-5.5-14.8-21.5 9-2.5 1zM1314.6 493.1l4.7 16.1 25.9-7.6-4.8-16.1zM1609.8 795.3l12.7 6.2 19-3.1-7.7-20.7-1.3-3.6-3.4 1.1-1.8 2.6-6.6 8.3-10.3 8.8zM1264.9 894.9l1 5.1 3.4 17.4 12.2-3.4 4.7-2-4.2-8.7 5.5-3.1-6.3-13.6zM1629.1 749l8.1 9.8 7.8 1 13-7-9.5-18.2-5.6 3.4-2.4-3.1zM1300.8 743l6.3 14 25.9-12.7-7.2-14.1zM1055.7 661l10.7 26 14.6-6-10.7-26zM1665.2 687.8l7.1 10.4 29.4-20.4-6.9-9.9z"/>
    <path fill="#AD811E" d="M1634.5 728.7l6 6.2 2.4 3.1 5.6-3.4-.7-1.5 8.7-4.6 7.6-4.4-3.8-6.7 22.1-12.5-3-4.8zM1860.5 731.3l11.5 21.2 7.6-3.2 7.5-4-12.6-24.1zM1604 708.4l7.7 11.1.9 1.4 22.9-14.9-1.2-1.9-2-3.4-5.7-8.5zM1358 873.7l13 24.6 13.8-7.4-11.7-22-1.3-2.5-10.8 5.7zM1722 751.6l5.8 12.6 4.7 6.3 14.9-5.2-8.1-16.2 9.2-5-2.7-4.9-3.4 1.9zM1830.7 545.6l8.2 18.5 19.8-9.7-9.4-18.1zM1656.7 768.6l9.1 31.3 13.1-4.1-.8-2.4-9.7-29.2zM1443.7 597.3l29.4 10.4 6.5-11.4-30.3-11.7zM1621.9 528.9l9.3 14.4 12.9-9.3 6.3-5.5-10.3-14.6zM1582.1 621.2l6.2 12.6 25.2-14.8-3.9-6.3-4.4-7.1-2.6 2zM1516.8 470.2l24.3 19.4 8.2-11.9-23.3-17.4zM1567.3 717.1l7 13.6 25.4-13.2-7.9-12.5zM1427.2 647.7l23.5 6.7 6.1-13.8-26.4-9.5zM1603.5 769.9l6.5 7.1 9.7-8.1 13.8-6.5-15.1-16.3-11.2 6.4 7 8.4-6.6 5.6zM1188.9 822.1l14.3 20.8 13.6-9.4-14.2-20.7zM1747 768.6l1.5 3.5 1.8 3.4 1.8 3.9 2.3 4.8 9.1-3 .7 1.7 3.3-1.3 5.5-2.4-3.4-14.6-1.4-5.6-9.2 3-5.7 1.8 1.2 2.4zM1341.9 592.5l3 18.4 21-3.3-.6-4.1 2.8-.5-1.3-8.5-4.2.6-.9-5.8zM1381.4 745.4l.2 25.3 16.3-.1-.1-25.3zM1872.4 895.7l9.1 13.7 19.6-12.5-6.8-15.7zM1477 534.5l25.6 16.3 7.1-10.1-24.8-18.3zM1295 696l8 17.9 18.5-8.3-7.9-17.9zM1187.4 864.7l5 14.6 24.3-8.2-4.9-14.6zM1453.6 575l29.6 12.8 6-10.4-29.7-13.4zM1792.4 607.5l7.7 11.8 24.2-13.4-2.8-4.6-4.6-7.5zM1415 874.6l12.3 11.1 17.6-17.8-13.8-9.4zM1016.8 743.1l8 14.1 10.9-5.2 11.2-5.7-6.7-13.4-3.8 1.6zM1842.1 574.1l7.1 16.2 18.5-9.4-1.5-3.1 2.4-1-6.6-12.2-18.7 8.8zM1682.4 526l7.9 9.9 1.9-1 22.1-16-5.8-11.1zM1300.2 886.6l3 6.5 6.2 14.1 6.7-2.9 9-3.9-7.2-16.6-1.8-4.1zM1429.2 748.4l3.8 8.6 20.9-7.5 3.5 7.9 9.7-3.9-11.6-16.2-1.5-.7-10.9 6.4zM854.6 681.7l5.2 16 21.7-7-5.2-16.1z"/>
    <path fill="#AD811E" d="M1510.1 481l25.3 19.2 5.7-10.6-24.3-19.4zM1088.3 476.3l.9 6.1 1.7 11.5 21.3-3.1-2.6-17.6zM1686.2 756.5l11.8 26.1 1.9-.7 10.7-3.8-13.4-27.6zM254.12 703.86l15.23-19.2 12.14 9.64-15.23 19.2zM1723.8 780l2.5 9.7 9.4-2.8.5 1.7 18.2-4.4-2.3-4.8-1.8-3.9-1.8-3.4-1.5-3.5-15.4 5.6 1 2.8zM1640.1 513.9l10.3 14.6 3.2 3.5 12.2-9.7-14-19.6zM1755 727.4l10 15.3 9.1 12.5 9-5.1-18.6-28.6zM1550 755.8l3.1 4.1 2.8 3.8 4.5 6.1 19.7-13.8-8.5-10.9zM1704.5 447.8l7.4 13.1 19.2-11.4 2.1-.8-7.1-13.2-8.5 4.6-7.3 3.9zM1422.3 665.1l7.4.4 18.1.3 2.9-11.4-23.5-6.7zM1268.4 760.4l7.2 14.5 6.9-3.5 13.5-6.7-7.2-14.5zM1321.8 425.7l4.1 16.7 3.5-.8 17.2-4.3-4.1-16.7zM1771.1 790.2l8.3 21.7 17.2-6.2-5.1-12.5-5.4 2.3-3.2-9.8zM935.6 757.5l5.6 19 17.6-5.2-5.5-19zM1497 810.3l12.4 13.4 46.6 35.6 2.8-4.9-34.4-24.5-24.1-21.6zM1905.5 255.3l1 2.3 7.7 18.6 14.7-6.1-5.9-14.1-1.8-4.5-1-2.3zM1785.6 596.2l6.8 11.3 24.5-13.7-3.8-6.9-4.7 2.5-3-5.7zM1464.4 555.3l27 14.8 5.1-9.6-25.7-16zM1681.7 582.7l15.6 22.8 11.5-6.8-17.5-23.1-2.1 1.5zM1668.4 764.2l9.7 29.2 12.8-4.2-1.7-3.6-11.9-24.7zM1674.5 840.7l.5 6.8 2 19.7 12.9-2.8-.9-18.7-.3-6.7-2.2.3zM1511.9 436.6l19.4 15.8 8.9-11-19.4-15.8z"/>
    <path fill="#AD811E" d="M1470.8 544.5l25.7 16 6.1-9.7-25.6-16.3zM1244.2 874.1l12.2 29.5 9.5-3.6-1-5.1-4.8-10.1-5.8-14.8zM1886.1 382l3 10.3 30.8-9-3-10.3zM1701.2 548.5l11.5 6.5 8-2.7 12.2-7.9-8.8-11.6zM1795.8 565.6l9.6 18.1 14-8.8-2-4.1-6.5-13.6zM1161.9 550.3l12.5 21.8 5.9-3.4-3.1-5.5 8.6-4.9-7.7-13.5-5.5 3.1-1.6-2.8zM1180.5 583.4l12.4 21.8 5.9-3.4-3.1-5.5 8.6-4.9-7.7-13.6-5.5 3.2-1.5-2.8zM1782.9 314.9l2.1 6.7 1.8 6 24.3-7.5-4-12.7-21.6 6.7zM829.29 611.78l16.82-5.83 6.15 17.77-16.83 5.82zM1620 820l26.3.3.1-1.1v-11.6l-26.3-.3-.1 9.6zM1600 789l10.4 5.9 10.3-8.8 6.6-8.3-7.6-8.9-9.7 8.1zM1150.8 849.2l7.9 15.4 17.1-8.8-5.4-10.6-2.5-4.8-3.1 1.6zM1697.2 750.5l13.4 27.6 3-1.1 6.5-1.8-2.6-5.8-10.9-24.7zM1430.5 728.9l3.9 13.4 8.7.7 10.9-6.4-5.3-15.2-14.3 5.8zM1436.4 615.5l26.9 9.1 5.5-9.8-28.6-10.3zM976.6 792.1l4.4 15.8 19.5-5.5-4.4-15.8-7.2 2.1-10.5 2.9zM1782.9 785.7l3.2 9.8 5.4-2.3 1.3-.3 22.5-9.3-3.7-9.9-25.4 10.6zM1589.8 822.5l9.8 8.3 2 1 15.7-16.2-18.1-6.6zM1676.9 518.9l5.5 7.1 26.1-18.2-4.3-8.9-18.6 12.4zM1646.9 771.4l8.2 27 1.1 3.9 9.6-2.4-9.1-31.3zM1839.8 829.4l14.1 13.2 11-12.1-12.1-13.6zM1526 460.3l23.3 17.4 6.3-9.6-22.2-16.3zM1310.5 446.2l2.4 9.5 1.6 6.6 18.8-4.6-3.9-16.1-3.5.8zM1643.1 701.3l6.1 10.2 23.1-13.3-7.1-10.4zM1447.5 486.8l6.1 5.1 7.4-5.8 6.9-13-13.4-8.3-5.7 11.9zM1631.2 543.3l8.5 10.6 19.3-15.7-5.4-6.2-3.2-3.5-6.3 5.5zM1449.3 584.6l30.3 11.7 3.6-8.5-29.6-12.8zM1847.3 853.9l3.7 4.8 23-13.7-9.1-14.5-11 12.1 2.1 1.9zM1213.52 847.06l15.66-5.81 6.58 17.71-15.66 5.82zM1355.7 861.1l5.3 11 10.8-5.7 1.3 2.5 9.3-4.2-8-14.8zM939.3 798l4.2 14.7L963 807l-4.3-14.7z"/>
    <path fill="#AD811E" d="M1810.9 557.2l6.5 13.6 4.6-2.7 2.7 5.1 9.5-4.3-8.9-19.7zM1712.7 555l20.6 30.8 7.2-5.6-9.5-13.4-10.3-14.5zM1849.8 738.1l9.3 19.8 7.4-3.1 5.5-2.3-11.5-21.2zM1706.6 744.7l10.9 24.7 10.3-5.2-5.8-12.6-5.3-11.9zM1533.4 451.8l22.2 16.3 6.3-8.7-20-16.3zM1754.4 871.7l6.6 20.2 5.1-1.5.9 4.9 6-1.4-4.7-25zM1312.4 776.2l10.6 19.2 12.3-5.7-10.6-19.2zM1160.7 834l4.1 8 3.1-1.6 2.5 4.8 16.3-8.3-6.6-12.9z"/>
    <path fill="#AD811E" d="M1716.7 739.7l5.3 11.9 20.4-10.5-6-11.6zM1776.8 684l7.6 13.6 15.9-13.7-8.8-11.4-4.7 3.6zM1837.9 744.7l9.6 19.6 11.6-6.4-9.3-19.8zM893.9 672l4.8 15 19.1-6.1-3.7-11.5-6.4 2-1.1-3.5zM1563 708.7l4.3 8.4 24.5-12.1-5.8-10.5zM1917.9 651.8l.2 3.4.1 3.1 28.8 3.1 1.2-9.9.3-2.1.1-1zM1830.7 838.6l16.6 15.3 8.7-9.4-2.1-1.9-14.1-13.2zM1899.1 557.8l3.5 8.6 21.5-9-5.4-13.4-11.8 4.9 1.8 4.5z"/>
    <path fill="#AD811E" d="M1827.5 750.6l8.3 20.5 11.7-6.8-9.6-19.6zM1342.8 676l16 19.4 6.5-2.9 3.1-1.4-10.7-18.2zM1399.58 857.05l10.81-8.57 12.49 15.75-10.82 8.57zM1867.4 889.1l5 6.6 21.9-14.5-5.4-10-15.4 11.6zM1459.5 564l29.7 13.4 2.2-7.3-27-14.8zM1422.8 675.7l2.7 11.9 23.3-3.5.3-10.1zM1697.4 393.4l9.9 21.2 9.4-5.1-6.7-21zM1491.6 608.2l3.6 2.3 13.7 4.1 4.8-14.2-15-6.1zM1791.5 672.5l8.8 11.4 15.6-9.7-4.9-11.9zM1677.3 760.9l11.9 24.7 3-1.2 2.5-.6 3.3-1.2-11.8-26.1zM1325 469.3l.1 10.8 24.8-.3-.1-10.7zM1428.3 706.2l2 13.1 21.8-6.1-2.2-10.6zM1887.7 589.7l2 2.5 8.1 12.6 11.4-5-6.2-16.8zM1281.2 886.6l6.3 13.6 3.6-1.9 12.1-5.2-3-6.5-3.1-7.3zM1720.7 552.3l10.3 14.5 11.9-8.6-10-13.8zM1242.5 830.5l6.2 15.1 14.3-5.9-6.2-15zM1859.8 862.4l5.4 12.2 1.3-1 15.9-12-4.8-9.5zM1440.2 604.5l28.6 10.3 4.3-7.1-29.4-10.4z"/>
    <path fill="#AD811E" d="M1422.3 665.1l.5 10.6 26.3-1.7-1.3-8.2-18.1-.3zM1619.9 733.4l.8 1.5 8.4 14.1 11.4-14.1-6-6.2-1.4-1.5-1.4-1.4zM1731 566.8l9.5 13.4 12-9.5-9.6-12.5zM1426.5 694.6l1.8 11.6 21.6-3.6-1.2-10zM1805.4 583.7l3 5.7 4.7-2.5 3.8 6.9 10.3-4.9-2.6-4.6 2.6-1-5.3-10.1-2.5 1.7zM1751.9 749.9l7.1 12.1 9.2-3 5.9-3.8-9.1-12.5zM1282.5 771.4l6.1 12.2 11.7-5.8 3.9-2-6.1-12.2-2.1 1.1zM518 670.6l6.4 16.6 7.5-1.7 4.7-8.2-2.9-9.3zM483.4 677.8l6.4 16.6 7.5-1.7 4.7-8.2-2.9-9.3zM501.3 675.7l6.4 16.6 7.6-1.7 4.6-8.2-2.9-9.3zM913.8 718.52l13.57-3.82 4.5 15.97-13.56 3.83zM1838.9 564.1l4.4 9.3 18.7-8.8 1.8-.8-5.1-9.4zM1695.6 803.7l1.5 14.6 15.7-.9-3.4-16.3zM1588.3 633.8l9.8 13.6 9.3-5.6-1.1-8.1-4.5-7.5zM1866.5 873.6l1.1 2.5 5.9 6.7 15.4-11.6-6.5-9.6zM1259.4 555.4l8.3 15 11.7-6.4-8.2-15.1zM1541.9 443.1l20 16.3 5.2-7.1-18.2-15.5zM1490.2 628.3l6 2.5 1.1 1.3 9.3-12.8 2.3-4.7-13.7-4.1zM869.36 729.14l14.27-4.62 4.57 14.08-14.27 4.62z"/>
    <path fill="#AD811E" d="M1739.3 749.1l8.1 16.2 5.9-1.5 5.7-1.8-7.1-12.1-3.4-5.8zM258.86 664.02l9.1-10.9 11.82 9.87-9.1 10.9zM868.7 637.1l5.8 17.1 11.2-3.8-5.8-17.1zM1922.6 870.1l11.9 26.4 7-3.6-12.3-25.4zM1524.6 335.8l8.8 16.4 10.2-5.5-8.8-16.4zM1639.1 773.9l.6 1.7 7.5 21.8.8 2.9 7.1-1.9-8.2-27zM1689 845.7l.9 18.7 11.6-1.4-1.2-18.5zM1596.8 648.2l8.3 15.3 10.2-4.7-7.9-17-9.3 5.6zM1752.5 591.6l8.6 15.9 9.4-8.9-5.6-13.3zM1471.8 667.1l13.6.4.3-13.1.1-2.6-13.6-.3zM1516.8 568l8.6 4.1 10.2-16.1.2-2.9-8.6-3zM1851 858.7l3.2 6.9 5.6-3.2 17.8-10.3-3.6-7.1zM1090.31 608.78l13.06-7.59 6.93 11.93-13.05 7.59zM1548.9 436.8l18.2 15.5 6-7-18-14.5zM1735.2 793.5l4 16.9 11.9-4.8-3.5-14.9z"/>
    <path fill="#AD811E" d="M1929.2 867.5l12.3 25.4 7-3.6-12.5-24.1zM1519.27 739.6l10.87-7.48 8.9 12.94-10.87 7.48zM516.7 720.2l2.6 13.8 14.5-3.7-2.4-10.8-5.9-2.4zM501.2 727.5l2.6 13.8 14.6-3.8-2.4-10.8-5.9-2.3zM533.4 714.3l2.6 13.8 14.5-3.7-2.4-10.8-5.9-2.4zM1851.6 676.2l1.2 11.1.1.5 16.4.1-.2-12.4zM549.3 708.3l2.6 13.8 14.5-3.8-2.4-10.7-5.9-2.4zM1696.17 334.4l13.86-8.4 6.52 10.79-13.86 8.38zM1709.1 799.5l.3 1.6 3.4 16.3 10.2-2.3-3.1-18.4zM1428 720.6l2.5 8.3 3.9-1.7 14.3-5.8 5.2-1.5-1.8-6.7-21.8 6.1zM1260.1 884.8l4.8 10.1 16.3-8.3-5.2-9.3zM1729.2 649.5l5.3 6.4 19.2-11.8-3.4-5-7.1 1.9-3.8.3zM1456.8 757l8.6 15.4 6.8-2.3 3.7-3.7-8.8-12.9-9.7 3.9zM1690.3 397.9l9.2 20 2.7-1 5.1-2.3-9.9-21.2zM229.96 705.45l7.38-.49 1.7 25.65-7.38.49zM1882.5 580.5l5.2 9.2 15.3-6.7-4.5-10.2zM1606.3 633.7l1.1 8.1 7.9 17 7.6-4.7-13.5-22.2zM1767.8 265.9l3.6 11.8 14.1-4.3-3.6-11.9zM951.4 584.9l3.6 9 17.6-7-3.6-8.9zM1498.5 591.4l16.8 7.1 4.6-7.8-2.9-1.6-13.2-7.2zM1402.27 632.76l2.57-11.62 14.84 3.28-2.57 11.62zM1941.1 863.3l12.9 23.3 6.2-3.2-12.6-22.3zM1877.4 573.4l.9 1.9 2.8 5.8 1.4-.6 16-7.7-1.8-3.9 3.4-1.5-2-3.6zM1425.5 687.6l1 7 22.2-2 .1-8.5zM851.16 606.1l15.75-6.1 3.8 9.79-15.76 6.1zM954.4 597l4.3 12.8 12.4-4.2-4.3-12.8zM891.8 561l4.1 9.4 15.4-6.6-4.1-9.5zM1277.54 719.7l11.89-5.52 5.5 11.89-11.88 5.5zM1572.7 787.4l16 6.5 4.8-7.1-14.7-8.7zM1494.8 640.1l1.3 13.6 12.2-.9-1.1-13.4zM1444.26 522.7l6.36-10.99 11.34 6.56-6.36 11zM1658.5 807.8l.5 13 6.9.1 5.8.2-1.1-13.9zM1726.1 435.5l7.1 13.2 9.7-5.6-7.1-12.2z"/>
    <path fill="#AD811E" d="M1646.3 820.3l12.7.5-.5-13-12.1-.2zM1357.5 706.8l6.5 10.1 11.1-5.9-6.2-11zM1703.4 268.9l3.4 10.1 13.9-4.7-3.3-10zM1936 865.2l12.5 24.1 5.5-2.7-12.9-23.3zM1719.9 796.7l3.1 18.4 8.4-2.2-3.7-18zM1816.9 593.8l4.6 7.5 15.5-8.2-3.2-7.2-6.6 3zM538.1 681.6l12.5-4.1-.3-11.9-11.6 2.9zM1999.67 414.26l16.28-5.24 2.7 8.38-16.28 5.24zM1160.5 878l4.3 9.8 12.8-5.7-4.3-9.8zM983.3 714.8l2.9 10 13.6-4-2.9-10zM1411 679.3l1.1 9.7 3.6-.4 9.8-1-2.7-11.9-8.8.8.2 2.4zM1680.5 342.8l5.9 9.6 10.9-6.6-5.8-9.7zM1685.7 805.6l1.7 13.9 9.7-1.2-1.5-14.6zM1555.1 861.4v3.1l.9 2.2 1.4 1.5 2 1.1 2.7.4 2.3-.5 2.7-2.2 1.1-2.1.3-2-.4-2.3-1.4-2.2-1.8-1.5-2.1-.7-2.4.1-2.3.9-2.1 2.1z"/>
    <path fill="#AD811E" d="M1727.7 794.9l3.7 18 7.8-2.5-4-16.9zM1497.9 374.8l8.1 9.2 8.6-7.6-8.1-9.2zM1633.8 777.7l7.7 20.7 5.7-1-7.5-21.8zM1399.2 885.3l4.8 8.1 12.2-7.2-4.8-8.1-3.3 1.9zM1716.6 435.5l1 4.6 8.5-4.6 9.7-4.6-4.7-6.3-9.3 4.7zM1630.8 859.5l4.7 16.6 6.1-3.3-2.2-16.1zM1351.8 698.7l5.7 8.1 11.4-6.8-3.6-7.5-6.5 2.9zM1481 635.6l10.9 5.1 4.3-9.9-6-2.5-5.4-2.1zM1270.77 701.42l11.57-4.73 3.83 9.35-11.57 4.73zM1678.5 806.8l1.2 13.8.3 2.4 5.7-.4 2.1-.1-.4-3-1.7-13.9zM1295.04 848.43l10.3-4.65 4.32 9.56-10.3 4.66zM1424.7 403.5l2.5 9.7 11.1-2.8-2.5-9.7zM1147.39 793.1l5.46-8.49 9.42 6.06-5.47 8.5zM1472 409.44l7.97-9.37 6.86 5.83-7.97 9.37zM975.1 782l3.3 9.6 10.5-2.9-3.3-9.5zM1670.6 807.2l1.1 13.9 8-.5-1.2-13.8zM1168 806.8l7.8 11.9 6.4-4.2-7.7-11.9zM928.56 550.5l10.88-4.29 3.34 8.47-10.88 4.29zM1489.4 463.3l6.8 5.5 7.1-9-6.9-5.4zM847.8 544.3l3.6 11.7 7.7-2.4-3.7-11.7zM1692.2 784.4l1.9 10.4 8.3-2.1-2.5-10.8-1.9.7-3.3 1.2zM1273.7 600.62l10.45-5.7 3.4 6.23-10.44 5.7zM1395.18 613.32l3.1-8.56 7.98 2.9-3.1 8.55zM1593.4 650.2l7.4 15.7 4.3-2.4-8.3-15.3zM1543.2 765.5l2.5 4 1.9-1 3.2-1.9 5.1-2.9-2.8-3.8-8.3 5zM1427.1 555.1l7.1 4.2 2.6-4.5-7.1-4.1zM1232.8 318.5l3.1 6.4 4.9-2.5-3.1-6.3zM1093.07 887.21l29.78-12.76 13.04 30.42-29.78 12.76z"/>
    <path stroke="#FFF" stroke-linecap="round" stroke-linejoin="round" d="M1762 427.8l58 119.1M1817.5 821.6s2.1-4 1.8-8.8l-.9-14.5s-.2-8.2 5.7-11.4c5.9-3.2 82.2-42.9 82.2-42.9s32-22.3 42.7-52.3c10.7-30 9.7-61.9 4.2-80.4-5.4-18.5-45.9-106.8-45.9-106.8"/>
    <path stroke="#FFF" stroke-linecap="round" stroke-linejoin="round" d="M1769 571.6l-4.5 4s54.5 91.2 58.1 97.5c3.6 6.3 13.2 8.7 13.2 8.7s50.1 7 60.9 8c10.8 1 14.2 4.4 14.2 4.4l24.8 21.5M1676.4 627.8l88.1-52.2M1676.4 627.8l-75.6 47.3M1617.7 521.8s-35.8 36.3-50.6 66c-14.8 29.7-20.6 45.5-20.6 45.5"/>
    <path fill="#AD811E" d="M1485.8 637.8v14l-.4 15.7v6.5l51.2-1.1-.8-35.1z"/>
    <g fill="#1C258D">
      <path d="M-11.3 249.1l703.2-83.9 814.7-60.6 592.6-149.8v-508L-11.3-506.9z"/>
    </g>
    <g stroke="#FFF" stroke-linecap="round" stroke-linejoin="round" stroke-width="5">
      <path d="M1490.37 195.73L1639.9 491.7l-22.2 30.1s-8.8 10.9-1.2 22.1c7.6 11.2 156.5 216.9 156.5 216.9s8.7 12.5 9.9 18.6c1.5 8.2 34.8 166 34.8 166"/>
    </g>
    <g>
      <g transform="translate(996.6 339.1)">
        <circle cx="69.1" cy="68.6" r="68.5" fill="#FFF" stroke="#000" stroke-width="2"/>
        <g fill="#000" fill-rule="nonzero">
          <path d="M49.6 110.5l-31.5-50 10.1-4.8L49 90 35.5 52.3l10.1-4.8L64 103.7zM60.7 76.5l39.6-43.6 15.9 11.9-30.6 50.3-8.9-6.7 5-8.1-5.7-4.2-6.2 7.2-9.1-6.8zm21.6-7.3l4.3 3.2L102.4 47l-.4-.3-19.7 22.5z"/>
        </g>
      </g>
    </g>
  </g>
</svg>
