<svg xmlns="http://www.w3.org/2000/svg" viewBox="0 0 167.2 167.2">
  <style>
    .st0{fill:#1c258d}.st1{fill:#f1240e}.st2{fill:#278a2a}
  </style>
  <g id="Ebene_1">
    <path d="M50.4 52.8l-13.8 6.7-9.7 7.2L.2 89.3c-.1-1.9-.2-3.8-.2-5.7 0-10.2 1.8-20 5.2-29l45.2-1.8z" class="st0"/>
    <path d="M55.9 138.7l-16.3 16A83.2 83.2 0 01.2 89.3c0-.4 0-.8-.1-1.1l36.5-29 18.6 51.6.7 27.9z" class="st1"/>
    <path d="M55.7 138.7L12.8 70.4 26.6 64 55 110.7 36.6 59.3l13.8-6.5 25.1 76.6z"/>
    <path d="M75.5 129.5v10.7L49 159.8c-3.2-1.5-6.4-3.2-9.4-5l16.3-16 19.6-9.3zM160.3 117.1c-3.3 7.7-7.8 14.8-13.2 21l-46-22.5v-7.4l7-12.1 52.2 21z" class="st2"/>
    <path d="M167.2 83.6c0 11.9-2.5 23.2-7 33.5-2.9 6.7-6.7 12.9-11.1 18.5L74.2 95.8l5.3-3.7 42.8-51.7 32.2-1.2a82.86 82.86 0 0112.7 44.4z" class="st2"/>
    <path d="M154.5 39.2l-11.7.5-9.8-6.2-10.9-8.1-54.7 57.4-7 .2L77.7.2c2-.1 3.9-.2 5.9-.2 29.9 0 56.1 15.6 70.9 39.2z" class="st1"/>
    <path d="M96.6 72.9l5.8 4.3 21.5-34.7-.6-.4-26.7 30.8zM67 82.8l54-59.4 21.7 16.2-41.7 68.6-12.2-9.1 6.8-11-7.6-5.8-8.5 9.8L67 82.8z"/>
    <path d="M67.4 82.8l-7 .2 13.9 12.8 5.2-3.7zM88.9 99.2l1.3 9.9 10.8 6.6v-7.5z" class="st0"/>
    <path d="M21.5 84.3L.7 94.3c-.2-1.6-.4-3.3-.5-5 0-.4 0-.8-.1-1.1-.1-1.5-.1-3-.1-4.6v-.4l12.8-12.8 8.7 13.9z" class="st1"/>
  </g>
  <g id="Kreis">
    <path d="M59.8 156.4l2.2-12.8 2.4.7-1.6 8.7 3.3-8.2 2.4.7-5.2 11.9-3.5-1zM65.9 158.2l3.6-12.4 4.3.8-1.2 12.9-2.4-.5.2-2.1-1.5-.3-.5 2-2.5-.4zm3.6-3.6l1.1.2.7-6.5h-.1l-1.7 6.3zM80.3 160.1l-4-.3c-.6 0-1.1-.2-1.4-.5-.3-.3-.5-.7-.6-1.2-.1-.5-.1-1.2 0-2 .1-.7.2-1.3.4-1.7.2-.4.6-.7 1-.8-.4-.1-.7-.3-.8-.6-.2-.3-.2-.7-.2-1.3l.4-4.9 2.5.2-.3 5c0 .4 0 .6.2.7.1.1.4.2.8.2l.4-5.9 2.6.2-1 12.9zm-2.9-4.9c-.4 0-.6.4-.6 1.1v.8c0 .2.1.3.1.4.1.1.2.1.3.1h.6l.2-2.4h-.6zM82.5 160.2v-12.9H85v12.9h-2.5zM86.8 160.2l.2-12.9 4.3-.4 2.3 12.7-2.4.2-.4-2.1-1.6.1v2.1l-2.4.3zm2.4-4.4l1.2-.1-1.1-6.5h-.1v6.6zM95.5 159.3L93 146.7l2.5-.5 1 5.1.2-5.3 2.5-.5-.3 6.1 3.1 6.5-2.6.5-2.6-5.9 1.2 6.1-2.5.5zM104.6 157.3l-3-10-1.5.4-.7-2.4 5.4-1.6.7 2.4-1.5.4 3 10-2.4.8zM110 155.5l-4.6-12 2.3-.9 4.6 12-2.3.9zM114.5 152.8c-.8-.3-1.4-1-1.9-2.1l-2.7-5.5c-.5-1-.6-1.9-.4-2.6.2-.7.8-1.3 1.8-1.8.9-.5 1.8-.5 2.5-.3.7.3 1.3.9 1.8 1.9l2.7 5.5c.5 1 .7 2 .4 2.8-.2.8-.8 1.4-1.7 1.9-.9.5-1.8.6-2.5.2zm1.8-2.8c0-.2-.1-.5-.3-.8l-2.7-5.7c-.1-.3-.3-.4-.4-.6-.1-.1-.3-.1-.5 0-.4.2-.4.6-.2 1.2l2.7 5.7c.2.3.3.6.5.7s.4.1.6 0c.2-.1.3-.2.3-.5zM121.8 150.1l-6.9-10.9 2.2-1.4 4.3 4.6-3.3-5.2 2.1-1.3 6.9 10.9-2.1 1.2-4.5-4.8 3.4 5.5-2.1 1.4zM133.2 141.7c-.5.1-1 .1-1.5 0s-1-.5-1.4-.9l-2.1-2.4 1.9-1.7 2 2.3c.2.2.3.3.5.3s.3 0 .5-.1c.1-.1.2-.3.2-.4 0-.2-.1-.3-.2-.5l-6.6-7.4 1.9-1.7 6.4 7.2c.4.5.7 1 .9 1.6.1.6.1 1.1 0 1.6-.2.5-.5 1-.9 1.4-.6.2-1.1.5-1.6.7zM138.3 136.2c-.8 0-1.6-.4-2.5-1.2l-7-6.3 1.7-1.9 6.9 6.3c.3.3.6.5.8.6.2.1.4 0 .6-.1.2-.2.2-.4.1-.6-.1-.2-.3-.5-.6-.7l-6.9-6.3 1.7-1.9 7 6.3c.9.8 1.4 1.6 1.5 2.4.1.8-.2 1.6-.9 2.4-.9.6-1.7 1-2.4 1zM143.5 129.9c-.8 0-1.7-.4-2.8-1.2l-4.5-3.3c-1-.7-1.5-1.4-1.7-2.2-.2-.8 0-1.6.6-2.5.5-.7 1-1.1 1.6-1.3s1.1-.2 1.8.1c.6.2 1.4.7 2.2 1.2l-1.5 2-.9-.7c-.3-.2-.5-.3-.7-.3-.2 0-.3 0-.5.2-.3.4-.2.8.3 1.2l5.1 3.7c.3.2.6.4.8.4.2 0 .4 0 .5-.2.1-.2.2-.4.1-.6-.1-.2-.3-.4-.6-.6l-1.5-1.1-.4.6-1.8-1.3 1.8-2.6 6.1 4.4-.6.8-1.1-.3c.4.8.3 1.7-.3 2.4-.5.9-1.2 1.2-2 1.2zM148.7 124l-11.2-6.4 2.6-4.5 2.2 1.2-1.3 2.2 2.2 1.3 1.2-2.1 2.1 1.2-1.2 2.1 2.6 1.5 1.3-2.3 2.2 1.3-2.7 4.5zM152.3 117.6l-11.8-5.2 1.1-2.4 6.1 1.4-5.6-2.5 1-2.3 11.8 5.2-1 2.3-6.4-1.4 5.9 2.6-1.1 2.3zM143.4 105.8l1.1-3.4c.3-.9.7-1.5 1.4-1.7.6-.3 1.4-.3 2.4 0l5.8 1.8c1.2.4 2.1.9 2.5 1.5.5.6.6 1.4.2 2.4l-1 3.3-12.4-3.9zm11 .2c.1-.4 0-.7-.4-.9l-6.3-2c-.3-.1-.5-.1-.6-.1-.2 0-.3 0-.4.1-.1.1-.2.3-.2.5l-.1.3 8 2.5v-.4zM158.1 101.4l-12.6-2.6 1-5.1 2.5.5-.5 2.5 2 .4.5-2.4 2.4.5-.5 2.4 5.7 1.2-.5 2.6zM159.4 94.5l-12.8-1.4.6-5.1 2.5.3-.3 2.5 2.5.3.3-2.4 2.4.3-.3 2.4 2.9.3.3-2.7 2.5.3-.6 5.2zM159.4 86.7c-.6.5-1.5.8-2.8.8h-1.3V85h1.6c.6 0 1-.2 1-.6 0-.2-.1-.4-.2-.5-.1-.1-.4-.1-.7-.1-.4 0-.8 0-1 .1-.3.1-.5.2-.7.4-.2.2-.5.4-.9.8l-1.1 1.1c-.8.9-1.8 1.3-2.8 1.3-1.1 0-1.9-.3-2.5-.8-.6-.5-.9-1.3-.8-2.2 0-1.2.3-2 .9-2.5.6-.5 1.6-.8 2.9-.7v2.6h-.9c-.2 0-.3 0-.4.1-.1.1-.2.2-.2.4s.1.4.2.5c.1.1.3.2.4.2.4 0 .9-.2 1.3-.7l1.5-1.5c.3-.3.7-.6 1-.9.3-.2.7-.4 1.1-.5.4-.1.9-.2 1.5-.2 1.3 0 2.2.3 2.9.7.7.5 1 1.2 1 2.3-.1 1-.4 1.9-1 2.4zM160 78.1l-10.4.9.1 1.5-2.5.2-.5-5.6 2.5-.2.1 1.5 10.4-.9.3 2.6zM159.4 72.6l-12.7 2.1-.4-2.5 12.7-2.1.4 2.5zM158.4 66.9l-12.1 4.6-.6-2.4 8.3-3-8.7 1.3-.6-2.4 12.9-1.5.8 3.4zM156.8 60.8L144.2 64l-1.5-4.1 11.7-5.5.8 2.3-1.9.9.5 1.5 2-.6 1 2.3zm-4.9-1.3l-.4-1.1-6 2.8v.1l6.4-1.8zM153.7 52.6L142 58.2l-1.1-2.3 9.6-4.6-1.2-2.4 2-1 2.4 4.7z"/>
    <g>
      <path d="M107 21.2c.2-.1.5-.2.8-.2.3 0 .6 0 .9.1L108 23c-.4-.1-.9-.1-1.4 0-.5.1-.9.4-1.3.7l-1.9-.7 4.4-12.1 2.6.9-3.4 9.4zM104.2 10c.4.3.7.7.9 1.1.2.4.2.9.1 1.4l-.3 1.3-2.4-.6.1-.2c.1-.4.2-.8.1-1s-.2-.4-.4-.5c-.3-.1-.5 0-.6.1-.1.1-.3.3-.3.6l-.6 2.5c.2-.2.4-.3.7-.4.3-.1.6-.1.9 0 .7.2 1.2.4 1.5.8s.5.8.5 1.4c0 .6-.1 1.3-.3 2.2-.3 1.3-.9 2.3-1.5 2.9-.7.6-1.6.7-2.8.4-.9-.2-1.5-.5-1.9-1-.4-.4-.7-.9-.7-1.6-.1-.6 0-1.4.3-2.3l.9-3.4c.3-1.3.7-2.3 1-3 .3-.7.8-1.2 1.4-1.5.6-.3 1.4-.3 2.4 0 .1.3.6.5 1 .8zm-4.2 7.1l-.4 1.6c-.2.6 0 1 .4 1.1.3.1.5 0 .6-.2.1-.2.2-.5.4-1l.3-1c.2-.7.1-1.1-.3-1.2-.6-.2-.9.1-1 .7zM98.5 8.5l-.4 2.2-2.6-.5.4-2.2 2.6.5zM95.1 11.6l-.2 1.7-3.7-.5.2-1.7 3.7.5zM90.2 7.9c0 .6-.1 1.1-.3 1.6-.2.5-.5.9-.7 1.3-.3.4-.7.8-1.1 1.4-.5.5-.9 1-1.1 1.4-.3.4-.5.8-.7 1.3a4.15 4.15 0 00-.2 2.4c.1.2.3.3.5.3.4 0 .7-.4.7-1.1l.1-1.6 2.7.1v.8c0 1-.2 1.8-.4 2.4-.2.6-.6 1.1-1.1 1.4-.5.3-1.2.4-2.1.4-1.1 0-1.9-.4-2.5-1-.6-.6-.8-1.5-.8-2.6 0-.7.2-1.3.4-1.9.2-.6.5-1.1.8-1.5.3-.4.7-.9 1.2-1.5.4-.4.7-.7.9-1.1.2-.3.5-.6.7-1l-3.5-.2-.2-2.2 6.7.3v.6zM80.9 17c.2-.2.4-.4.7-.5.3-.1.6-.2.9-.2l.1 2.1a3.13 3.13 0 00-2.2 1.7l-2.1.1-.6-13 2.7-.1.5 9.9zM76.3 7.4l.2 2.2-2.6.3-.2-2.2 2.6-.3zM69.2 8.6c.5.1 1 .4 1.3.8.4.4.6.9.7 1.5L72 14l-2.5.5-.6-3c0-.2-.1-.4-.3-.5s-.3-.1-.5-.1-.3.1-.4.3c-.1.1-.1.3 0 .6l2.1 9.7-2.6.5-2-9.4c-.1-.7-.1-1.3 0-1.8.2-.5.4-1 .8-1.4.5-.4 1-.7 1.6-.8.6-.1 1.1-.1 1.6 0zM62.1 10.9c.7.4 1.2 1.2 1.6 2.3l3 9-2.4.8-2.9-8.9c-.1-.4-.3-.7-.4-.9-.1-.2-.3-.2-.6-.2-.2.1-.4.2-.4.5 0 .2.1.6.2 1l2.9 8.9-2.4.8-3-9c-.4-1.1-.4-2-.1-2.8.3-.7 1-1.3 2-1.6 1-.4 1.8-.3 2.5.1zM54.6 12.7L60 24.4l-2.4 1.1-3.6-5.1 2.6 5.6-2.3 1-5.4-11.7 2.3-1.1 3.9 5.3-2.7-5.9 2.2-.9zM47.1 16.3l6.3 11.2-2.2 1.2-6.3-11.2 2.2-1.2zM40.3 21.1c.4.5.6 1 .8 1.5.2.5.2 1 .3 1.5v3.6c0 .5.1 1 .3 1.5.2.5.4 1 .8 1.5.2.3.4.5.6.6.2.1.4.1.6-.1.3-.3.3-.7-.2-1.3l-1-1.3 2.2-1.6.5.6c.6.8 1 1.5 1.2 2.1.2.6.2 1.2 0 1.8-.2.6-.6 1.1-1.3 1.6-.9.7-1.7.9-2.5.8-.8-.1-1.6-.6-2.3-1.5a7 7 0 01-.9-1.7c-.3-.7-.4-1.2-.4-1.8V27v-1.4c0-.4-.1-.8-.1-1.2l-2.8 2.1-1.5-1.9 5.3-4 .4.5zM33.2 27.1c.9 0 1.7.5 2.5 1.3l4 4.2c.8.9 1.3 1.8 1.3 2.6 0 .9-.4 1.7-1.2 2.5-.8.8-1.7 1.1-2.5 1.1-.9-.1-1.7-.5-2.5-1.4l-4-4.2c-.8-.8-1.2-1.7-1.2-2.5s.4-1.7 1.2-2.4c.7-.9 1.5-1.3 2.4-1.2zm-1 3.3c0 .2.1.4.3.6l4.4 4.6c.3.3.5.4.7.5.2.1.4 0 .6-.1.2-.2.2-.4.2-.6-.1-.2-.2-.4-.5-.7L33.4 30c-.2-.2-.4-.3-.6-.3s-.4 0-.5.1c-.1.2-.2.3-.1.6zM27.5 32.4c.5.4.8.8 1.1 1.3.3.5.5.9.6 1.4s.3 1 .4 1.7c.1.7.3 1.3.4 1.7.1.5.3.9.6 1.4.3.5.6.9 1.1 1.3.3.2.5.4.7.4s.4 0 .6-.2c.3-.3.1-.7-.5-1.2l-1.2-1L33 37l.6.5c.8.6 1.3 1.2 1.7 1.8.4.6.5 1.1.4 1.7-.1.6-.4 1.2-.9 1.9-.7.8-1.5 1.3-2.3 1.3-.8.1-1.7-.3-2.5-1-.5-.5-1-.9-1.3-1.5s-.5-1-.7-1.5c-.1-.5-.3-1.1-.4-1.8-.1-.5-.2-1-.3-1.4-.1-.4-.2-.7-.4-1.1l-2.3 2.7-1.9-1.6 4.3-5 .5.4zM21.8 39.7c.8-.2 1.7.1 2.7.7l4.9 3.2c1 .7 1.6 1.4 1.9 2.3.2.8 0 1.7-.6 2.7-.6 1-1.4 1.5-2.2 1.6-.8.1-1.8-.2-2.8-.8l-4.9-3.2c-1-.6-1.5-1.4-1.7-2.2-.2-.8 0-1.7.6-2.6.6-1 1.3-1.5 2.1-1.7zm-.2 3.5c.1.2.2.4.4.5l5.3 3.5c.3.2.6.3.8.4.2 0 .4-.1.5-.3.1-.2.2-.4 0-.6-.1-.2-.3-.4-.6-.6l-5.3-3.5c-.2-.1-.4-.2-.6-.2s-.4.1-.5.2c-.1.2-.1.4 0 .6z"/>
    </g>
  </g>
</svg>
